<mxfile host="app.diagrams.net" agent="Mozilla/5.0 (Windows NT 10.0; Win64; x64) AppleWebKit/537.36 (KHTML, like Gecko) Chrome/140.0.0.0 Safari/537.36" version="28.2.4">
  <diagram name="‫صفحه - 1‬" id="4D-Xj8asQQqM_uCNOIlP">
    <mxGraphModel dx="10255" dy="3747" grid="1" gridSize="10" guides="1" tooltips="1" connect="1" arrows="1" fold="1" page="1" pageScale="1" pageWidth="827" pageHeight="1169" math="0" shadow="0">
      <root>
        <mxCell id="0" />
        <mxCell id="1" parent="0" />
        <mxCell id="xFMYQZ4gHFHKDtacAfKV-3" value="" style="edgeStyle=orthogonalEdgeStyle;rounded=0;orthogonalLoop=1;jettySize=auto;html=1;fontFamily=Tahoma;fontStyle=1" edge="1" parent="1" source="xFMYQZ4gHFHKDtacAfKV-1" target="xFMYQZ4gHFHKDtacAfKV-2">
          <mxGeometry relative="1" as="geometry" />
        </mxCell>
        <mxCell id="xFMYQZ4gHFHKDtacAfKV-1" value="&lt;span&gt;&lt;font style=&quot;font-size: 24px;&quot;&gt;Start&lt;/font&gt;&lt;/span&gt;" style="ellipse;whiteSpace=wrap;html=1;fillColor=#fff2cc;strokeColor=#d6b656;fontFamily=Tahoma;fontStyle=1" vertex="1" parent="1">
          <mxGeometry x="350" y="40" width="130" height="70" as="geometry" />
        </mxCell>
        <mxCell id="xFMYQZ4gHFHKDtacAfKV-5" value="" style="edgeStyle=orthogonalEdgeStyle;rounded=0;orthogonalLoop=1;jettySize=auto;html=1;fontFamily=Tahoma;fontStyle=1" edge="1" parent="1" source="xFMYQZ4gHFHKDtacAfKV-2" target="xFMYQZ4gHFHKDtacAfKV-4">
          <mxGeometry relative="1" as="geometry" />
        </mxCell>
        <mxCell id="xFMYQZ4gHFHKDtacAfKV-2" value="&lt;font style=&quot;font-size: 12px;&quot;&gt;نمایش پنل شروع&lt;/font&gt;" style="rounded=0;whiteSpace=wrap;html=1;fillColor=#1ba1e2;fontColor=#ffffff;strokeColor=#006EAF;fontSize=11;fontStyle=1;fontFamily=Tahoma;" vertex="1" parent="1">
          <mxGeometry x="349" y="150" width="130" height="60" as="geometry" />
        </mxCell>
        <mxCell id="xFMYQZ4gHFHKDtacAfKV-7" value="" style="edgeStyle=orthogonalEdgeStyle;rounded=0;orthogonalLoop=1;jettySize=auto;html=1;fontFamily=Tahoma;fontStyle=1" edge="1" parent="1" source="xFMYQZ4gHFHKDtacAfKV-4" target="xFMYQZ4gHFHKDtacAfKV-6">
          <mxGeometry relative="1" as="geometry" />
        </mxCell>
        <mxCell id="xFMYQZ4gHFHKDtacAfKV-4" value="&lt;span&gt;دریافت ورودی&lt;/span&gt;&lt;div&gt;&lt;span&gt;choice&lt;/span&gt;&lt;/div&gt;" style="shape=parallelogram;perimeter=parallelogramPerimeter;whiteSpace=wrap;html=1;fixedSize=1;rounded=0;fillColor=#d80073;fontColor=#ffffff;strokeColor=#A50040;fontSize=11;fontStyle=1;fontFamily=Tahoma;" vertex="1" parent="1">
          <mxGeometry x="350" y="240" width="130" height="60" as="geometry" />
        </mxCell>
        <mxCell id="xFMYQZ4gHFHKDtacAfKV-10" value="" style="edgeStyle=orthogonalEdgeStyle;rounded=0;orthogonalLoop=1;jettySize=auto;html=1;fontFamily=Tahoma;fontStyle=1" edge="1" parent="1" source="xFMYQZ4gHFHKDtacAfKV-6" target="xFMYQZ4gHFHKDtacAfKV-8">
          <mxGeometry relative="1" as="geometry" />
        </mxCell>
        <mxCell id="xFMYQZ4gHFHKDtacAfKV-11" value="&lt;span&gt;No&lt;/span&gt;" style="edgeLabel;html=1;align=center;verticalAlign=middle;resizable=0;points=[];fontFamily=Tahoma;fontStyle=1" vertex="1" connectable="0" parent="xFMYQZ4gHFHKDtacAfKV-10">
          <mxGeometry x="-0.2791" y="1" relative="1" as="geometry">
            <mxPoint x="-12" as="offset" />
          </mxGeometry>
        </mxCell>
        <mxCell id="xFMYQZ4gHFHKDtacAfKV-607" style="edgeStyle=orthogonalEdgeStyle;rounded=0;orthogonalLoop=1;jettySize=auto;html=1;exitX=0.5;exitY=1;exitDx=0;exitDy=0;entryX=0.5;entryY=0;entryDx=0;entryDy=0;" edge="1" parent="1" source="xFMYQZ4gHFHKDtacAfKV-6" target="xFMYQZ4gHFHKDtacAfKV-502">
          <mxGeometry relative="1" as="geometry" />
        </mxCell>
        <mxCell id="xFMYQZ4gHFHKDtacAfKV-6" value="&lt;span&gt;choice == 1&lt;/span&gt;" style="rhombus;whiteSpace=wrap;html=1;rounded=0;fillColor=#fad9d5;strokeColor=#ae4132;fontSize=11;fontStyle=1;fontFamily=Tahoma;" vertex="1" parent="1">
          <mxGeometry x="1240" y="320" width="130" height="80" as="geometry" />
        </mxCell>
        <mxCell id="xFMYQZ4gHFHKDtacAfKV-15" value="" style="edgeStyle=orthogonalEdgeStyle;rounded=0;orthogonalLoop=1;jettySize=auto;html=1;fontFamily=Tahoma;fontStyle=1" edge="1" parent="1" source="xFMYQZ4gHFHKDtacAfKV-8" target="xFMYQZ4gHFHKDtacAfKV-14">
          <mxGeometry relative="1" as="geometry" />
        </mxCell>
        <mxCell id="xFMYQZ4gHFHKDtacAfKV-31" value="&lt;span&gt;Yes&lt;/span&gt;" style="edgeLabel;html=1;align=center;verticalAlign=middle;resizable=0;points=[];fontStyle=1;fontFamily=Tahoma;" vertex="1" connectable="0" parent="xFMYQZ4gHFHKDtacAfKV-15">
          <mxGeometry x="-0.2227" relative="1" as="geometry">
            <mxPoint as="offset" />
          </mxGeometry>
        </mxCell>
        <mxCell id="xFMYQZ4gHFHKDtacAfKV-305" value="" style="edgeStyle=orthogonalEdgeStyle;rounded=0;orthogonalLoop=1;jettySize=auto;html=1;fontStyle=1" edge="1" parent="1" source="xFMYQZ4gHFHKDtacAfKV-8" target="xFMYQZ4gHFHKDtacAfKV-304">
          <mxGeometry relative="1" as="geometry" />
        </mxCell>
        <mxCell id="xFMYQZ4gHFHKDtacAfKV-306" value="No" style="edgeLabel;html=1;align=center;verticalAlign=middle;resizable=0;points=[];fontStyle=1" vertex="1" connectable="0" parent="xFMYQZ4gHFHKDtacAfKV-305">
          <mxGeometry x="-0.3028" y="1" relative="1" as="geometry">
            <mxPoint as="offset" />
          </mxGeometry>
        </mxCell>
        <mxCell id="xFMYQZ4gHFHKDtacAfKV-8" value="&lt;span&gt;choice == 2&lt;/span&gt;" style="rhombus;whiteSpace=wrap;html=1;rounded=0;fillColor=#fad9d5;strokeColor=#ae4132;fontSize=11;fontStyle=1;fontFamily=Tahoma;" vertex="1" parent="1">
          <mxGeometry x="455" y="320" width="130" height="80" as="geometry" />
        </mxCell>
        <mxCell id="xFMYQZ4gHFHKDtacAfKV-17" value="" style="edgeStyle=orthogonalEdgeStyle;rounded=0;orthogonalLoop=1;jettySize=auto;html=1;fontFamily=Tahoma;fontStyle=1" edge="1" parent="1" source="xFMYQZ4gHFHKDtacAfKV-14" target="xFMYQZ4gHFHKDtacAfKV-16">
          <mxGeometry relative="1" as="geometry" />
        </mxCell>
        <mxCell id="xFMYQZ4gHFHKDtacAfKV-14" value="&lt;span&gt;دریافت ورودی&lt;/span&gt;&lt;div&gt;&lt;span&gt;User, pass&lt;/span&gt;&lt;/div&gt;" style="shape=parallelogram;perimeter=parallelogramPerimeter;whiteSpace=wrap;html=1;fixedSize=1;rounded=0;fillColor=#d80073;fontColor=#ffffff;strokeColor=#A50040;fontSize=11;fontStyle=1;fontFamily=Tahoma;" vertex="1" parent="1">
          <mxGeometry x="455" y="440" width="130" height="60" as="geometry" />
        </mxCell>
        <mxCell id="xFMYQZ4gHFHKDtacAfKV-19" style="edgeStyle=orthogonalEdgeStyle;rounded=0;orthogonalLoop=1;jettySize=auto;html=1;exitX=0.5;exitY=1;exitDx=0;exitDy=0;entryX=0.5;entryY=1;entryDx=0;entryDy=0;fontFamily=Tahoma;fontStyle=1" edge="1" parent="1" source="xFMYQZ4gHFHKDtacAfKV-16" target="xFMYQZ4gHFHKDtacAfKV-18">
          <mxGeometry relative="1" as="geometry" />
        </mxCell>
        <mxCell id="xFMYQZ4gHFHKDtacAfKV-20" value="&lt;span&gt;No&lt;/span&gt;" style="edgeLabel;html=1;align=center;verticalAlign=middle;resizable=0;points=[];fontFamily=Tahoma;fontStyle=1" vertex="1" connectable="0" parent="xFMYQZ4gHFHKDtacAfKV-19">
          <mxGeometry x="0.5735" y="1" relative="1" as="geometry">
            <mxPoint as="offset" />
          </mxGeometry>
        </mxCell>
        <mxCell id="xFMYQZ4gHFHKDtacAfKV-23" style="edgeStyle=orthogonalEdgeStyle;rounded=0;orthogonalLoop=1;jettySize=auto;html=1;exitX=0.5;exitY=1;exitDx=0;exitDy=0;entryX=0.5;entryY=0;entryDx=0;entryDy=0;fontFamily=Tahoma;fontStyle=1" edge="1" parent="1" source="xFMYQZ4gHFHKDtacAfKV-16" target="xFMYQZ4gHFHKDtacAfKV-22">
          <mxGeometry relative="1" as="geometry" />
        </mxCell>
        <mxCell id="xFMYQZ4gHFHKDtacAfKV-32" value="&lt;span&gt;Yes&lt;/span&gt;" style="edgeLabel;html=1;align=center;verticalAlign=middle;resizable=0;points=[];fontStyle=1;fontFamily=Tahoma;" vertex="1" connectable="0" parent="xFMYQZ4gHFHKDtacAfKV-23">
          <mxGeometry x="0.0333" y="-2" relative="1" as="geometry">
            <mxPoint as="offset" />
          </mxGeometry>
        </mxCell>
        <mxCell id="xFMYQZ4gHFHKDtacAfKV-16" value="نام کاربری و&lt;div&gt;رمز عبور&lt;/div&gt;&lt;div&gt;صحیح است&lt;/div&gt;" style="rhombus;whiteSpace=wrap;html=1;rounded=0;fillColor=#fad9d5;strokeColor=#ae4132;fontSize=11;fontStyle=1;fontFamily=Tahoma;" vertex="1" parent="1">
          <mxGeometry x="455" y="540" width="130" height="80" as="geometry" />
        </mxCell>
        <mxCell id="xFMYQZ4gHFHKDtacAfKV-21" style="edgeStyle=orthogonalEdgeStyle;rounded=0;orthogonalLoop=1;jettySize=auto;html=1;exitX=0.5;exitY=0;exitDx=0;exitDy=0;entryX=0;entryY=0.5;entryDx=0;entryDy=0;fontFamily=Tahoma;fontStyle=1" edge="1" parent="1" source="xFMYQZ4gHFHKDtacAfKV-18" target="xFMYQZ4gHFHKDtacAfKV-14">
          <mxGeometry relative="1" as="geometry">
            <Array as="points">
              <mxPoint x="405" y="470" />
            </Array>
          </mxGeometry>
        </mxCell>
        <mxCell id="xFMYQZ4gHFHKDtacAfKV-18" value=":نمایش پیام&lt;div&gt;نادرست بودن&lt;/div&gt;&lt;div&gt;اطلاعات&lt;/div&gt;" style="whiteSpace=wrap;html=1;rounded=0;fillColor=#1ba1e2;fontColor=#ffffff;strokeColor=#006EAF;fontSize=11;fontStyle=1;fontFamily=Tahoma;" vertex="1" parent="1">
          <mxGeometry x="360" y="510" width="90" height="50" as="geometry" />
        </mxCell>
        <mxCell id="xFMYQZ4gHFHKDtacAfKV-25" value="" style="edgeStyle=orthogonalEdgeStyle;rounded=0;orthogonalLoop=1;jettySize=auto;html=1;fontStyle=1;fontFamily=Tahoma;" edge="1" parent="1" source="xFMYQZ4gHFHKDtacAfKV-22" target="xFMYQZ4gHFHKDtacAfKV-24">
          <mxGeometry relative="1" as="geometry" />
        </mxCell>
        <mxCell id="xFMYQZ4gHFHKDtacAfKV-22" value="اجرای صفحه&lt;div&gt;Train Employee Panel&lt;/div&gt;" style="whiteSpace=wrap;html=1;rounded=0;fillColor=#1ba1e2;fontColor=#ffffff;strokeColor=#006EAF;fontSize=11;fontStyle=1;fontFamily=Tahoma;" vertex="1" parent="1">
          <mxGeometry x="450" y="680" width="140" height="70" as="geometry" />
        </mxCell>
        <mxCell id="xFMYQZ4gHFHKDtacAfKV-27" value="" style="edgeStyle=orthogonalEdgeStyle;rounded=0;orthogonalLoop=1;jettySize=auto;html=1;fontStyle=1;fontFamily=Tahoma;" edge="1" parent="1" source="xFMYQZ4gHFHKDtacAfKV-24" target="xFMYQZ4gHFHKDtacAfKV-26">
          <mxGeometry relative="1" as="geometry" />
        </mxCell>
        <mxCell id="xFMYQZ4gHFHKDtacAfKV-24" value="&lt;span&gt;دریافت ورودی&lt;/span&gt;&lt;div&gt;&lt;span&gt;choice&lt;/span&gt;&lt;/div&gt;" style="shape=parallelogram;perimeter=parallelogramPerimeter;whiteSpace=wrap;html=1;fixedSize=1;rounded=0;fillColor=#d80073;fontColor=#ffffff;strokeColor=#A50040;fontSize=11;fontStyle=1;fontFamily=Tahoma;" vertex="1" parent="1">
          <mxGeometry x="455" y="780" width="130" height="60" as="geometry" />
        </mxCell>
        <mxCell id="xFMYQZ4gHFHKDtacAfKV-29" value="" style="edgeStyle=orthogonalEdgeStyle;rounded=0;orthogonalLoop=1;jettySize=auto;html=1;fontStyle=1;fontFamily=Tahoma;" edge="1" parent="1" source="xFMYQZ4gHFHKDtacAfKV-26" target="xFMYQZ4gHFHKDtacAfKV-28">
          <mxGeometry relative="1" as="geometry" />
        </mxCell>
        <mxCell id="xFMYQZ4gHFHKDtacAfKV-30" value="&lt;span&gt;Yes&lt;/span&gt;" style="edgeLabel;html=1;align=center;verticalAlign=middle;resizable=0;points=[];fontStyle=1;fontFamily=Tahoma;" vertex="1" connectable="0" parent="xFMYQZ4gHFHKDtacAfKV-29">
          <mxGeometry x="-0.2773" y="-1" relative="1" as="geometry">
            <mxPoint as="offset" />
          </mxGeometry>
        </mxCell>
        <mxCell id="xFMYQZ4gHFHKDtacAfKV-67" style="edgeStyle=orthogonalEdgeStyle;rounded=0;orthogonalLoop=1;jettySize=auto;html=1;exitX=0;exitY=0.5;exitDx=0;exitDy=0;entryX=1;entryY=0.5;entryDx=0;entryDy=0;fontStyle=1" edge="1" parent="1" source="xFMYQZ4gHFHKDtacAfKV-26" target="xFMYQZ4gHFHKDtacAfKV-66">
          <mxGeometry relative="1" as="geometry" />
        </mxCell>
        <mxCell id="xFMYQZ4gHFHKDtacAfKV-68" value="&lt;span&gt;No&lt;/span&gt;" style="edgeLabel;html=1;align=center;verticalAlign=middle;resizable=0;points=[];fontStyle=1" vertex="1" connectable="0" parent="xFMYQZ4gHFHKDtacAfKV-67">
          <mxGeometry x="-0.011" relative="1" as="geometry">
            <mxPoint as="offset" />
          </mxGeometry>
        </mxCell>
        <mxCell id="xFMYQZ4gHFHKDtacAfKV-26" value="&lt;span&gt;choice == 1&lt;/span&gt;" style="rhombus;whiteSpace=wrap;html=1;rounded=0;fillColor=#fad9d5;strokeColor=#ae4132;fontSize=11;fontStyle=1;fontFamily=Tahoma;" vertex="1" parent="1">
          <mxGeometry x="455" y="870" width="130" height="80" as="geometry" />
        </mxCell>
        <mxCell id="xFMYQZ4gHFHKDtacAfKV-34" value="" style="edgeStyle=orthogonalEdgeStyle;rounded=0;orthogonalLoop=1;jettySize=auto;html=1;fontStyle=1;fontFamily=Tahoma;" edge="1" parent="1" source="xFMYQZ4gHFHKDtacAfKV-28" target="xFMYQZ4gHFHKDtacAfKV-33">
          <mxGeometry relative="1" as="geometry" />
        </mxCell>
        <mxCell id="xFMYQZ4gHFHKDtacAfKV-28" value="اجرای صفحه&lt;div&gt;Add_line&lt;/div&gt;" style="whiteSpace=wrap;html=1;rounded=0;fillColor=#1ba1e2;fontColor=#ffffff;strokeColor=#006EAF;fontSize=11;fontStyle=1;fontFamily=Tahoma;" vertex="1" parent="1">
          <mxGeometry x="450" y="990" width="140" height="70" as="geometry" />
        </mxCell>
        <mxCell id="xFMYQZ4gHFHKDtacAfKV-43" value="" style="edgeStyle=orthogonalEdgeStyle;rounded=0;orthogonalLoop=1;jettySize=auto;html=1;fontStyle=1" edge="1" parent="1" source="xFMYQZ4gHFHKDtacAfKV-33" target="xFMYQZ4gHFHKDtacAfKV-35">
          <mxGeometry relative="1" as="geometry" />
        </mxCell>
        <mxCell id="xFMYQZ4gHFHKDtacAfKV-33" value="&lt;span&gt;دریافت ورودی&lt;/span&gt;&lt;div&gt;&lt;span&gt;name&lt;/span&gt;&lt;/div&gt;" style="shape=parallelogram;perimeter=parallelogramPerimeter;whiteSpace=wrap;html=1;fixedSize=1;rounded=0;fillColor=#d80073;fontColor=#ffffff;strokeColor=#A50040;fontSize=11;fontStyle=1;fontFamily=Tahoma;" vertex="1" parent="1">
          <mxGeometry x="455" y="1090" width="130" height="60" as="geometry" />
        </mxCell>
        <mxCell id="xFMYQZ4gHFHKDtacAfKV-48" value="" style="edgeStyle=orthogonalEdgeStyle;rounded=0;orthogonalLoop=1;jettySize=auto;html=1;fontStyle=1" edge="1" parent="1" source="xFMYQZ4gHFHKDtacAfKV-35" target="xFMYQZ4gHFHKDtacAfKV-47">
          <mxGeometry relative="1" as="geometry" />
        </mxCell>
        <mxCell id="xFMYQZ4gHFHKDtacAfKV-55" value="&lt;span&gt;No&lt;/span&gt;" style="edgeLabel;html=1;align=center;verticalAlign=middle;resizable=0;points=[];fontStyle=1" vertex="1" connectable="0" parent="xFMYQZ4gHFHKDtacAfKV-48">
          <mxGeometry x="-0.3167" relative="1" as="geometry">
            <mxPoint as="offset" />
          </mxGeometry>
        </mxCell>
        <mxCell id="xFMYQZ4gHFHKDtacAfKV-51" style="edgeStyle=orthogonalEdgeStyle;rounded=0;orthogonalLoop=1;jettySize=auto;html=1;exitX=0;exitY=0.5;exitDx=0;exitDy=0;entryX=0;entryY=0.5;entryDx=0;entryDy=0;fontStyle=1" edge="1" parent="1" source="xFMYQZ4gHFHKDtacAfKV-35" target="xFMYQZ4gHFHKDtacAfKV-22">
          <mxGeometry relative="1" as="geometry" />
        </mxCell>
        <mxCell id="xFMYQZ4gHFHKDtacAfKV-54" value="Yes" style="edgeLabel;html=1;align=center;verticalAlign=middle;resizable=0;points=[];fontStyle=1" vertex="1" connectable="0" parent="xFMYQZ4gHFHKDtacAfKV-51">
          <mxGeometry x="-0.8138" relative="1" as="geometry">
            <mxPoint as="offset" />
          </mxGeometry>
        </mxCell>
        <mxCell id="xFMYQZ4gHFHKDtacAfKV-35" value="name&lt;br&gt;==&lt;br&gt;&#39;back&#39;" style="rhombus;whiteSpace=wrap;html=1;rounded=0;fillColor=#fad9d5;strokeColor=#ae4132;fontStyle=1;fontFamily=Tahoma;" vertex="1" parent="1">
          <mxGeometry x="452.5" y="1210" width="135" height="90" as="geometry" />
        </mxCell>
        <mxCell id="xFMYQZ4gHFHKDtacAfKV-53" value="" style="edgeStyle=orthogonalEdgeStyle;rounded=0;orthogonalLoop=1;jettySize=auto;html=1;fontStyle=1" edge="1" parent="1" source="xFMYQZ4gHFHKDtacAfKV-37" target="xFMYQZ4gHFHKDtacAfKV-42">
          <mxGeometry relative="1" as="geometry" />
        </mxCell>
        <mxCell id="xFMYQZ4gHFHKDtacAfKV-37" value="&lt;span&gt;دریافت ورودی&lt;/span&gt;&lt;div&gt;&lt;span&gt;سایر اطلاعات خط&lt;/span&gt;&lt;/div&gt;" style="shape=parallelogram;perimeter=parallelogramPerimeter;whiteSpace=wrap;html=1;fixedSize=1;rounded=0;fillColor=#d80073;fontColor=#ffffff;strokeColor=#A50040;fontStyle=1;fontFamily=Tahoma;" vertex="1" parent="1">
          <mxGeometry x="460" y="1470" width="120" height="60" as="geometry" />
        </mxCell>
        <mxCell id="xFMYQZ4gHFHKDtacAfKV-46" style="edgeStyle=orthogonalEdgeStyle;rounded=0;orthogonalLoop=1;jettySize=auto;html=1;exitX=0.5;exitY=0;exitDx=0;exitDy=0;entryX=1;entryY=0.5;entryDx=0;entryDy=0;fontStyle=1" edge="1" parent="1" source="xFMYQZ4gHFHKDtacAfKV-38" target="xFMYQZ4gHFHKDtacAfKV-33">
          <mxGeometry relative="1" as="geometry">
            <Array as="points">
              <mxPoint x="629" y="1120" />
            </Array>
          </mxGeometry>
        </mxCell>
        <mxCell id="xFMYQZ4gHFHKDtacAfKV-38" value="&lt;span&gt;نمایش پیام تکراری&lt;/span&gt;&lt;div&gt;&lt;span&gt;بودن نام&lt;/span&gt;&lt;/div&gt;" style="whiteSpace=wrap;html=1;rounded=0;fillColor=#1ba1e2;fontColor=#ffffff;strokeColor=#006EAF;fontStyle=1;fontFamily=Tahoma;" vertex="1" parent="1">
          <mxGeometry x="576" y="1160" width="105.5" height="50" as="geometry" />
        </mxCell>
        <mxCell id="xFMYQZ4gHFHKDtacAfKV-58" style="edgeStyle=orthogonalEdgeStyle;rounded=0;orthogonalLoop=1;jettySize=auto;html=1;exitX=1;exitY=0.5;exitDx=0;exitDy=0;entryX=1;entryY=0.25;entryDx=0;entryDy=0;fontStyle=1" edge="1" parent="1" source="xFMYQZ4gHFHKDtacAfKV-42" target="xFMYQZ4gHFHKDtacAfKV-22">
          <mxGeometry relative="1" as="geometry">
            <Array as="points">
              <mxPoint x="690" y="1595" />
              <mxPoint x="690" y="698" />
            </Array>
          </mxGeometry>
        </mxCell>
        <mxCell id="xFMYQZ4gHFHKDtacAfKV-42" value="&lt;span&gt;ساخت یک شی از کلاس&lt;br&gt;Line&lt;br&gt;و قرار دادن اطلاعات دریافتی&lt;br&gt;&lt;/span&gt;&lt;div&gt;&lt;span&gt;درون آن&lt;/span&gt;&lt;/div&gt;&lt;div&gt;و اعلام پیام موفقیت آمیز بودن&lt;/div&gt;" style="whiteSpace=wrap;html=1;rounded=0;fillColor=#1ba1e2;fontColor=#ffffff;strokeColor=#006EAF;fontStyle=1;fontFamily=Tahoma;" vertex="1" parent="1">
          <mxGeometry x="430" y="1550" width="180" height="90" as="geometry" />
        </mxCell>
        <mxCell id="xFMYQZ4gHFHKDtacAfKV-49" style="edgeStyle=orthogonalEdgeStyle;rounded=0;orthogonalLoop=1;jettySize=auto;html=1;exitX=1;exitY=0.5;exitDx=0;exitDy=0;entryX=0.5;entryY=1;entryDx=0;entryDy=0;fontStyle=1" edge="1" parent="1" source="xFMYQZ4gHFHKDtacAfKV-47" target="xFMYQZ4gHFHKDtacAfKV-38">
          <mxGeometry relative="1" as="geometry" />
        </mxCell>
        <mxCell id="xFMYQZ4gHFHKDtacAfKV-50" value="&lt;span&gt;No&lt;/span&gt;" style="edgeLabel;html=1;align=center;verticalAlign=middle;resizable=0;points=[];fontStyle=1" vertex="1" connectable="0" parent="xFMYQZ4gHFHKDtacAfKV-49">
          <mxGeometry x="-0.2525" y="3" relative="1" as="geometry">
            <mxPoint as="offset" />
          </mxGeometry>
        </mxCell>
        <mxCell id="xFMYQZ4gHFHKDtacAfKV-52" value="" style="edgeStyle=orthogonalEdgeStyle;rounded=0;orthogonalLoop=1;jettySize=auto;html=1;fontStyle=1" edge="1" parent="1" source="xFMYQZ4gHFHKDtacAfKV-47" target="xFMYQZ4gHFHKDtacAfKV-37">
          <mxGeometry relative="1" as="geometry" />
        </mxCell>
        <mxCell id="xFMYQZ4gHFHKDtacAfKV-56" value="&lt;span&gt;Yes&lt;/span&gt;" style="edgeLabel;html=1;align=center;verticalAlign=middle;resizable=0;points=[];fontStyle=1" vertex="1" connectable="0" parent="xFMYQZ4gHFHKDtacAfKV-52">
          <mxGeometry x="0.224" y="-1" relative="1" as="geometry">
            <mxPoint y="-8" as="offset" />
          </mxGeometry>
        </mxCell>
        <mxCell id="xFMYQZ4gHFHKDtacAfKV-47" value="name&lt;br&gt;&lt;div&gt;in&lt;/div&gt;&lt;div&gt;Lines&lt;/div&gt;" style="rhombus;whiteSpace=wrap;html=1;rounded=0;fillColor=#fad9d5;strokeColor=#ae4132;fontStyle=1;fontFamily=Tahoma;" vertex="1" parent="1">
          <mxGeometry x="452.5" y="1340" width="135" height="90" as="geometry" />
        </mxCell>
        <mxCell id="xFMYQZ4gHFHKDtacAfKV-91" value="" style="edgeStyle=orthogonalEdgeStyle;rounded=0;orthogonalLoop=1;jettySize=auto;html=1;fontStyle=1" edge="1" parent="1" source="xFMYQZ4gHFHKDtacAfKV-66" target="xFMYQZ4gHFHKDtacAfKV-69">
          <mxGeometry relative="1" as="geometry" />
        </mxCell>
        <mxCell id="xFMYQZ4gHFHKDtacAfKV-92" value="Yes" style="edgeLabel;html=1;align=center;verticalAlign=middle;resizable=0;points=[];fontStyle=1" vertex="1" connectable="0" parent="xFMYQZ4gHFHKDtacAfKV-91">
          <mxGeometry x="-0.3125" relative="1" as="geometry">
            <mxPoint as="offset" />
          </mxGeometry>
        </mxCell>
        <mxCell id="xFMYQZ4gHFHKDtacAfKV-129" value="" style="edgeStyle=orthogonalEdgeStyle;rounded=0;orthogonalLoop=1;jettySize=auto;html=1;fontStyle=1" edge="1" parent="1" source="xFMYQZ4gHFHKDtacAfKV-66" target="xFMYQZ4gHFHKDtacAfKV-128">
          <mxGeometry relative="1" as="geometry" />
        </mxCell>
        <mxCell id="xFMYQZ4gHFHKDtacAfKV-138" value="No" style="edgeLabel;html=1;align=center;verticalAlign=middle;resizable=0;points=[];fontStyle=1" vertex="1" connectable="0" parent="xFMYQZ4gHFHKDtacAfKV-129">
          <mxGeometry x="-0.2709" relative="1" as="geometry">
            <mxPoint as="offset" />
          </mxGeometry>
        </mxCell>
        <mxCell id="xFMYQZ4gHFHKDtacAfKV-66" value="&lt;span&gt;choice == 2&lt;/span&gt;" style="rhombus;whiteSpace=wrap;html=1;rounded=0;fillColor=#fad9d5;strokeColor=#ae4132;fontSize=11;fontStyle=1;fontFamily=Tahoma;" vertex="1" parent="1">
          <mxGeometry x="151.5" y="870" width="130" height="80" as="geometry" />
        </mxCell>
        <mxCell id="xFMYQZ4gHFHKDtacAfKV-77" value="" style="edgeStyle=orthogonalEdgeStyle;rounded=0;orthogonalLoop=1;jettySize=auto;html=1;fontStyle=1" edge="1" parent="1" source="xFMYQZ4gHFHKDtacAfKV-69" target="xFMYQZ4gHFHKDtacAfKV-70">
          <mxGeometry relative="1" as="geometry" />
        </mxCell>
        <mxCell id="xFMYQZ4gHFHKDtacAfKV-69" value="&lt;span style=&quot;color: rgb(0, 0, 0); font-family: Helvetica; font-size: 12px;&quot;&gt;اجرای صفحه&lt;br&gt;update_line&lt;/span&gt;" style="whiteSpace=wrap;html=1;rounded=0;fillColor=#1ba1e2;fontColor=#ffffff;strokeColor=#006EAF;fontSize=11;fontStyle=1;fontFamily=Tahoma;" vertex="1" parent="1">
          <mxGeometry x="145.5" y="990" width="140" height="70" as="geometry" />
        </mxCell>
        <mxCell id="xFMYQZ4gHFHKDtacAfKV-78" value="" style="edgeStyle=orthogonalEdgeStyle;rounded=0;orthogonalLoop=1;jettySize=auto;html=1;fontStyle=1" edge="1" parent="1" source="xFMYQZ4gHFHKDtacAfKV-70" target="xFMYQZ4gHFHKDtacAfKV-71">
          <mxGeometry relative="1" as="geometry" />
        </mxCell>
        <mxCell id="xFMYQZ4gHFHKDtacAfKV-70" value="&lt;span&gt;دریافت ورودی&lt;/span&gt;&lt;div&gt;&lt;span&gt;name&lt;/span&gt;&lt;/div&gt;" style="shape=parallelogram;perimeter=parallelogramPerimeter;whiteSpace=wrap;html=1;fixedSize=1;rounded=0;fillColor=#d80073;fontColor=#ffffff;strokeColor=#A50040;fontSize=11;fontStyle=1;fontFamily=Tahoma;" vertex="1" parent="1">
          <mxGeometry x="151.5" y="1090" width="130" height="60" as="geometry" />
        </mxCell>
        <mxCell id="xFMYQZ4gHFHKDtacAfKV-79" style="edgeStyle=orthogonalEdgeStyle;rounded=0;orthogonalLoop=1;jettySize=auto;html=1;exitX=1;exitY=0.5;exitDx=0;exitDy=0;entryX=0;entryY=0.25;entryDx=0;entryDy=0;fontStyle=1" edge="1" parent="1" source="xFMYQZ4gHFHKDtacAfKV-71" target="xFMYQZ4gHFHKDtacAfKV-22">
          <mxGeometry relative="1" as="geometry">
            <Array as="points">
              <mxPoint x="380" y="1235" />
              <mxPoint x="380" y="698" />
            </Array>
          </mxGeometry>
        </mxCell>
        <mxCell id="xFMYQZ4gHFHKDtacAfKV-80" value="Yes" style="edgeLabel;html=1;align=center;verticalAlign=middle;resizable=0;points=[];fontStyle=1" vertex="1" connectable="0" parent="xFMYQZ4gHFHKDtacAfKV-79">
          <mxGeometry x="-0.8977" y="-1" relative="1" as="geometry">
            <mxPoint as="offset" />
          </mxGeometry>
        </mxCell>
        <mxCell id="xFMYQZ4gHFHKDtacAfKV-81" value="" style="edgeStyle=orthogonalEdgeStyle;rounded=0;orthogonalLoop=1;jettySize=auto;html=1;fontStyle=1" edge="1" parent="1" source="xFMYQZ4gHFHKDtacAfKV-71" target="xFMYQZ4gHFHKDtacAfKV-73">
          <mxGeometry relative="1" as="geometry" />
        </mxCell>
        <mxCell id="xFMYQZ4gHFHKDtacAfKV-82" value="No" style="edgeLabel;html=1;align=center;verticalAlign=middle;resizable=0;points=[];fontStyle=1" vertex="1" connectable="0" parent="xFMYQZ4gHFHKDtacAfKV-81">
          <mxGeometry x="-0.2857" y="-1" relative="1" as="geometry">
            <mxPoint as="offset" />
          </mxGeometry>
        </mxCell>
        <mxCell id="xFMYQZ4gHFHKDtacAfKV-71" value="name&lt;br&gt;==&lt;br&gt;&#39;back&#39;" style="rhombus;whiteSpace=wrap;html=1;rounded=0;fillColor=#fad9d5;strokeColor=#ae4132;fontStyle=1;fontFamily=Tahoma;" vertex="1" parent="1">
          <mxGeometry x="149" y="1190" width="135" height="90" as="geometry" />
        </mxCell>
        <mxCell id="xFMYQZ4gHFHKDtacAfKV-76" style="edgeStyle=orthogonalEdgeStyle;rounded=0;orthogonalLoop=1;jettySize=auto;html=1;exitX=0.5;exitY=0;exitDx=0;exitDy=0;entryX=1;entryY=0.5;entryDx=0;entryDy=0;fontStyle=1" edge="1" parent="1" source="xFMYQZ4gHFHKDtacAfKV-72" target="xFMYQZ4gHFHKDtacAfKV-69">
          <mxGeometry relative="1" as="geometry" />
        </mxCell>
        <mxCell id="xFMYQZ4gHFHKDtacAfKV-72" value="چاپ پیام مناسب" style="whiteSpace=wrap;html=1;rounded=0;fillColor=#1ba1e2;fontColor=#ffffff;strokeColor=#006EAF;fontStyle=1;fontFamily=Tahoma;" vertex="1" parent="1">
          <mxGeometry x="293" y="1270" width="105.5" height="50" as="geometry" />
        </mxCell>
        <mxCell id="xFMYQZ4gHFHKDtacAfKV-75" style="edgeStyle=orthogonalEdgeStyle;rounded=0;orthogonalLoop=1;jettySize=auto;html=1;exitX=1;exitY=0.5;exitDx=0;exitDy=0;entryX=0.5;entryY=1;entryDx=0;entryDy=0;fontStyle=1" edge="1" parent="1" source="xFMYQZ4gHFHKDtacAfKV-73" target="xFMYQZ4gHFHKDtacAfKV-72">
          <mxGeometry relative="1" as="geometry" />
        </mxCell>
        <mxCell id="xFMYQZ4gHFHKDtacAfKV-83" value="No" style="edgeLabel;html=1;align=center;verticalAlign=middle;resizable=0;points=[];fontStyle=1" vertex="1" connectable="0" parent="xFMYQZ4gHFHKDtacAfKV-75">
          <mxGeometry x="-0.5155" y="1" relative="1" as="geometry">
            <mxPoint as="offset" />
          </mxGeometry>
        </mxCell>
        <mxCell id="xFMYQZ4gHFHKDtacAfKV-88" value="" style="edgeStyle=orthogonalEdgeStyle;rounded=0;orthogonalLoop=1;jettySize=auto;html=1;fontStyle=1" edge="1" parent="1" source="xFMYQZ4gHFHKDtacAfKV-73" target="xFMYQZ4gHFHKDtacAfKV-85">
          <mxGeometry relative="1" as="geometry" />
        </mxCell>
        <mxCell id="xFMYQZ4gHFHKDtacAfKV-89" value="Yes" style="edgeLabel;html=1;align=center;verticalAlign=middle;resizable=0;points=[];fontStyle=1" vertex="1" connectable="0" parent="xFMYQZ4gHFHKDtacAfKV-88">
          <mxGeometry x="0.3543" y="-1" relative="1" as="geometry">
            <mxPoint y="-4" as="offset" />
          </mxGeometry>
        </mxCell>
        <mxCell id="xFMYQZ4gHFHKDtacAfKV-73" value="name&lt;br&gt;&lt;div&gt;in&lt;/div&gt;&lt;div&gt;Lines&lt;/div&gt;" style="rhombus;whiteSpace=wrap;html=1;rounded=0;fillColor=#fad9d5;strokeColor=#ae4132;fontStyle=1;fontFamily=Tahoma;" vertex="1" parent="1">
          <mxGeometry x="149" y="1320" width="135" height="90" as="geometry" />
        </mxCell>
        <mxCell id="xFMYQZ4gHFHKDtacAfKV-90" value="" style="edgeStyle=orthogonalEdgeStyle;rounded=0;orthogonalLoop=1;jettySize=auto;html=1;fontStyle=1" edge="1" parent="1" source="xFMYQZ4gHFHKDtacAfKV-85" target="xFMYQZ4gHFHKDtacAfKV-86">
          <mxGeometry relative="1" as="geometry" />
        </mxCell>
        <mxCell id="xFMYQZ4gHFHKDtacAfKV-85" value="&lt;span style=&quot;color: rgb(0, 0, 0); font-family: Helvetica;&quot;&gt;چاپ اطلاعات خطوط&lt;/span&gt;&lt;div&gt;&lt;span style=&quot;color: light-dark(rgb(0, 0, 0), rgb(19, 19, 19)); font-family: Helvetica; background-color: transparent;&quot;&gt;و&lt;/span&gt;&lt;/div&gt;&lt;div&gt;&lt;span style=&quot;background-color: transparent; color: light-dark(rgb(0, 0, 0), rgb(19, 19, 19)); font-family: Helvetica;&quot;&gt;پرسیدن تغییر کدام ویژگی&lt;/span&gt;&lt;/div&gt;" style="whiteSpace=wrap;html=1;rounded=0;fillColor=#1ba1e2;fontColor=#ffffff;strokeColor=#006EAF;fontStyle=1;fontFamily=Tahoma;" vertex="1" parent="1">
          <mxGeometry x="151.5" y="1440" width="130" height="70" as="geometry" />
        </mxCell>
        <mxCell id="xFMYQZ4gHFHKDtacAfKV-98" value="" style="edgeStyle=orthogonalEdgeStyle;rounded=0;orthogonalLoop=1;jettySize=auto;html=1;fontStyle=1" edge="1" parent="1" source="xFMYQZ4gHFHKDtacAfKV-86" target="xFMYQZ4gHFHKDtacAfKV-97">
          <mxGeometry relative="1" as="geometry" />
        </mxCell>
        <mxCell id="xFMYQZ4gHFHKDtacAfKV-86" value="&lt;span&gt;دریافت ورودی&lt;/span&gt;&lt;div&gt;&lt;span&gt;choice&lt;/span&gt;&lt;/div&gt;" style="shape=parallelogram;perimeter=parallelogramPerimeter;whiteSpace=wrap;html=1;fixedSize=1;rounded=0;fillColor=#d80073;fontColor=#ffffff;strokeColor=#A50040;fontSize=11;fontStyle=1;fontFamily=Tahoma;" vertex="1" parent="1">
          <mxGeometry x="151.5" y="1540" width="130" height="60" as="geometry" />
        </mxCell>
        <mxCell id="xFMYQZ4gHFHKDtacAfKV-102" value="" style="edgeStyle=orthogonalEdgeStyle;rounded=0;orthogonalLoop=1;jettySize=auto;html=1;fontStyle=1" edge="1" parent="1" source="xFMYQZ4gHFHKDtacAfKV-97" target="xFMYQZ4gHFHKDtacAfKV-99">
          <mxGeometry relative="1" as="geometry" />
        </mxCell>
        <mxCell id="xFMYQZ4gHFHKDtacAfKV-103" value="&lt;span&gt;Yes&lt;/span&gt;" style="edgeLabel;html=1;align=center;verticalAlign=middle;resizable=0;points=[];fontStyle=1" vertex="1" connectable="0" parent="xFMYQZ4gHFHKDtacAfKV-102">
          <mxGeometry x="0.1557" relative="1" as="geometry">
            <mxPoint as="offset" />
          </mxGeometry>
        </mxCell>
        <mxCell id="xFMYQZ4gHFHKDtacAfKV-109" value="" style="edgeStyle=orthogonalEdgeStyle;rounded=0;orthogonalLoop=1;jettySize=auto;html=1;fontStyle=1" edge="1" parent="1" source="xFMYQZ4gHFHKDtacAfKV-97" target="xFMYQZ4gHFHKDtacAfKV-105">
          <mxGeometry relative="1" as="geometry" />
        </mxCell>
        <mxCell id="xFMYQZ4gHFHKDtacAfKV-110" value="No" style="edgeLabel;html=1;align=center;verticalAlign=middle;resizable=0;points=[];fontStyle=1" vertex="1" connectable="0" parent="xFMYQZ4gHFHKDtacAfKV-109">
          <mxGeometry x="-0.1032" y="-1" relative="1" as="geometry">
            <mxPoint as="offset" />
          </mxGeometry>
        </mxCell>
        <mxCell id="xFMYQZ4gHFHKDtacAfKV-97" value="&lt;span&gt;choice == 1&lt;/span&gt;" style="rhombus;whiteSpace=wrap;html=1;rounded=0;fillColor=#fad9d5;strokeColor=#ae4132;fontSize=11;fontStyle=1;fontFamily=Tahoma;" vertex="1" parent="1">
          <mxGeometry x="151.5" y="1640" width="130" height="80" as="geometry" />
        </mxCell>
        <mxCell id="xFMYQZ4gHFHKDtacAfKV-104" value="" style="edgeStyle=orthogonalEdgeStyle;rounded=0;orthogonalLoop=1;jettySize=auto;html=1;fontStyle=1" edge="1" parent="1" source="xFMYQZ4gHFHKDtacAfKV-99" target="xFMYQZ4gHFHKDtacAfKV-100">
          <mxGeometry relative="1" as="geometry" />
        </mxCell>
        <mxCell id="xFMYQZ4gHFHKDtacAfKV-99" value="&lt;span&gt;دریافت ورودی&lt;/span&gt;&lt;div&gt;&lt;span&gt;Origin&lt;/span&gt;&lt;/div&gt;" style="shape=parallelogram;perimeter=parallelogramPerimeter;whiteSpace=wrap;html=1;fixedSize=1;rounded=0;fillColor=#d80073;fontColor=#ffffff;strokeColor=#A50040;fontSize=11;fontStyle=1;fontFamily=Tahoma;" vertex="1" parent="1">
          <mxGeometry x="151.5" y="1753" width="130" height="60" as="geometry" />
        </mxCell>
        <mxCell id="xFMYQZ4gHFHKDtacAfKV-101" style="edgeStyle=orthogonalEdgeStyle;rounded=0;orthogonalLoop=1;jettySize=auto;html=1;exitX=0.5;exitY=1;exitDx=0;exitDy=0;entryX=0;entryY=0.75;entryDx=0;entryDy=0;fontStyle=1" edge="1" parent="1" source="xFMYQZ4gHFHKDtacAfKV-100" target="xFMYQZ4gHFHKDtacAfKV-22">
          <mxGeometry relative="1" as="geometry">
            <Array as="points">
              <mxPoint x="216" y="1940" />
              <mxPoint x="400" y="1940" />
              <mxPoint x="400" y="732" />
            </Array>
          </mxGeometry>
        </mxCell>
        <mxCell id="xFMYQZ4gHFHKDtacAfKV-100" value="&lt;span style=&quot;color: rgb(0, 0, 0); font-family: Helvetica;&quot;&gt;line.origin = origin&lt;/span&gt;&lt;div style=&quot;color: rgb(0, 0, 0); font-family: Helvetica;&quot;&gt;&lt;span&gt;چاپ کن : عملیات موفق&lt;/span&gt;&lt;/div&gt;" style="whiteSpace=wrap;html=1;rounded=0;fillColor=#1ba1e2;fontColor=#ffffff;strokeColor=#006EAF;fontStyle=1;fontFamily=Tahoma;" vertex="1" parent="1">
          <mxGeometry x="151.5" y="1850" width="130" height="70" as="geometry" />
        </mxCell>
        <mxCell id="xFMYQZ4gHFHKDtacAfKV-111" value="" style="edgeStyle=orthogonalEdgeStyle;rounded=0;orthogonalLoop=1;jettySize=auto;html=1;fontStyle=1" edge="1" parent="1" source="xFMYQZ4gHFHKDtacAfKV-105" target="xFMYQZ4gHFHKDtacAfKV-106">
          <mxGeometry relative="1" as="geometry" />
        </mxCell>
        <mxCell id="xFMYQZ4gHFHKDtacAfKV-112" value="Yes" style="edgeLabel;html=1;align=center;verticalAlign=middle;resizable=0;points=[];fontStyle=1" vertex="1" connectable="0" parent="xFMYQZ4gHFHKDtacAfKV-111">
          <mxGeometry x="-0.5548" relative="1" as="geometry">
            <mxPoint as="offset" />
          </mxGeometry>
        </mxCell>
        <mxCell id="xFMYQZ4gHFHKDtacAfKV-117" value="" style="edgeStyle=orthogonalEdgeStyle;rounded=0;orthogonalLoop=1;jettySize=auto;html=1;fontStyle=1" edge="1" parent="1" source="xFMYQZ4gHFHKDtacAfKV-105" target="xFMYQZ4gHFHKDtacAfKV-114">
          <mxGeometry relative="1" as="geometry" />
        </mxCell>
        <mxCell id="xFMYQZ4gHFHKDtacAfKV-120" value="No" style="edgeLabel;html=1;align=center;verticalAlign=middle;resizable=0;points=[];fontStyle=1" vertex="1" connectable="0" parent="xFMYQZ4gHFHKDtacAfKV-117">
          <mxGeometry x="-0.2074" relative="1" as="geometry">
            <mxPoint as="offset" />
          </mxGeometry>
        </mxCell>
        <mxCell id="xFMYQZ4gHFHKDtacAfKV-105" value="&lt;span&gt;choice == 2&lt;/span&gt;" style="rhombus;whiteSpace=wrap;html=1;rounded=0;fillColor=#fad9d5;strokeColor=#ae4132;fontSize=11;fontStyle=1;fontFamily=Tahoma;" vertex="1" parent="1">
          <mxGeometry x="-40" y="1640" width="130" height="80" as="geometry" />
        </mxCell>
        <mxCell id="xFMYQZ4gHFHKDtacAfKV-113" value="" style="edgeStyle=orthogonalEdgeStyle;rounded=0;orthogonalLoop=1;jettySize=auto;html=1;fontStyle=1" edge="1" parent="1" source="xFMYQZ4gHFHKDtacAfKV-106" target="xFMYQZ4gHFHKDtacAfKV-107">
          <mxGeometry relative="1" as="geometry" />
        </mxCell>
        <mxCell id="xFMYQZ4gHFHKDtacAfKV-106" value="&lt;span&gt;دریافت ورودی&lt;/span&gt;&lt;div&gt;&lt;span style=&quot;color: rgb(0, 0, 0); font-family: Helvetica; font-size: 12px;&quot;&gt;Destination&lt;/span&gt;&lt;/div&gt;" style="shape=parallelogram;perimeter=parallelogramPerimeter;whiteSpace=wrap;html=1;fixedSize=1;rounded=0;fillColor=#d80073;fontColor=#ffffff;strokeColor=#A50040;fontSize=11;fontStyle=1;fontFamily=Tahoma;" vertex="1" parent="1">
          <mxGeometry x="-40" y="1753" width="130" height="60" as="geometry" />
        </mxCell>
        <mxCell id="xFMYQZ4gHFHKDtacAfKV-108" style="edgeStyle=orthogonalEdgeStyle;rounded=0;orthogonalLoop=1;jettySize=auto;html=1;exitX=1;exitY=0.5;exitDx=0;exitDy=0;entryX=0;entryY=0;entryDx=0;entryDy=0;fontStyle=1" edge="1" parent="1">
          <mxGeometry relative="1" as="geometry">
            <mxPoint x="450" y="680" as="targetPoint" />
            <mxPoint x="90" y="1885" as="sourcePoint" />
            <Array as="points">
              <mxPoint x="90" y="1930" />
              <mxPoint x="290" y="1930" />
              <mxPoint x="290" y="660" />
              <mxPoint x="450" y="660" />
            </Array>
          </mxGeometry>
        </mxCell>
        <mxCell id="xFMYQZ4gHFHKDtacAfKV-107" value="&lt;span style=&quot;color: rgb(0, 0, 0); font-family: Helvetica;&quot;&gt;line.destination&lt;/span&gt;&lt;div style=&quot;color: rgb(0, 0, 0); font-family: Helvetica;&quot;&gt;&lt;span&gt;=&lt;/span&gt;&lt;/div&gt;&lt;div style=&quot;color: rgb(0, 0, 0); font-family: Helvetica;&quot;&gt;&lt;span&gt;Destination&lt;br&gt;&lt;/span&gt;&lt;div&gt;&lt;span&gt;چاپ کن : عملیات موفق&lt;/span&gt;&lt;/div&gt;&lt;/div&gt;" style="whiteSpace=wrap;html=1;rounded=0;fillColor=#1ba1e2;fontColor=#ffffff;strokeColor=#006EAF;fontStyle=1;fontFamily=Tahoma;" vertex="1" parent="1">
          <mxGeometry x="-40" y="1850" width="130" height="70" as="geometry" />
        </mxCell>
        <mxCell id="xFMYQZ4gHFHKDtacAfKV-118" value="" style="edgeStyle=orthogonalEdgeStyle;rounded=0;orthogonalLoop=1;jettySize=auto;html=1;fontStyle=1" edge="1" parent="1" source="xFMYQZ4gHFHKDtacAfKV-114" target="xFMYQZ4gHFHKDtacAfKV-115">
          <mxGeometry relative="1" as="geometry" />
        </mxCell>
        <mxCell id="xFMYQZ4gHFHKDtacAfKV-121" value="Yes" style="edgeLabel;html=1;align=center;verticalAlign=middle;resizable=0;points=[];fontStyle=1" vertex="1" connectable="0" parent="xFMYQZ4gHFHKDtacAfKV-118">
          <mxGeometry x="0.1253" y="1" relative="1" as="geometry">
            <mxPoint as="offset" />
          </mxGeometry>
        </mxCell>
        <mxCell id="xFMYQZ4gHFHKDtacAfKV-124" value="" style="edgeStyle=orthogonalEdgeStyle;rounded=0;orthogonalLoop=1;jettySize=auto;html=1;fontStyle=1" edge="1" parent="1" source="xFMYQZ4gHFHKDtacAfKV-114" target="xFMYQZ4gHFHKDtacAfKV-123">
          <mxGeometry relative="1" as="geometry" />
        </mxCell>
        <mxCell id="xFMYQZ4gHFHKDtacAfKV-125" value="No" style="edgeLabel;html=1;align=center;verticalAlign=middle;resizable=0;points=[];fontStyle=1" vertex="1" connectable="0" parent="xFMYQZ4gHFHKDtacAfKV-124">
          <mxGeometry x="-0.215" y="2" relative="1" as="geometry">
            <mxPoint as="offset" />
          </mxGeometry>
        </mxCell>
        <mxCell id="xFMYQZ4gHFHKDtacAfKV-114" value="&lt;span&gt;choice == 3&lt;/span&gt;" style="rhombus;whiteSpace=wrap;html=1;rounded=0;fillColor=#fad9d5;strokeColor=#ae4132;fontSize=11;fontStyle=1;fontFamily=Tahoma;" vertex="1" parent="1">
          <mxGeometry x="-230" y="1640" width="130" height="80" as="geometry" />
        </mxCell>
        <mxCell id="xFMYQZ4gHFHKDtacAfKV-119" value="" style="edgeStyle=orthogonalEdgeStyle;rounded=0;orthogonalLoop=1;jettySize=auto;html=1;fontStyle=1" edge="1" parent="1" source="xFMYQZ4gHFHKDtacAfKV-115" target="xFMYQZ4gHFHKDtacAfKV-116">
          <mxGeometry relative="1" as="geometry" />
        </mxCell>
        <mxCell id="xFMYQZ4gHFHKDtacAfKV-115" value="&lt;span&gt;دریافت ورودی&lt;/span&gt;&lt;div&gt;&lt;div style=&quot;color: rgb(0, 0, 0); font-family: Helvetica; font-size: 12px;&quot;&gt;&lt;span&gt;Num_of_station&lt;/span&gt;&lt;/div&gt;&lt;div style=&quot;color: rgb(0, 0, 0); font-family: Helvetica; font-size: 12px;&quot;&gt;&lt;span&gt;List_of_station&lt;/span&gt;&lt;/div&gt;&lt;/div&gt;" style="shape=parallelogram;perimeter=parallelogramPerimeter;whiteSpace=wrap;html=1;fixedSize=1;rounded=0;fillColor=#d80073;fontColor=#ffffff;strokeColor=#A50040;fontSize=11;fontStyle=1;fontFamily=Tahoma;" vertex="1" parent="1">
          <mxGeometry x="-230" y="1753" width="130" height="60" as="geometry" />
        </mxCell>
        <mxCell id="xFMYQZ4gHFHKDtacAfKV-122" style="edgeStyle=orthogonalEdgeStyle;rounded=0;orthogonalLoop=1;jettySize=auto;html=1;exitX=0.5;exitY=1;exitDx=0;exitDy=0;entryX=0;entryY=1;entryDx=0;entryDy=0;fontStyle=1" edge="1" parent="1" source="xFMYQZ4gHFHKDtacAfKV-116" target="xFMYQZ4gHFHKDtacAfKV-22">
          <mxGeometry relative="1" as="geometry">
            <Array as="points">
              <mxPoint x="-165" y="1980" />
              <mxPoint x="420" y="1980" />
              <mxPoint x="420" y="750" />
            </Array>
          </mxGeometry>
        </mxCell>
        <mxCell id="xFMYQZ4gHFHKDtacAfKV-116" value="&lt;span style=&quot;color: rgb(0, 0, 0); font-family: Helvetica;&quot;&gt;line.num_of_station&lt;/span&gt;&lt;div style=&quot;color: rgb(0, 0, 0); font-family: Helvetica;&quot;&gt;&lt;span&gt;=&lt;/span&gt;&lt;/div&gt;&lt;div style=&quot;color: rgb(0, 0, 0); font-family: Helvetica;&quot;&gt;&lt;div&gt;&lt;span&gt;Num_of_station&lt;/span&gt;&lt;/div&gt;&lt;div&gt;&lt;span&gt;line.list_of_station&lt;br&gt;=&lt;br&gt;&lt;/span&gt;&lt;span&gt;List_of_station&lt;/span&gt;&lt;span&gt;&lt;/span&gt;&lt;/div&gt;&lt;div&gt;&lt;span&gt;چاپ کن : عملیات موفق&lt;/span&gt;&lt;/div&gt;&lt;/div&gt;" style="whiteSpace=wrap;html=1;rounded=0;fillColor=#1ba1e2;fontColor=#ffffff;strokeColor=#006EAF;fontStyle=1;fontFamily=Tahoma;" vertex="1" parent="1">
          <mxGeometry x="-255" y="1850" width="180" height="110" as="geometry" />
        </mxCell>
        <mxCell id="xFMYQZ4gHFHKDtacAfKV-123" value="&lt;span&gt;choice == 4&lt;/span&gt;" style="rhombus;whiteSpace=wrap;html=1;rounded=0;fillColor=#fad9d5;strokeColor=#ae4132;fontSize=11;fontStyle=1;fontFamily=Tahoma;" vertex="1" parent="1">
          <mxGeometry x="-430" y="1640" width="130" height="80" as="geometry" />
        </mxCell>
        <mxCell id="xFMYQZ4gHFHKDtacAfKV-126" style="edgeStyle=orthogonalEdgeStyle;rounded=0;orthogonalLoop=1;jettySize=auto;html=1;exitX=0;exitY=0.5;exitDx=0;exitDy=0;entryX=0;entryY=0.143;entryDx=0;entryDy=0;entryPerimeter=0;fontStyle=1" edge="1" parent="1" source="xFMYQZ4gHFHKDtacAfKV-123" target="xFMYQZ4gHFHKDtacAfKV-22">
          <mxGeometry relative="1" as="geometry" />
        </mxCell>
        <mxCell id="xFMYQZ4gHFHKDtacAfKV-127" value="Yes" style="edgeLabel;html=1;align=center;verticalAlign=middle;resizable=0;points=[];fontStyle=1" vertex="1" connectable="0" parent="xFMYQZ4gHFHKDtacAfKV-126">
          <mxGeometry x="-0.9475" y="-1" relative="1" as="geometry">
            <mxPoint as="offset" />
          </mxGeometry>
        </mxCell>
        <mxCell id="xFMYQZ4gHFHKDtacAfKV-137" value="" style="edgeStyle=orthogonalEdgeStyle;rounded=0;orthogonalLoop=1;jettySize=auto;html=1;fontStyle=1" edge="1" parent="1" source="xFMYQZ4gHFHKDtacAfKV-128" target="xFMYQZ4gHFHKDtacAfKV-136">
          <mxGeometry relative="1" as="geometry" />
        </mxCell>
        <mxCell id="xFMYQZ4gHFHKDtacAfKV-139" value="Yes" style="edgeLabel;html=1;align=center;verticalAlign=middle;resizable=0;points=[];fontStyle=1" vertex="1" connectable="0" parent="xFMYQZ4gHFHKDtacAfKV-137">
          <mxGeometry x="-0.024" y="1" relative="1" as="geometry">
            <mxPoint as="offset" />
          </mxGeometry>
        </mxCell>
        <mxCell id="xFMYQZ4gHFHKDtacAfKV-167" value="" style="edgeStyle=orthogonalEdgeStyle;rounded=0;orthogonalLoop=1;jettySize=auto;html=1;fontStyle=1" edge="1" parent="1" source="xFMYQZ4gHFHKDtacAfKV-128" target="xFMYQZ4gHFHKDtacAfKV-166">
          <mxGeometry relative="1" as="geometry" />
        </mxCell>
        <mxCell id="xFMYQZ4gHFHKDtacAfKV-168" value="No" style="edgeLabel;html=1;align=center;verticalAlign=middle;resizable=0;points=[];fontStyle=1" vertex="1" connectable="0" parent="xFMYQZ4gHFHKDtacAfKV-167">
          <mxGeometry x="0.0578" y="-1" relative="1" as="geometry">
            <mxPoint as="offset" />
          </mxGeometry>
        </mxCell>
        <mxCell id="xFMYQZ4gHFHKDtacAfKV-128" value="&lt;span&gt;choice == 3&lt;/span&gt;" style="rhombus;whiteSpace=wrap;html=1;rounded=0;fillColor=#fad9d5;strokeColor=#ae4132;fontSize=11;fontStyle=1;fontFamily=Tahoma;" vertex="1" parent="1">
          <mxGeometry x="-40" y="870" width="130" height="80" as="geometry" />
        </mxCell>
        <mxCell id="xFMYQZ4gHFHKDtacAfKV-141" value="" style="edgeStyle=orthogonalEdgeStyle;rounded=0;orthogonalLoop=1;jettySize=auto;html=1;fontStyle=1" edge="1" parent="1" source="xFMYQZ4gHFHKDtacAfKV-136" target="xFMYQZ4gHFHKDtacAfKV-140">
          <mxGeometry relative="1" as="geometry" />
        </mxCell>
        <mxCell id="xFMYQZ4gHFHKDtacAfKV-136" value="&lt;span style=&quot;color: rgb(0, 0, 0); font-family: Helvetica; font-size: 12px;&quot;&gt;اجرای صفحه&lt;br&gt;delete_line&lt;/span&gt;" style="whiteSpace=wrap;html=1;rounded=0;fillColor=#1ba1e2;fontColor=#ffffff;strokeColor=#006EAF;fontSize=11;fontStyle=1;fontFamily=Tahoma;" vertex="1" parent="1">
          <mxGeometry x="-45" y="990" width="140" height="70" as="geometry" />
        </mxCell>
        <mxCell id="xFMYQZ4gHFHKDtacAfKV-143" value="" style="edgeStyle=orthogonalEdgeStyle;rounded=0;orthogonalLoop=1;jettySize=auto;html=1;fontStyle=1" edge="1" parent="1" source="xFMYQZ4gHFHKDtacAfKV-140" target="xFMYQZ4gHFHKDtacAfKV-142">
          <mxGeometry relative="1" as="geometry" />
        </mxCell>
        <mxCell id="xFMYQZ4gHFHKDtacAfKV-140" value="&lt;span&gt;دریافت ورودی&lt;/span&gt;&lt;div&gt;&lt;span&gt;name&lt;/span&gt;&lt;/div&gt;" style="shape=parallelogram;perimeter=parallelogramPerimeter;whiteSpace=wrap;html=1;fixedSize=1;rounded=0;fillColor=#d80073;fontColor=#ffffff;strokeColor=#A50040;fontSize=11;fontStyle=1;fontFamily=Tahoma;" vertex="1" parent="1">
          <mxGeometry x="-40" y="1090" width="130" height="60" as="geometry" />
        </mxCell>
        <mxCell id="xFMYQZ4gHFHKDtacAfKV-145" value="" style="edgeStyle=orthogonalEdgeStyle;rounded=0;orthogonalLoop=1;jettySize=auto;html=1;fontStyle=1" edge="1" parent="1" source="xFMYQZ4gHFHKDtacAfKV-142" target="xFMYQZ4gHFHKDtacAfKV-144">
          <mxGeometry relative="1" as="geometry" />
        </mxCell>
        <mxCell id="xFMYQZ4gHFHKDtacAfKV-152" value="Text" style="edgeLabel;html=1;align=center;verticalAlign=middle;resizable=0;points=[];fontStyle=1" vertex="1" connectable="0" parent="xFMYQZ4gHFHKDtacAfKV-145">
          <mxGeometry x="-0.084" y="1" relative="1" as="geometry">
            <mxPoint as="offset" />
          </mxGeometry>
        </mxCell>
        <mxCell id="xFMYQZ4gHFHKDtacAfKV-142" value="name&lt;br&gt;==&lt;br&gt;&#39;back&#39;" style="rhombus;whiteSpace=wrap;html=1;rounded=0;fillColor=#fad9d5;strokeColor=#ae4132;fontStyle=1;fontFamily=Tahoma;" vertex="1" parent="1">
          <mxGeometry x="-42.5" y="1190" width="135" height="90" as="geometry" />
        </mxCell>
        <mxCell id="xFMYQZ4gHFHKDtacAfKV-147" style="edgeStyle=orthogonalEdgeStyle;rounded=0;orthogonalLoop=1;jettySize=auto;html=1;exitX=0.5;exitY=1;exitDx=0;exitDy=0;entryX=0.5;entryY=1;entryDx=0;entryDy=0;fontStyle=1" edge="1" parent="1" source="xFMYQZ4gHFHKDtacAfKV-144" target="xFMYQZ4gHFHKDtacAfKV-146">
          <mxGeometry relative="1" as="geometry" />
        </mxCell>
        <mxCell id="xFMYQZ4gHFHKDtacAfKV-148" value="&lt;span&gt;No&lt;/span&gt;" style="edgeLabel;html=1;align=center;verticalAlign=middle;resizable=0;points=[];fontStyle=1" vertex="1" connectable="0" parent="xFMYQZ4gHFHKDtacAfKV-147">
          <mxGeometry x="0.253" y="1" relative="1" as="geometry">
            <mxPoint as="offset" />
          </mxGeometry>
        </mxCell>
        <mxCell id="xFMYQZ4gHFHKDtacAfKV-154" style="edgeStyle=orthogonalEdgeStyle;rounded=0;orthogonalLoop=1;jettySize=auto;html=1;exitX=0.5;exitY=1;exitDx=0;exitDy=0;entryX=0.5;entryY=0;entryDx=0;entryDy=0;fontStyle=1" edge="1" parent="1" source="xFMYQZ4gHFHKDtacAfKV-144" target="xFMYQZ4gHFHKDtacAfKV-153">
          <mxGeometry relative="1" as="geometry" />
        </mxCell>
        <mxCell id="xFMYQZ4gHFHKDtacAfKV-156" value="&lt;span&gt;Yes&lt;/span&gt;" style="edgeLabel;html=1;align=center;verticalAlign=middle;resizable=0;points=[];fontStyle=1" vertex="1" connectable="0" parent="xFMYQZ4gHFHKDtacAfKV-154">
          <mxGeometry x="0.0453" relative="1" as="geometry">
            <mxPoint as="offset" />
          </mxGeometry>
        </mxCell>
        <mxCell id="xFMYQZ4gHFHKDtacAfKV-144" value="name&lt;br&gt;&lt;div&gt;in&lt;/div&gt;&lt;div&gt;Lines&lt;/div&gt;" style="rhombus;whiteSpace=wrap;html=1;rounded=0;fillColor=#fad9d5;strokeColor=#ae4132;fontStyle=1;fontFamily=Tahoma;" vertex="1" parent="1">
          <mxGeometry x="-42.5" y="1320" width="135" height="90" as="geometry" />
        </mxCell>
        <mxCell id="xFMYQZ4gHFHKDtacAfKV-149" style="edgeStyle=orthogonalEdgeStyle;rounded=0;orthogonalLoop=1;jettySize=auto;html=1;exitX=0.5;exitY=0;exitDx=0;exitDy=0;entryX=1;entryY=0.5;entryDx=0;entryDy=0;fontStyle=1" edge="1" parent="1" source="xFMYQZ4gHFHKDtacAfKV-146" target="xFMYQZ4gHFHKDtacAfKV-140">
          <mxGeometry relative="1" as="geometry">
            <Array as="points">
              <mxPoint x="113" y="1120" />
            </Array>
          </mxGeometry>
        </mxCell>
        <mxCell id="xFMYQZ4gHFHKDtacAfKV-146" value="چاپ پیام مناسب" style="whiteSpace=wrap;html=1;rounded=0;fillColor=#1ba1e2;fontColor=#ffffff;strokeColor=#006EAF;fontStyle=1;fontFamily=Tahoma;" vertex="1" parent="1">
          <mxGeometry x="60" y="1270" width="105.5" height="50" as="geometry" />
        </mxCell>
        <mxCell id="xFMYQZ4gHFHKDtacAfKV-150" style="edgeStyle=orthogonalEdgeStyle;rounded=0;orthogonalLoop=1;jettySize=auto;html=1;exitX=1;exitY=0.5;exitDx=0;exitDy=0;entryX=0.003;entryY=0.385;entryDx=0;entryDy=0;entryPerimeter=0;fontStyle=1" edge="1" parent="1" source="xFMYQZ4gHFHKDtacAfKV-142" target="xFMYQZ4gHFHKDtacAfKV-22">
          <mxGeometry relative="1" as="geometry">
            <Array as="points">
              <mxPoint x="120" y="1235" />
              <mxPoint x="120" y="707" />
            </Array>
          </mxGeometry>
        </mxCell>
        <mxCell id="xFMYQZ4gHFHKDtacAfKV-151" value="Text" style="edgeLabel;html=1;align=center;verticalAlign=middle;resizable=0;points=[];fontStyle=1" vertex="1" connectable="0" parent="xFMYQZ4gHFHKDtacAfKV-150">
          <mxGeometry x="-0.6198" y="1" relative="1" as="geometry">
            <mxPoint as="offset" />
          </mxGeometry>
        </mxCell>
        <mxCell id="xFMYQZ4gHFHKDtacAfKV-153" value="&lt;span style=&quot;color: rgb(0, 0, 0); font-family: Helvetica;&quot;&gt;del line[name]&lt;/span&gt;&lt;div style=&quot;color: rgb(0, 0, 0); font-family: Helvetica;&quot;&gt;چاپ کن : خط پاک شد&lt;/div&gt;" style="whiteSpace=wrap;html=1;rounded=0;fillColor=#1ba1e2;fontColor=#ffffff;strokeColor=#006EAF;fontStyle=1;fontFamily=Tahoma;" vertex="1" parent="1">
          <mxGeometry x="-40" y="1500" width="130" height="70" as="geometry" />
        </mxCell>
        <mxCell id="xFMYQZ4gHFHKDtacAfKV-158" style="edgeStyle=orthogonalEdgeStyle;rounded=0;orthogonalLoop=1;jettySize=auto;html=1;exitX=0.5;exitY=1;exitDx=0;exitDy=0;entryX=-0.007;entryY=0.646;entryDx=0;entryDy=0;entryPerimeter=0;fontStyle=1" edge="1" parent="1" source="xFMYQZ4gHFHKDtacAfKV-153" target="xFMYQZ4gHFHKDtacAfKV-22">
          <mxGeometry relative="1" as="geometry">
            <Array as="points">
              <mxPoint x="25" y="1590" />
              <mxPoint x="-60" y="1590" />
              <mxPoint x="-60" y="725" />
            </Array>
          </mxGeometry>
        </mxCell>
        <mxCell id="xFMYQZ4gHFHKDtacAfKV-170" value="" style="edgeStyle=orthogonalEdgeStyle;rounded=0;orthogonalLoop=1;jettySize=auto;html=1;fontStyle=1" edge="1" parent="1" source="xFMYQZ4gHFHKDtacAfKV-166" target="xFMYQZ4gHFHKDtacAfKV-169">
          <mxGeometry relative="1" as="geometry" />
        </mxCell>
        <mxCell id="xFMYQZ4gHFHKDtacAfKV-171" value="Yes" style="edgeLabel;html=1;align=center;verticalAlign=middle;resizable=0;points=[];fontStyle=1" vertex="1" connectable="0" parent="xFMYQZ4gHFHKDtacAfKV-170">
          <mxGeometry x="-0.1378" relative="1" as="geometry">
            <mxPoint as="offset" />
          </mxGeometry>
        </mxCell>
        <mxCell id="xFMYQZ4gHFHKDtacAfKV-194" value="" style="edgeStyle=orthogonalEdgeStyle;rounded=0;orthogonalLoop=1;jettySize=auto;html=1;fontStyle=1" edge="1" parent="1" source="xFMYQZ4gHFHKDtacAfKV-166" target="xFMYQZ4gHFHKDtacAfKV-193">
          <mxGeometry relative="1" as="geometry" />
        </mxCell>
        <mxCell id="xFMYQZ4gHFHKDtacAfKV-195" value="No" style="edgeLabel;html=1;align=center;verticalAlign=middle;resizable=0;points=[];fontStyle=1" vertex="1" connectable="0" parent="xFMYQZ4gHFHKDtacAfKV-194">
          <mxGeometry x="-0.024" y="-1" relative="1" as="geometry">
            <mxPoint x="1" as="offset" />
          </mxGeometry>
        </mxCell>
        <mxCell id="xFMYQZ4gHFHKDtacAfKV-166" value="&lt;span&gt;choice == 4&lt;/span&gt;" style="rhombus;whiteSpace=wrap;html=1;rounded=0;fillColor=#fad9d5;strokeColor=#ae4132;fontSize=11;fontStyle=1;fontFamily=Tahoma;" vertex="1" parent="1">
          <mxGeometry x="-230" y="870" width="130" height="80" as="geometry" />
        </mxCell>
        <mxCell id="xFMYQZ4gHFHKDtacAfKV-173" value="" style="edgeStyle=orthogonalEdgeStyle;rounded=0;orthogonalLoop=1;jettySize=auto;html=1;fontStyle=1" edge="1" parent="1" source="xFMYQZ4gHFHKDtacAfKV-169" target="xFMYQZ4gHFHKDtacAfKV-172">
          <mxGeometry relative="1" as="geometry" />
        </mxCell>
        <mxCell id="xFMYQZ4gHFHKDtacAfKV-169" value="&lt;span style=&quot;color: rgb(0, 0, 0); font-family: Helvetica; font-size: 12px;&quot;&gt;اجرای صفحه&lt;br&gt;update_line&lt;/span&gt;" style="whiteSpace=wrap;html=1;rounded=0;fillColor=#1ba1e2;fontColor=#ffffff;strokeColor=#006EAF;fontSize=11;fontStyle=1;fontFamily=Tahoma;" vertex="1" parent="1">
          <mxGeometry x="-235" y="995" width="140" height="70" as="geometry" />
        </mxCell>
        <mxCell id="xFMYQZ4gHFHKDtacAfKV-175" value="" style="edgeStyle=orthogonalEdgeStyle;rounded=0;orthogonalLoop=1;jettySize=auto;html=1;fontStyle=1" edge="1" parent="1" source="xFMYQZ4gHFHKDtacAfKV-172" target="xFMYQZ4gHFHKDtacAfKV-174">
          <mxGeometry relative="1" as="geometry" />
        </mxCell>
        <mxCell id="xFMYQZ4gHFHKDtacAfKV-176" value="Yes" style="edgeLabel;html=1;align=center;verticalAlign=middle;resizable=0;points=[];fontStyle=1" vertex="1" connectable="0" parent="xFMYQZ4gHFHKDtacAfKV-175">
          <mxGeometry x="-0.2" relative="1" as="geometry">
            <mxPoint as="offset" />
          </mxGeometry>
        </mxCell>
        <mxCell id="xFMYQZ4gHFHKDtacAfKV-180" value="" style="edgeStyle=orthogonalEdgeStyle;rounded=0;orthogonalLoop=1;jettySize=auto;html=1;fontStyle=1" edge="1" parent="1" source="xFMYQZ4gHFHKDtacAfKV-172" target="xFMYQZ4gHFHKDtacAfKV-179">
          <mxGeometry relative="1" as="geometry" />
        </mxCell>
        <mxCell id="xFMYQZ4gHFHKDtacAfKV-181" value="No" style="edgeLabel;html=1;align=center;verticalAlign=middle;resizable=0;points=[];fontStyle=1" vertex="1" connectable="0" parent="xFMYQZ4gHFHKDtacAfKV-180">
          <mxGeometry x="-0.2351" relative="1" as="geometry">
            <mxPoint x="1" as="offset" />
          </mxGeometry>
        </mxCell>
        <mxCell id="xFMYQZ4gHFHKDtacAfKV-172" value="len(lines) == 0" style="rhombus;whiteSpace=wrap;html=1;rounded=0;fillColor=#fad9d5;strokeColor=#ae4132;fontStyle=1;fontFamily=Tahoma;" vertex="1" parent="1">
          <mxGeometry x="-232.5" y="1100" width="135" height="90" as="geometry" />
        </mxCell>
        <mxCell id="xFMYQZ4gHFHKDtacAfKV-174" value="چاپ کن&lt;div&gt;خطی پیدا نشد&lt;/div&gt;" style="whiteSpace=wrap;html=1;rounded=0;fillColor=#1ba1e2;fontColor=#ffffff;strokeColor=#006EAF;fontStyle=1;fontFamily=Tahoma;" vertex="1" parent="1">
          <mxGeometry x="-217.75" y="1224" width="105.5" height="50" as="geometry" />
        </mxCell>
        <mxCell id="xFMYQZ4gHFHKDtacAfKV-178" style="edgeStyle=orthogonalEdgeStyle;rounded=0;orthogonalLoop=1;jettySize=auto;html=1;exitX=0.5;exitY=1;exitDx=0;exitDy=0;entryX=-0.017;entryY=0.165;entryDx=0;entryDy=0;entryPerimeter=0;fontStyle=1" edge="1" parent="1" source="xFMYQZ4gHFHKDtacAfKV-174" target="xFMYQZ4gHFHKDtacAfKV-22">
          <mxGeometry relative="1" as="geometry">
            <Array as="points">
              <mxPoint x="-165" y="1290" />
              <mxPoint x="-240" y="1290" />
              <mxPoint x="-240" y="692" />
              <mxPoint x="448" y="692" />
            </Array>
          </mxGeometry>
        </mxCell>
        <mxCell id="xFMYQZ4gHFHKDtacAfKV-184" value="" style="edgeStyle=orthogonalEdgeStyle;rounded=0;orthogonalLoop=1;jettySize=auto;html=1;fontStyle=1" edge="1" parent="1" source="xFMYQZ4gHFHKDtacAfKV-179" target="xFMYQZ4gHFHKDtacAfKV-183">
          <mxGeometry relative="1" as="geometry" />
        </mxCell>
        <mxCell id="xFMYQZ4gHFHKDtacAfKV-179" value="چاپ کن&lt;div&gt;اطلاعات مربوط به&lt;/div&gt;&lt;div&gt;خطوط&lt;/div&gt;" style="whiteSpace=wrap;html=1;rounded=0;fillColor=#1ba1e2;fontColor=#ffffff;strokeColor=#006EAF;fontStyle=1;fontFamily=Tahoma;" vertex="1" parent="1">
          <mxGeometry x="-417.75" y="1120" width="105.5" height="50" as="geometry" />
        </mxCell>
        <mxCell id="xFMYQZ4gHFHKDtacAfKV-186" value="" style="edgeStyle=orthogonalEdgeStyle;rounded=0;orthogonalLoop=1;jettySize=auto;html=1;fontStyle=1" edge="1" parent="1" source="xFMYQZ4gHFHKDtacAfKV-183" target="xFMYQZ4gHFHKDtacAfKV-185">
          <mxGeometry relative="1" as="geometry" />
        </mxCell>
        <mxCell id="xFMYQZ4gHFHKDtacAfKV-183" value="&lt;span&gt;دریافت ورودی&lt;/span&gt;&lt;div&gt;&lt;span&gt;input&lt;/span&gt;&lt;/div&gt;" style="shape=parallelogram;perimeter=parallelogramPerimeter;whiteSpace=wrap;html=1;fixedSize=1;rounded=0;fillColor=#d80073;fontColor=#ffffff;strokeColor=#A50040;fontSize=11;fontStyle=1;fontFamily=Tahoma;" vertex="1" parent="1">
          <mxGeometry x="-430" y="1205" width="130" height="60" as="geometry" />
        </mxCell>
        <mxCell id="xFMYQZ4gHFHKDtacAfKV-187" style="edgeStyle=orthogonalEdgeStyle;rounded=0;orthogonalLoop=1;jettySize=auto;html=1;exitX=0.5;exitY=1;exitDx=0;exitDy=0;fontStyle=1" edge="1" parent="1" source="xFMYQZ4gHFHKDtacAfKV-185">
          <mxGeometry relative="1" as="geometry">
            <mxPoint x="-240" y="1290" as="targetPoint" />
          </mxGeometry>
        </mxCell>
        <mxCell id="xFMYQZ4gHFHKDtacAfKV-188" value="Yes" style="edgeLabel;html=1;align=center;verticalAlign=middle;resizable=0;points=[];fontStyle=1" vertex="1" connectable="0" parent="xFMYQZ4gHFHKDtacAfKV-187">
          <mxGeometry x="0.3144" relative="1" as="geometry">
            <mxPoint as="offset" />
          </mxGeometry>
        </mxCell>
        <mxCell id="xFMYQZ4gHFHKDtacAfKV-189" style="edgeStyle=orthogonalEdgeStyle;rounded=0;orthogonalLoop=1;jettySize=auto;html=1;exitX=0.5;exitY=1;exitDx=0;exitDy=0;entryX=0;entryY=0.5;entryDx=0;entryDy=0;fontStyle=1" edge="1" parent="1" source="xFMYQZ4gHFHKDtacAfKV-185" target="xFMYQZ4gHFHKDtacAfKV-183">
          <mxGeometry relative="1" as="geometry">
            <Array as="points">
              <mxPoint x="-365" y="1410" />
              <mxPoint x="-460" y="1410" />
              <mxPoint x="-460" y="1235" />
            </Array>
          </mxGeometry>
        </mxCell>
        <mxCell id="xFMYQZ4gHFHKDtacAfKV-190" value="No" style="edgeLabel;html=1;align=center;verticalAlign=middle;resizable=0;points=[];fontStyle=1" vertex="1" connectable="0" parent="xFMYQZ4gHFHKDtacAfKV-189">
          <mxGeometry x="0.2381" relative="1" as="geometry">
            <mxPoint as="offset" />
          </mxGeometry>
        </mxCell>
        <mxCell id="xFMYQZ4gHFHKDtacAfKV-185" value="input&lt;br&gt;==&lt;br&gt;&#39;back&#39;" style="rhombus;whiteSpace=wrap;html=1;rounded=0;fillColor=#fad9d5;strokeColor=#ae4132;fontStyle=1;fontFamily=Tahoma;" vertex="1" parent="1">
          <mxGeometry x="-432.5" y="1300" width="135" height="90" as="geometry" />
        </mxCell>
        <mxCell id="xFMYQZ4gHFHKDtacAfKV-202" value="" style="edgeStyle=orthogonalEdgeStyle;rounded=0;orthogonalLoop=1;jettySize=auto;html=1;fontStyle=1" edge="1" parent="1" source="xFMYQZ4gHFHKDtacAfKV-193" target="xFMYQZ4gHFHKDtacAfKV-201">
          <mxGeometry relative="1" as="geometry" />
        </mxCell>
        <mxCell id="xFMYQZ4gHFHKDtacAfKV-203" value="Yes" style="edgeLabel;html=1;align=center;verticalAlign=middle;resizable=0;points=[];fontStyle=1" vertex="1" connectable="0" parent="xFMYQZ4gHFHKDtacAfKV-202">
          <mxGeometry x="-0.0303" relative="1" as="geometry">
            <mxPoint as="offset" />
          </mxGeometry>
        </mxCell>
        <mxCell id="xFMYQZ4gHFHKDtacAfKV-267" value="" style="edgeStyle=orthogonalEdgeStyle;rounded=0;orthogonalLoop=1;jettySize=auto;html=1;fontStyle=1" edge="1" parent="1" source="xFMYQZ4gHFHKDtacAfKV-193" target="xFMYQZ4gHFHKDtacAfKV-266">
          <mxGeometry relative="1" as="geometry" />
        </mxCell>
        <mxCell id="xFMYQZ4gHFHKDtacAfKV-193" value="&lt;span&gt;choice == 5&lt;/span&gt;" style="rhombus;whiteSpace=wrap;html=1;rounded=0;fillColor=#fad9d5;strokeColor=#ae4132;fontSize=11;fontStyle=1;fontFamily=Tahoma;" vertex="1" parent="1">
          <mxGeometry x="-730" y="870" width="130" height="80" as="geometry" />
        </mxCell>
        <mxCell id="xFMYQZ4gHFHKDtacAfKV-205" value="" style="edgeStyle=orthogonalEdgeStyle;rounded=0;orthogonalLoop=1;jettySize=auto;html=1;fontStyle=1" edge="1" parent="1" source="xFMYQZ4gHFHKDtacAfKV-201" target="xFMYQZ4gHFHKDtacAfKV-204">
          <mxGeometry relative="1" as="geometry" />
        </mxCell>
        <mxCell id="xFMYQZ4gHFHKDtacAfKV-201" value="&lt;span&gt;دریافت ورودی&lt;/span&gt;&lt;div&gt;&lt;span&gt;input&lt;/span&gt;&lt;/div&gt;" style="shape=parallelogram;perimeter=parallelogramPerimeter;whiteSpace=wrap;html=1;fixedSize=1;rounded=0;fillColor=#d80073;fontColor=#ffffff;strokeColor=#A50040;fontSize=11;fontStyle=1;fontFamily=Tahoma;" vertex="1" parent="1">
          <mxGeometry x="-730" y="1005" width="130" height="60" as="geometry" />
        </mxCell>
        <mxCell id="xFMYQZ4gHFHKDtacAfKV-208" style="edgeStyle=orthogonalEdgeStyle;rounded=0;orthogonalLoop=1;jettySize=auto;html=1;exitX=1;exitY=0.5;exitDx=0;exitDy=0;fontStyle=1" edge="1" parent="1" source="xFMYQZ4gHFHKDtacAfKV-204" target="xFMYQZ4gHFHKDtacAfKV-22">
          <mxGeometry relative="1" as="geometry">
            <Array as="points">
              <mxPoint x="-598" y="740" />
            </Array>
          </mxGeometry>
        </mxCell>
        <mxCell id="xFMYQZ4gHFHKDtacAfKV-210" value="Yes" style="edgeLabel;html=1;align=center;verticalAlign=middle;resizable=0;points=[];fontStyle=1" vertex="1" connectable="0" parent="xFMYQZ4gHFHKDtacAfKV-208">
          <mxGeometry x="-0.9268" y="1" relative="1" as="geometry">
            <mxPoint as="offset" />
          </mxGeometry>
        </mxCell>
        <mxCell id="xFMYQZ4gHFHKDtacAfKV-212" value="" style="edgeStyle=orthogonalEdgeStyle;rounded=0;orthogonalLoop=1;jettySize=auto;html=1;fontStyle=1" edge="1" parent="1" source="xFMYQZ4gHFHKDtacAfKV-204" target="xFMYQZ4gHFHKDtacAfKV-211">
          <mxGeometry relative="1" as="geometry" />
        </mxCell>
        <mxCell id="xFMYQZ4gHFHKDtacAfKV-214" value="No" style="edgeLabel;html=1;align=center;verticalAlign=middle;resizable=0;points=[];fontStyle=1" vertex="1" connectable="0" parent="xFMYQZ4gHFHKDtacAfKV-212">
          <mxGeometry x="-0.2778" relative="1" as="geometry">
            <mxPoint as="offset" />
          </mxGeometry>
        </mxCell>
        <mxCell id="xFMYQZ4gHFHKDtacAfKV-204" value="input&lt;br&gt;==&lt;br&gt;&#39;back&#39;" style="rhombus;whiteSpace=wrap;html=1;rounded=0;fillColor=#fad9d5;strokeColor=#ae4132;fontStyle=1;fontFamily=Tahoma;" vertex="1" parent="1">
          <mxGeometry x="-732.5" y="1105" width="135" height="90" as="geometry" />
        </mxCell>
        <mxCell id="xFMYQZ4gHFHKDtacAfKV-216" value="" style="edgeStyle=orthogonalEdgeStyle;rounded=0;orthogonalLoop=1;jettySize=auto;html=1;fontStyle=1" edge="1" parent="1" source="xFMYQZ4gHFHKDtacAfKV-211" target="xFMYQZ4gHFHKDtacAfKV-215">
          <mxGeometry relative="1" as="geometry" />
        </mxCell>
        <mxCell id="xFMYQZ4gHFHKDtacAfKV-211" value="&lt;span&gt;دریافت اطلاعات قطار&lt;/span&gt;" style="shape=parallelogram;perimeter=parallelogramPerimeter;whiteSpace=wrap;html=1;fixedSize=1;rounded=0;fillColor=#d80073;fontColor=#ffffff;strokeColor=#A50040;fontSize=11;fontStyle=1;fontFamily=Tahoma;" vertex="1" parent="1">
          <mxGeometry x="-730" y="1235" width="130" height="60" as="geometry" />
        </mxCell>
        <mxCell id="xFMYQZ4gHFHKDtacAfKV-223" style="edgeStyle=orthogonalEdgeStyle;rounded=0;orthogonalLoop=1;jettySize=auto;html=1;exitX=1;exitY=0.5;exitDx=0;exitDy=0;fontStyle=1" edge="1" parent="1" source="xFMYQZ4gHFHKDtacAfKV-215" target="xFMYQZ4gHFHKDtacAfKV-222">
          <mxGeometry relative="1" as="geometry" />
        </mxCell>
        <mxCell id="xFMYQZ4gHFHKDtacAfKV-224" value="&lt;span&gt;No&lt;/span&gt;" style="edgeLabel;html=1;align=center;verticalAlign=middle;resizable=0;points=[];fontStyle=1" vertex="1" connectable="0" parent="xFMYQZ4gHFHKDtacAfKV-223">
          <mxGeometry x="0.2382" y="-1" relative="1" as="geometry">
            <mxPoint y="-11" as="offset" />
          </mxGeometry>
        </mxCell>
        <mxCell id="xFMYQZ4gHFHKDtacAfKV-227" value="" style="edgeStyle=orthogonalEdgeStyle;rounded=0;orthogonalLoop=1;jettySize=auto;html=1;fontStyle=1" edge="1" parent="1" source="xFMYQZ4gHFHKDtacAfKV-215" target="xFMYQZ4gHFHKDtacAfKV-226">
          <mxGeometry relative="1" as="geometry" />
        </mxCell>
        <mxCell id="xFMYQZ4gHFHKDtacAfKV-275" value="Yes" style="edgeLabel;html=1;align=center;verticalAlign=middle;resizable=0;points=[];fontStyle=1" vertex="1" connectable="0" parent="xFMYQZ4gHFHKDtacAfKV-227">
          <mxGeometry x="-0.3745" y="-1" relative="1" as="geometry">
            <mxPoint as="offset" />
          </mxGeometry>
        </mxCell>
        <mxCell id="xFMYQZ4gHFHKDtacAfKV-215" value="یکتا بودن&amp;nbsp; آیدی قطار" style="rhombus;whiteSpace=wrap;html=1;rounded=0;fillColor=#fad9d5;strokeColor=#ae4132;fontStyle=1;fontFamily=Tahoma;" vertex="1" parent="1">
          <mxGeometry x="-732.5" y="1329" width="135" height="90" as="geometry" />
        </mxCell>
        <mxCell id="xFMYQZ4gHFHKDtacAfKV-225" style="edgeStyle=orthogonalEdgeStyle;rounded=0;orthogonalLoop=1;jettySize=auto;html=1;exitX=0.5;exitY=0;exitDx=0;exitDy=0;entryX=1;entryY=0.5;entryDx=0;entryDy=0;fontStyle=1" edge="1" parent="1" source="xFMYQZ4gHFHKDtacAfKV-222" target="xFMYQZ4gHFHKDtacAfKV-211">
          <mxGeometry relative="1" as="geometry" />
        </mxCell>
        <mxCell id="xFMYQZ4gHFHKDtacAfKV-222" value="چاپ پیام مناسب" style="whiteSpace=wrap;html=1;rounded=0;fillColor=#1ba1e2;fontColor=#ffffff;strokeColor=#006EAF;fontStyle=1;fontFamily=Tahoma;" vertex="1" parent="1">
          <mxGeometry x="-597.5" y="1290" width="105.5" height="50" as="geometry" />
        </mxCell>
        <mxCell id="xFMYQZ4gHFHKDtacAfKV-226" value="ثبت اطلاعات قطار&lt;div&gt;چاپ پیام ثبت موفقیت آمیز&lt;/div&gt;" style="whiteSpace=wrap;html=1;rounded=0;fillColor=#1ba1e2;fontColor=#ffffff;strokeColor=#006EAF;fontStyle=1;fontFamily=Tahoma;" vertex="1" parent="1">
          <mxGeometry x="-755" y="1460" width="180" height="70" as="geometry" />
        </mxCell>
        <mxCell id="xFMYQZ4gHFHKDtacAfKV-228" style="edgeStyle=orthogonalEdgeStyle;rounded=0;orthogonalLoop=1;jettySize=auto;html=1;exitX=1;exitY=0.5;exitDx=0;exitDy=0;entryX=0.003;entryY=0.414;entryDx=0;entryDy=0;entryPerimeter=0;fontStyle=1" edge="1" parent="1" source="xFMYQZ4gHFHKDtacAfKV-226" target="xFMYQZ4gHFHKDtacAfKV-22">
          <mxGeometry relative="1" as="geometry">
            <Array as="points">
              <mxPoint x="-70" y="1495" />
              <mxPoint x="-70" y="709" />
            </Array>
          </mxGeometry>
        </mxCell>
        <mxCell id="xFMYQZ4gHFHKDtacAfKV-232" value="" style="edgeStyle=orthogonalEdgeStyle;rounded=0;orthogonalLoop=1;jettySize=auto;html=1;fontStyle=1" edge="1" parent="1" source="xFMYQZ4gHFHKDtacAfKV-229" target="xFMYQZ4gHFHKDtacAfKV-231">
          <mxGeometry relative="1" as="geometry" />
        </mxCell>
        <mxCell id="xFMYQZ4gHFHKDtacAfKV-233" value="Yes" style="edgeLabel;html=1;align=center;verticalAlign=middle;resizable=0;points=[];fontStyle=1" vertex="1" connectable="0" parent="xFMYQZ4gHFHKDtacAfKV-232">
          <mxGeometry x="0.1232" y="1" relative="1" as="geometry">
            <mxPoint y="-5" as="offset" />
          </mxGeometry>
        </mxCell>
        <mxCell id="xFMYQZ4gHFHKDtacAfKV-251" value="" style="edgeStyle=orthogonalEdgeStyle;rounded=0;orthogonalLoop=1;jettySize=auto;html=1;fontStyle=1" edge="1" parent="1" source="xFMYQZ4gHFHKDtacAfKV-229" target="xFMYQZ4gHFHKDtacAfKV-250">
          <mxGeometry relative="1" as="geometry" />
        </mxCell>
        <mxCell id="xFMYQZ4gHFHKDtacAfKV-252" value="No" style="edgeLabel;html=1;align=center;verticalAlign=middle;resizable=0;points=[];fontStyle=1" vertex="1" connectable="0" parent="xFMYQZ4gHFHKDtacAfKV-251">
          <mxGeometry x="-0.1952" y="3" relative="1" as="geometry">
            <mxPoint y="-3" as="offset" />
          </mxGeometry>
        </mxCell>
        <mxCell id="xFMYQZ4gHFHKDtacAfKV-229" value="&lt;span&gt;choice == 7&lt;/span&gt;" style="rhombus;whiteSpace=wrap;html=1;rounded=0;fillColor=#fad9d5;strokeColor=#ae4132;fontSize=11;fontStyle=1;fontFamily=Tahoma;" vertex="1" parent="1">
          <mxGeometry x="-1150" y="870" width="130" height="80" as="geometry" />
        </mxCell>
        <mxCell id="xFMYQZ4gHFHKDtacAfKV-236" value="" style="edgeStyle=orthogonalEdgeStyle;rounded=0;orthogonalLoop=1;jettySize=auto;html=1;fontStyle=1" edge="1" parent="1" source="xFMYQZ4gHFHKDtacAfKV-231" target="xFMYQZ4gHFHKDtacAfKV-234">
          <mxGeometry relative="1" as="geometry" />
        </mxCell>
        <mxCell id="xFMYQZ4gHFHKDtacAfKV-231" value="&lt;span&gt;دریافت ورودی&lt;/span&gt;&lt;div&gt;&lt;span&gt;input&lt;/span&gt;&lt;/div&gt;" style="shape=parallelogram;perimeter=parallelogramPerimeter;whiteSpace=wrap;html=1;fixedSize=1;rounded=0;fillColor=#d80073;fontColor=#ffffff;strokeColor=#A50040;fontSize=11;fontStyle=1;fontFamily=Tahoma;" vertex="1" parent="1">
          <mxGeometry x="-1150" y="995" width="130" height="60" as="geometry" />
        </mxCell>
        <mxCell id="xFMYQZ4gHFHKDtacAfKV-235" style="edgeStyle=orthogonalEdgeStyle;rounded=0;orthogonalLoop=1;jettySize=auto;html=1;exitX=1;exitY=0.5;exitDx=0;exitDy=0;entryX=0;entryY=0.5;entryDx=0;entryDy=0;fontStyle=1" edge="1" parent="1" source="xFMYQZ4gHFHKDtacAfKV-234" target="xFMYQZ4gHFHKDtacAfKV-22">
          <mxGeometry relative="1" as="geometry">
            <Array as="points">
              <mxPoint x="-1010" y="1125" />
              <mxPoint x="-1010" y="715" />
            </Array>
          </mxGeometry>
        </mxCell>
        <mxCell id="xFMYQZ4gHFHKDtacAfKV-237" value="Yes" style="edgeLabel;html=1;align=center;verticalAlign=middle;resizable=0;points=[];fontStyle=1" vertex="1" connectable="0" parent="xFMYQZ4gHFHKDtacAfKV-235">
          <mxGeometry x="-0.91" y="1" relative="1" as="geometry">
            <mxPoint y="1" as="offset" />
          </mxGeometry>
        </mxCell>
        <mxCell id="xFMYQZ4gHFHKDtacAfKV-239" value="" style="edgeStyle=orthogonalEdgeStyle;rounded=0;orthogonalLoop=1;jettySize=auto;html=1;fontStyle=1" edge="1" parent="1" source="xFMYQZ4gHFHKDtacAfKV-234" target="xFMYQZ4gHFHKDtacAfKV-238">
          <mxGeometry relative="1" as="geometry" />
        </mxCell>
        <mxCell id="xFMYQZ4gHFHKDtacAfKV-234" value="input&lt;br&gt;==&lt;br&gt;&#39;back&#39;" style="rhombus;whiteSpace=wrap;html=1;rounded=0;fillColor=#fad9d5;strokeColor=#ae4132;fontStyle=1;fontFamily=Tahoma;" vertex="1" parent="1">
          <mxGeometry x="-1152.5" y="1080" width="135" height="90" as="geometry" />
        </mxCell>
        <mxCell id="xFMYQZ4gHFHKDtacAfKV-241" value="" style="edgeStyle=orthogonalEdgeStyle;rounded=0;orthogonalLoop=1;jettySize=auto;html=1;fontStyle=1" edge="1" parent="1" source="xFMYQZ4gHFHKDtacAfKV-238" target="xFMYQZ4gHFHKDtacAfKV-240">
          <mxGeometry relative="1" as="geometry" />
        </mxCell>
        <mxCell id="xFMYQZ4gHFHKDtacAfKV-238" value="&lt;span&gt;دریافت ورودی&lt;/span&gt;&lt;div&gt;&lt;span&gt;id&lt;/span&gt;&lt;/div&gt;" style="shape=parallelogram;perimeter=parallelogramPerimeter;whiteSpace=wrap;html=1;fixedSize=1;rounded=0;fillColor=#d80073;fontColor=#ffffff;strokeColor=#A50040;fontSize=11;fontStyle=1;fontFamily=Tahoma;" vertex="1" parent="1">
          <mxGeometry x="-1150" y="1210" width="130" height="60" as="geometry" />
        </mxCell>
        <mxCell id="xFMYQZ4gHFHKDtacAfKV-247" value="" style="edgeStyle=orthogonalEdgeStyle;rounded=0;orthogonalLoop=1;jettySize=auto;html=1;fontStyle=1" edge="1" parent="1" source="xFMYQZ4gHFHKDtacAfKV-240" target="xFMYQZ4gHFHKDtacAfKV-246">
          <mxGeometry relative="1" as="geometry" />
        </mxCell>
        <mxCell id="xFMYQZ4gHFHKDtacAfKV-249" value="Yes" style="edgeLabel;html=1;align=center;verticalAlign=middle;resizable=0;points=[];fontStyle=1" vertex="1" connectable="0" parent="xFMYQZ4gHFHKDtacAfKV-247">
          <mxGeometry x="-0.301" y="-1" relative="1" as="geometry">
            <mxPoint as="offset" />
          </mxGeometry>
        </mxCell>
        <mxCell id="xFMYQZ4gHFHKDtacAfKV-256" style="edgeStyle=orthogonalEdgeStyle;rounded=0;orthogonalLoop=1;jettySize=auto;html=1;exitX=0;exitY=0.5;exitDx=0;exitDy=0;entryX=0.5;entryY=1;entryDx=0;entryDy=0;fontStyle=1" edge="1" parent="1" source="xFMYQZ4gHFHKDtacAfKV-240" target="xFMYQZ4gHFHKDtacAfKV-242">
          <mxGeometry relative="1" as="geometry" />
        </mxCell>
        <mxCell id="xFMYQZ4gHFHKDtacAfKV-257" value="No" style="edgeLabel;html=1;align=center;verticalAlign=middle;resizable=0;points=[];fontStyle=1" vertex="1" connectable="0" parent="xFMYQZ4gHFHKDtacAfKV-256">
          <mxGeometry x="-0.2589" y="-1" relative="1" as="geometry">
            <mxPoint as="offset" />
          </mxGeometry>
        </mxCell>
        <mxCell id="xFMYQZ4gHFHKDtacAfKV-240" value="موجود بودن&amp;nbsp; آیدی قطار" style="rhombus;whiteSpace=wrap;html=1;rounded=0;fillColor=#fad9d5;strokeColor=#ae4132;fontStyle=1;fontFamily=Tahoma;" vertex="1" parent="1">
          <mxGeometry x="-1152.5" y="1310" width="135" height="90" as="geometry" />
        </mxCell>
        <mxCell id="xFMYQZ4gHFHKDtacAfKV-258" style="edgeStyle=orthogonalEdgeStyle;rounded=0;orthogonalLoop=1;jettySize=auto;html=1;exitX=0.5;exitY=0;exitDx=0;exitDy=0;entryX=0;entryY=0.5;entryDx=0;entryDy=0;fontStyle=1" edge="1" parent="1" source="xFMYQZ4gHFHKDtacAfKV-242" target="xFMYQZ4gHFHKDtacAfKV-238">
          <mxGeometry relative="1" as="geometry">
            <Array as="points">
              <mxPoint x="-1205" y="1240" />
            </Array>
          </mxGeometry>
        </mxCell>
        <mxCell id="xFMYQZ4gHFHKDtacAfKV-242" value="چاپ پیام مناسب" style="whiteSpace=wrap;html=1;rounded=0;fillColor=#1ba1e2;fontColor=#ffffff;strokeColor=#006EAF;fontStyle=1;fontFamily=Tahoma;" vertex="1" parent="1">
          <mxGeometry x="-1258" y="1280" width="105.5" height="50" as="geometry" />
        </mxCell>
        <mxCell id="xFMYQZ4gHFHKDtacAfKV-248" style="edgeStyle=orthogonalEdgeStyle;rounded=0;orthogonalLoop=1;jettySize=auto;html=1;exitX=0.5;exitY=1;exitDx=0;exitDy=0;fontStyle=1" edge="1" parent="1" source="xFMYQZ4gHFHKDtacAfKV-246">
          <mxGeometry relative="1" as="geometry">
            <mxPoint x="-70" y="1490" as="targetPoint" />
            <Array as="points">
              <mxPoint x="-1085" y="1560" />
              <mxPoint x="-70" y="1560" />
            </Array>
          </mxGeometry>
        </mxCell>
        <mxCell id="xFMYQZ4gHFHKDtacAfKV-246" value="حذف اطلاعات قطار" style="whiteSpace=wrap;html=1;rounded=0;fillColor=#1ba1e2;fontColor=#ffffff;strokeColor=#006EAF;fontStyle=1;fontFamily=Tahoma;" vertex="1" parent="1">
          <mxGeometry x="-1150" y="1450" width="130" height="40" as="geometry" />
        </mxCell>
        <mxCell id="xFMYQZ4gHFHKDtacAfKV-254" value="" style="edgeStyle=orthogonalEdgeStyle;rounded=0;orthogonalLoop=1;jettySize=auto;html=1;fontStyle=1" edge="1" parent="1" source="xFMYQZ4gHFHKDtacAfKV-250" target="xFMYQZ4gHFHKDtacAfKV-253">
          <mxGeometry relative="1" as="geometry" />
        </mxCell>
        <mxCell id="xFMYQZ4gHFHKDtacAfKV-255" value="Yes" style="edgeLabel;html=1;align=center;verticalAlign=middle;resizable=0;points=[];fontStyle=1" vertex="1" connectable="0" parent="xFMYQZ4gHFHKDtacAfKV-254">
          <mxGeometry x="-0.1429" y="1" relative="1" as="geometry">
            <mxPoint as="offset" />
          </mxGeometry>
        </mxCell>
        <mxCell id="xFMYQZ4gHFHKDtacAfKV-297" value="" style="edgeStyle=orthogonalEdgeStyle;rounded=0;orthogonalLoop=1;jettySize=auto;html=1;fontStyle=1" edge="1" parent="1" source="xFMYQZ4gHFHKDtacAfKV-250" target="xFMYQZ4gHFHKDtacAfKV-296">
          <mxGeometry relative="1" as="geometry" />
        </mxCell>
        <mxCell id="xFMYQZ4gHFHKDtacAfKV-250" value="&lt;span&gt;choice == 8&lt;/span&gt;" style="rhombus;whiteSpace=wrap;html=1;rounded=0;fillColor=#fad9d5;strokeColor=#ae4132;fontSize=11;fontStyle=1;fontFamily=Tahoma;" vertex="1" parent="1">
          <mxGeometry x="-1410" y="870" width="130" height="80" as="geometry" />
        </mxCell>
        <mxCell id="xFMYQZ4gHFHKDtacAfKV-290" value="" style="edgeStyle=orthogonalEdgeStyle;rounded=0;orthogonalLoop=1;jettySize=auto;html=1;fontStyle=1" edge="1" parent="1" source="xFMYQZ4gHFHKDtacAfKV-253" target="xFMYQZ4gHFHKDtacAfKV-289">
          <mxGeometry relative="1" as="geometry" />
        </mxCell>
        <mxCell id="xFMYQZ4gHFHKDtacAfKV-253" value="&lt;span&gt;دریافت ورودی&lt;/span&gt;&lt;div&gt;&lt;span&gt;input&lt;/span&gt;&lt;/div&gt;" style="shape=parallelogram;perimeter=parallelogramPerimeter;whiteSpace=wrap;html=1;fixedSize=1;rounded=0;fillColor=#d80073;fontColor=#ffffff;strokeColor=#A50040;fontSize=11;fontStyle=1;fontFamily=Tahoma;" vertex="1" parent="1">
          <mxGeometry x="-1410" y="995" width="130" height="60" as="geometry" />
        </mxCell>
        <mxCell id="xFMYQZ4gHFHKDtacAfKV-269" value="" style="edgeStyle=orthogonalEdgeStyle;rounded=0;orthogonalLoop=1;jettySize=auto;html=1;fontStyle=1" edge="1" parent="1" source="xFMYQZ4gHFHKDtacAfKV-260" target="xFMYQZ4gHFHKDtacAfKV-261">
          <mxGeometry relative="1" as="geometry" />
        </mxCell>
        <mxCell id="xFMYQZ4gHFHKDtacAfKV-260" value="&lt;span style=&quot;color: rgb(0, 0, 0); font-family: Helvetica; font-size: 12px;&quot;&gt;اجرای صفحه&lt;br&gt;update_Train&lt;/span&gt;" style="whiteSpace=wrap;html=1;rounded=0;fillColor=#1ba1e2;fontColor=#ffffff;strokeColor=#006EAF;fontSize=11;fontStyle=1;fontFamily=Tahoma;" vertex="1" parent="1">
          <mxGeometry x="-950" y="990" width="140" height="70" as="geometry" />
        </mxCell>
        <mxCell id="xFMYQZ4gHFHKDtacAfKV-270" value="" style="edgeStyle=orthogonalEdgeStyle;rounded=0;orthogonalLoop=1;jettySize=auto;html=1;fontStyle=1" edge="1" parent="1" source="xFMYQZ4gHFHKDtacAfKV-261" target="xFMYQZ4gHFHKDtacAfKV-262">
          <mxGeometry relative="1" as="geometry" />
        </mxCell>
        <mxCell id="xFMYQZ4gHFHKDtacAfKV-261" value="&lt;span&gt;دریافت ورودی&lt;/span&gt;&lt;div&gt;&lt;span&gt;name&lt;/span&gt;&lt;/div&gt;" style="shape=parallelogram;perimeter=parallelogramPerimeter;whiteSpace=wrap;html=1;fixedSize=1;rounded=0;fillColor=#d80073;fontColor=#ffffff;strokeColor=#A50040;fontSize=11;fontStyle=1;fontFamily=Tahoma;" vertex="1" parent="1">
          <mxGeometry x="-944" y="1090" width="130" height="60" as="geometry" />
        </mxCell>
        <mxCell id="xFMYQZ4gHFHKDtacAfKV-271" style="edgeStyle=orthogonalEdgeStyle;rounded=0;orthogonalLoop=1;jettySize=auto;html=1;exitX=1;exitY=0.5;exitDx=0;exitDy=0;entryX=0.25;entryY=0;entryDx=0;entryDy=0;fontStyle=1" edge="1" parent="1" source="xFMYQZ4gHFHKDtacAfKV-262" target="xFMYQZ4gHFHKDtacAfKV-22">
          <mxGeometry relative="1" as="geometry">
            <Array as="points">
              <mxPoint x="-780" y="1235" />
              <mxPoint x="-780" y="650" />
              <mxPoint x="485" y="650" />
            </Array>
          </mxGeometry>
        </mxCell>
        <mxCell id="xFMYQZ4gHFHKDtacAfKV-272" value="Yes" style="edgeLabel;html=1;align=center;verticalAlign=middle;resizable=0;points=[];fontStyle=1" vertex="1" connectable="0" parent="xFMYQZ4gHFHKDtacAfKV-271">
          <mxGeometry x="-0.9486" y="1" relative="1" as="geometry">
            <mxPoint as="offset" />
          </mxGeometry>
        </mxCell>
        <mxCell id="xFMYQZ4gHFHKDtacAfKV-273" value="" style="edgeStyle=orthogonalEdgeStyle;rounded=0;orthogonalLoop=1;jettySize=auto;html=1;fontStyle=1" edge="1" parent="1" source="xFMYQZ4gHFHKDtacAfKV-262" target="xFMYQZ4gHFHKDtacAfKV-263">
          <mxGeometry relative="1" as="geometry" />
        </mxCell>
        <mxCell id="xFMYQZ4gHFHKDtacAfKV-274" value="Yes" style="edgeLabel;html=1;align=center;verticalAlign=middle;resizable=0;points=[];fontStyle=1" vertex="1" connectable="0" parent="xFMYQZ4gHFHKDtacAfKV-273">
          <mxGeometry x="-0.2147" relative="1" as="geometry">
            <mxPoint as="offset" />
          </mxGeometry>
        </mxCell>
        <mxCell id="xFMYQZ4gHFHKDtacAfKV-262" value="name&lt;br&gt;==&lt;br&gt;&#39;back&#39;" style="rhombus;whiteSpace=wrap;html=1;rounded=0;fillColor=#fad9d5;strokeColor=#ae4132;fontStyle=1;fontFamily=Tahoma;" vertex="1" parent="1">
          <mxGeometry x="-946.5" y="1190" width="135" height="90" as="geometry" />
        </mxCell>
        <mxCell id="xFMYQZ4gHFHKDtacAfKV-277" style="edgeStyle=orthogonalEdgeStyle;rounded=0;orthogonalLoop=1;jettySize=auto;html=1;exitX=0;exitY=0.5;exitDx=0;exitDy=0;entryX=0.5;entryY=1;entryDx=0;entryDy=0;fontStyle=1" edge="1" parent="1" source="xFMYQZ4gHFHKDtacAfKV-263" target="xFMYQZ4gHFHKDtacAfKV-276">
          <mxGeometry relative="1" as="geometry" />
        </mxCell>
        <mxCell id="xFMYQZ4gHFHKDtacAfKV-279" value="No" style="edgeLabel;html=1;align=center;verticalAlign=middle;resizable=0;points=[];fontStyle=1" vertex="1" connectable="0" parent="xFMYQZ4gHFHKDtacAfKV-277">
          <mxGeometry x="0.0412" relative="1" as="geometry">
            <mxPoint as="offset" />
          </mxGeometry>
        </mxCell>
        <mxCell id="xFMYQZ4gHFHKDtacAfKV-280" value="" style="edgeStyle=orthogonalEdgeStyle;rounded=0;orthogonalLoop=1;jettySize=auto;html=1;fontStyle=1" edge="1" parent="1" source="xFMYQZ4gHFHKDtacAfKV-263" target="xFMYQZ4gHFHKDtacAfKV-264">
          <mxGeometry relative="1" as="geometry" />
        </mxCell>
        <mxCell id="xFMYQZ4gHFHKDtacAfKV-263" value="id&lt;br&gt;&lt;div&gt;in&lt;/div&gt;&lt;div&gt;id_trains&lt;/div&gt;" style="rhombus;whiteSpace=wrap;html=1;rounded=0;fillColor=#fad9d5;strokeColor=#ae4132;fontStyle=1;fontFamily=Tahoma;" vertex="1" parent="1">
          <mxGeometry x="-946.5" y="1320" width="135" height="90" as="geometry" />
        </mxCell>
        <mxCell id="xFMYQZ4gHFHKDtacAfKV-282" value="" style="edgeStyle=orthogonalEdgeStyle;rounded=0;orthogonalLoop=1;jettySize=auto;html=1;fontStyle=1" edge="1" parent="1" source="xFMYQZ4gHFHKDtacAfKV-264" target="xFMYQZ4gHFHKDtacAfKV-281">
          <mxGeometry relative="1" as="geometry" />
        </mxCell>
        <mxCell id="xFMYQZ4gHFHKDtacAfKV-264" value="&lt;span style=&quot;color: rgb(0, 0, 0); font-family: Helvetica;&quot;&gt;چاپ اطلاعات قطار&amp;nbsp;&lt;/span&gt;&lt;div&gt;&lt;span style=&quot;color: light-dark(rgb(0, 0, 0), rgb(19, 19, 19)); font-family: Helvetica; background-color: transparent;&quot;&gt;و&lt;/span&gt;&lt;/div&gt;&lt;div&gt;&lt;span style=&quot;background-color: transparent; color: light-dark(rgb(0, 0, 0), rgb(19, 19, 19)); font-family: Helvetica;&quot;&gt;پرسیدن تغییر کدام ویژگی&lt;/span&gt;&lt;/div&gt;" style="whiteSpace=wrap;html=1;rounded=0;fillColor=#1ba1e2;fontColor=#ffffff;strokeColor=#006EAF;fontStyle=1;fontFamily=Tahoma;" vertex="1" parent="1">
          <mxGeometry x="-944" y="1440" width="130" height="70" as="geometry" />
        </mxCell>
        <mxCell id="xFMYQZ4gHFHKDtacAfKV-286" style="edgeStyle=orthogonalEdgeStyle;rounded=0;orthogonalLoop=1;jettySize=auto;html=1;exitX=0.5;exitY=1;exitDx=0;exitDy=0;fontStyle=1" edge="1" parent="1" source="xFMYQZ4gHFHKDtacAfKV-265">
          <mxGeometry relative="1" as="geometry">
            <mxPoint x="-160" y="1980" as="targetPoint" />
            <Array as="points">
              <mxPoint x="-879" y="1980" />
            </Array>
          </mxGeometry>
        </mxCell>
        <mxCell id="xFMYQZ4gHFHKDtacAfKV-265" value="&lt;span style=&quot;color: rgb(0, 0, 0); font-family: Helvetica;&quot;&gt;train.choice = new&lt;/span&gt;&lt;div style=&quot;color: rgb(0, 0, 0); font-family: Helvetica;&quot;&gt;&lt;span&gt;چاپ کن : عملیات موفق&lt;/span&gt;&lt;/div&gt;" style="whiteSpace=wrap;html=1;rounded=0;fillColor=#1ba1e2;fontColor=#ffffff;strokeColor=#006EAF;fontStyle=1;fontFamily=Tahoma;" vertex="1" parent="1">
          <mxGeometry x="-944" y="1680" width="130" height="70" as="geometry" />
        </mxCell>
        <mxCell id="xFMYQZ4gHFHKDtacAfKV-268" value="" style="edgeStyle=orthogonalEdgeStyle;rounded=0;orthogonalLoop=1;jettySize=auto;html=1;fontStyle=1" edge="1" parent="1" source="xFMYQZ4gHFHKDtacAfKV-266" target="xFMYQZ4gHFHKDtacAfKV-260">
          <mxGeometry relative="1" as="geometry" />
        </mxCell>
        <mxCell id="xFMYQZ4gHFHKDtacAfKV-287" value="" style="edgeStyle=orthogonalEdgeStyle;rounded=0;orthogonalLoop=1;jettySize=auto;html=1;fontStyle=1" edge="1" parent="1" source="xFMYQZ4gHFHKDtacAfKV-266" target="xFMYQZ4gHFHKDtacAfKV-229">
          <mxGeometry relative="1" as="geometry" />
        </mxCell>
        <mxCell id="xFMYQZ4gHFHKDtacAfKV-288" value="No" style="edgeLabel;html=1;align=center;verticalAlign=middle;resizable=0;points=[];fontStyle=1" vertex="1" connectable="0" parent="xFMYQZ4gHFHKDtacAfKV-287">
          <mxGeometry x="-0.2356" y="1" relative="1" as="geometry">
            <mxPoint as="offset" />
          </mxGeometry>
        </mxCell>
        <mxCell id="xFMYQZ4gHFHKDtacAfKV-266" value="&lt;span&gt;choice == 6&lt;/span&gt;" style="rhombus;whiteSpace=wrap;html=1;rounded=0;fillColor=#fad9d5;strokeColor=#ae4132;fontSize=11;fontStyle=1;fontFamily=Tahoma;" vertex="1" parent="1">
          <mxGeometry x="-944" y="870" width="130" height="80" as="geometry" />
        </mxCell>
        <mxCell id="xFMYQZ4gHFHKDtacAfKV-278" style="edgeStyle=orthogonalEdgeStyle;rounded=0;orthogonalLoop=1;jettySize=auto;html=1;exitX=0.5;exitY=0;exitDx=0;exitDy=0;entryX=0;entryY=0.5;entryDx=0;entryDy=0;fontStyle=1" edge="1" parent="1" source="xFMYQZ4gHFHKDtacAfKV-276" target="xFMYQZ4gHFHKDtacAfKV-260">
          <mxGeometry relative="1" as="geometry">
            <Array as="points">
              <mxPoint x="-970" y="1280" />
              <mxPoint x="-970" y="1025" />
            </Array>
          </mxGeometry>
        </mxCell>
        <mxCell id="xFMYQZ4gHFHKDtacAfKV-276" value="چاپ پیام مناسب" style="whiteSpace=wrap;html=1;rounded=0;fillColor=#1ba1e2;fontColor=#ffffff;strokeColor=#006EAF;fontStyle=1;fontFamily=Tahoma;" vertex="1" parent="1">
          <mxGeometry x="-1017.5" y="1280" width="97.5" height="44" as="geometry" />
        </mxCell>
        <mxCell id="xFMYQZ4gHFHKDtacAfKV-283" value="" style="edgeStyle=orthogonalEdgeStyle;rounded=0;orthogonalLoop=1;jettySize=auto;html=1;fontStyle=1" edge="1" parent="1" source="xFMYQZ4gHFHKDtacAfKV-281" target="xFMYQZ4gHFHKDtacAfKV-265">
          <mxGeometry relative="1" as="geometry" />
        </mxCell>
        <mxCell id="xFMYQZ4gHFHKDtacAfKV-281" value="&lt;span&gt;دریافت ورودی&lt;/span&gt;&lt;div&gt;&lt;span&gt;choice&lt;/span&gt;&lt;/div&gt;&lt;div&gt;new&lt;/div&gt;" style="shape=parallelogram;perimeter=parallelogramPerimeter;whiteSpace=wrap;html=1;fixedSize=1;rounded=0;fillColor=#d80073;fontColor=#ffffff;strokeColor=#A50040;fontSize=11;fontStyle=1;fontFamily=Tahoma;" vertex="1" parent="1">
          <mxGeometry x="-944" y="1570" width="130" height="60" as="geometry" />
        </mxCell>
        <mxCell id="xFMYQZ4gHFHKDtacAfKV-291" style="edgeStyle=orthogonalEdgeStyle;rounded=0;orthogonalLoop=1;jettySize=auto;html=1;exitX=1;exitY=0.5;exitDx=0;exitDy=0;entryX=0;entryY=0.5;entryDx=0;entryDy=0;fontStyle=1" edge="1" parent="1" source="xFMYQZ4gHFHKDtacAfKV-289" target="xFMYQZ4gHFHKDtacAfKV-22">
          <mxGeometry relative="1" as="geometry">
            <Array as="points">
              <mxPoint x="-1160" y="1135" />
              <mxPoint x="-1160" y="715" />
            </Array>
          </mxGeometry>
        </mxCell>
        <mxCell id="xFMYQZ4gHFHKDtacAfKV-293" value="" style="edgeStyle=orthogonalEdgeStyle;rounded=0;orthogonalLoop=1;jettySize=auto;html=1;fontStyle=1" edge="1" parent="1" source="xFMYQZ4gHFHKDtacAfKV-289" target="xFMYQZ4gHFHKDtacAfKV-292">
          <mxGeometry relative="1" as="geometry" />
        </mxCell>
        <mxCell id="xFMYQZ4gHFHKDtacAfKV-294" value="&lt;span&gt;No&lt;/span&gt;" style="edgeLabel;html=1;align=center;verticalAlign=middle;resizable=0;points=[];fontStyle=1" vertex="1" connectable="0" parent="xFMYQZ4gHFHKDtacAfKV-293">
          <mxGeometry x="-0.084" y="1" relative="1" as="geometry">
            <mxPoint as="offset" />
          </mxGeometry>
        </mxCell>
        <mxCell id="xFMYQZ4gHFHKDtacAfKV-289" value="input&lt;br&gt;==&lt;br&gt;&#39;back&#39;" style="rhombus;whiteSpace=wrap;html=1;rounded=0;fillColor=#fad9d5;strokeColor=#ae4132;fontStyle=1;fontFamily=Tahoma;" vertex="1" parent="1">
          <mxGeometry x="-1412.5" y="1090" width="135" height="90" as="geometry" />
        </mxCell>
        <mxCell id="xFMYQZ4gHFHKDtacAfKV-295" style="edgeStyle=orthogonalEdgeStyle;rounded=0;orthogonalLoop=1;jettySize=auto;html=1;exitX=0.5;exitY=1;exitDx=0;exitDy=0;fontStyle=1" edge="1" parent="1" source="xFMYQZ4gHFHKDtacAfKV-292">
          <mxGeometry relative="1" as="geometry">
            <mxPoint x="-1080" y="1560" as="targetPoint" />
            <Array as="points">
              <mxPoint x="-1345" y="1560" />
            </Array>
          </mxGeometry>
        </mxCell>
        <mxCell id="xFMYQZ4gHFHKDtacAfKV-292" value="نمایش لیست&lt;div&gt;قطار ها&lt;/div&gt;" style="whiteSpace=wrap;html=1;rounded=0;fillColor=#1ba1e2;fontColor=#ffffff;strokeColor=#006EAF;fontStyle=1;fontFamily=Tahoma;" vertex="1" parent="1">
          <mxGeometry x="-1397.75" y="1220" width="105.5" height="50" as="geometry" />
        </mxCell>
        <mxCell id="xFMYQZ4gHFHKDtacAfKV-302" value="" style="edgeStyle=orthogonalEdgeStyle;rounded=0;orthogonalLoop=1;jettySize=auto;html=1;fontStyle=1" edge="1" parent="1" source="xFMYQZ4gHFHKDtacAfKV-296" target="xFMYQZ4gHFHKDtacAfKV-298">
          <mxGeometry relative="1" as="geometry" />
        </mxCell>
        <mxCell id="xFMYQZ4gHFHKDtacAfKV-296" value="&lt;span&gt;choice == 9&lt;/span&gt;" style="rhombus;whiteSpace=wrap;html=1;rounded=0;fillColor=#fad9d5;strokeColor=#ae4132;fontSize=11;fontStyle=1;fontFamily=Tahoma;" vertex="1" parent="1">
          <mxGeometry x="-1570" y="870" width="130" height="80" as="geometry" />
        </mxCell>
        <mxCell id="xFMYQZ4gHFHKDtacAfKV-303" style="edgeStyle=orthogonalEdgeStyle;rounded=0;orthogonalLoop=1;jettySize=auto;html=1;exitX=0.5;exitY=1;exitDx=0;exitDy=0;entryX=0;entryY=0.5;entryDx=0;entryDy=0;fontStyle=1" edge="1" parent="1" source="xFMYQZ4gHFHKDtacAfKV-298" target="xFMYQZ4gHFHKDtacAfKV-2">
          <mxGeometry relative="1" as="geometry">
            <Array as="points">
              <mxPoint x="-1505" y="1050" />
              <mxPoint x="-1580" y="1050" />
              <mxPoint x="-1580" y="180" />
            </Array>
          </mxGeometry>
        </mxCell>
        <mxCell id="xFMYQZ4gHFHKDtacAfKV-298" value="خروج از حساب کاربری" style="whiteSpace=wrap;html=1;rounded=0;fillColor=#1ba1e2;fontColor=#ffffff;strokeColor=#006EAF;fontStyle=1;fontFamily=Tahoma;" vertex="1" parent="1">
          <mxGeometry x="-1557.75" y="980" width="105.5" height="50" as="geometry" />
        </mxCell>
        <mxCell id="xFMYQZ4gHFHKDtacAfKV-362" style="edgeStyle=orthogonalEdgeStyle;rounded=0;orthogonalLoop=1;jettySize=auto;html=1;exitX=0.5;exitY=1;exitDx=0;exitDy=0;entryX=0.5;entryY=0;entryDx=0;entryDy=0;fontStyle=1" edge="1" parent="1" source="xFMYQZ4gHFHKDtacAfKV-304" target="xFMYQZ4gHFHKDtacAfKV-310">
          <mxGeometry relative="1" as="geometry" />
        </mxCell>
        <mxCell id="xFMYQZ4gHFHKDtacAfKV-363" value="&lt;span&gt;Yes&lt;/span&gt;" style="edgeLabel;html=1;align=center;verticalAlign=middle;resizable=0;points=[];fontStyle=1" vertex="1" connectable="0" parent="xFMYQZ4gHFHKDtacAfKV-362">
          <mxGeometry x="-0.5453" y="1" relative="1" as="geometry">
            <mxPoint as="offset" />
          </mxGeometry>
        </mxCell>
        <mxCell id="xFMYQZ4gHFHKDtacAfKV-481" value="" style="edgeStyle=orthogonalEdgeStyle;rounded=0;orthogonalLoop=1;jettySize=auto;html=1;fontStyle=1" edge="1" parent="1" source="xFMYQZ4gHFHKDtacAfKV-304" target="xFMYQZ4gHFHKDtacAfKV-480">
          <mxGeometry relative="1" as="geometry" />
        </mxCell>
        <mxCell id="xFMYQZ4gHFHKDtacAfKV-488" value="No" style="edgeLabel;html=1;align=center;verticalAlign=middle;resizable=0;points=[];fontStyle=1" vertex="1" connectable="0" parent="xFMYQZ4gHFHKDtacAfKV-481">
          <mxGeometry x="0.0434" y="-4" relative="1" as="geometry">
            <mxPoint as="offset" />
          </mxGeometry>
        </mxCell>
        <mxCell id="xFMYQZ4gHFHKDtacAfKV-304" value="&lt;span&gt;choice == 3&lt;/span&gt;" style="rhombus;whiteSpace=wrap;html=1;rounded=0;fillColor=#fad9d5;strokeColor=#ae4132;fontSize=11;fontStyle=1;fontFamily=Tahoma;" vertex="1" parent="1">
          <mxGeometry x="-1880" y="320" width="130" height="80" as="geometry" />
        </mxCell>
        <mxCell id="xFMYQZ4gHFHKDtacAfKV-309" value="" style="edgeStyle=orthogonalEdgeStyle;rounded=0;orthogonalLoop=1;jettySize=auto;html=1;fontSize=11;fontStyle=1;fontFamily=Tahoma;" edge="1" parent="1" source="xFMYQZ4gHFHKDtacAfKV-310" target="xFMYQZ4gHFHKDtacAfKV-312">
          <mxGeometry relative="1" as="geometry" />
        </mxCell>
        <mxCell id="xFMYQZ4gHFHKDtacAfKV-310" value="&lt;span&gt;اجرای صفحه&lt;/span&gt;&lt;div&gt;&lt;span&gt;User_Panel&lt;/span&gt;&lt;/div&gt;" style="rounded=0;whiteSpace=wrap;html=1;fillColor=#1ba1e2;fontColor=#ffffff;strokeColor=#006EAF;fontSize=11;fontStyle=1;fontFamily=Tahoma;" vertex="1" parent="1">
          <mxGeometry x="-1840" y="490" width="80" height="30" as="geometry" />
        </mxCell>
        <mxCell id="xFMYQZ4gHFHKDtacAfKV-311" value="" style="edgeStyle=orthogonalEdgeStyle;rounded=0;orthogonalLoop=1;jettySize=auto;html=1;fontSize=11;fontStyle=1;fontFamily=Tahoma;" edge="1" parent="1" source="xFMYQZ4gHFHKDtacAfKV-312" target="xFMYQZ4gHFHKDtacAfKV-317">
          <mxGeometry relative="1" as="geometry" />
        </mxCell>
        <mxCell id="xFMYQZ4gHFHKDtacAfKV-312" value="&lt;span&gt;دریافت ورودی&lt;/span&gt;&lt;div&gt;&lt;span&gt;choice&lt;/span&gt;&lt;/div&gt;" style="shape=parallelogram;perimeter=parallelogramPerimeter;whiteSpace=wrap;html=1;fixedSize=1;rounded=0;fillColor=#d80073;fontColor=#ffffff;strokeColor=#A50040;fontSize=11;fontStyle=1;fontFamily=Tahoma;" vertex="1" parent="1">
          <mxGeometry x="-1850" y="540" width="100" height="30" as="geometry" />
        </mxCell>
        <mxCell id="xFMYQZ4gHFHKDtacAfKV-313" value="" style="edgeStyle=orthogonalEdgeStyle;rounded=0;orthogonalLoop=1;jettySize=auto;html=1;fontSize=11;fontStyle=1;fontFamily=Tahoma;" edge="1" parent="1" source="xFMYQZ4gHFHKDtacAfKV-317" target="xFMYQZ4gHFHKDtacAfKV-319">
          <mxGeometry relative="1" as="geometry" />
        </mxCell>
        <mxCell id="xFMYQZ4gHFHKDtacAfKV-314" value="&lt;span&gt;Yes&lt;/span&gt;" style="edgeLabel;html=1;align=center;verticalAlign=middle;resizable=0;points=[];fontSize=11;fontStyle=1;fontFamily=Tahoma;" vertex="1" connectable="0" parent="xFMYQZ4gHFHKDtacAfKV-313">
          <mxGeometry x="-0.6044" relative="1" as="geometry">
            <mxPoint as="offset" />
          </mxGeometry>
        </mxCell>
        <mxCell id="xFMYQZ4gHFHKDtacAfKV-315" value="" style="edgeStyle=orthogonalEdgeStyle;rounded=0;orthogonalLoop=1;jettySize=auto;html=1;fontSize=11;fontStyle=1;fontFamily=Tahoma;" edge="1" parent="1" source="xFMYQZ4gHFHKDtacAfKV-317" target="xFMYQZ4gHFHKDtacAfKV-341">
          <mxGeometry relative="1" as="geometry" />
        </mxCell>
        <mxCell id="xFMYQZ4gHFHKDtacAfKV-316" value="&lt;span&gt;No&lt;/span&gt;" style="edgeLabel;html=1;align=center;verticalAlign=middle;resizable=0;points=[];fontSize=11;fontStyle=1;fontFamily=Tahoma;" vertex="1" connectable="0" parent="xFMYQZ4gHFHKDtacAfKV-315">
          <mxGeometry x="0.0774" relative="1" as="geometry">
            <mxPoint as="offset" />
          </mxGeometry>
        </mxCell>
        <mxCell id="xFMYQZ4gHFHKDtacAfKV-317" value="&lt;span&gt;choice == 1&lt;/span&gt;" style="rhombus;whiteSpace=wrap;html=1;rounded=0;fillColor=#fad9d5;strokeColor=#ae4132;fontSize=11;fontStyle=1;fontFamily=Tahoma;" vertex="1" parent="1">
          <mxGeometry x="-1840" y="590" width="80" height="40" as="geometry" />
        </mxCell>
        <mxCell id="xFMYQZ4gHFHKDtacAfKV-318" value="" style="edgeStyle=orthogonalEdgeStyle;rounded=0;orthogonalLoop=1;jettySize=auto;html=1;fontSize=11;fontStyle=1;fontFamily=Tahoma;" edge="1" parent="1" source="xFMYQZ4gHFHKDtacAfKV-319" target="xFMYQZ4gHFHKDtacAfKV-321">
          <mxGeometry relative="1" as="geometry" />
        </mxCell>
        <mxCell id="xFMYQZ4gHFHKDtacAfKV-319" value="&lt;span&gt;نمایش صفحه&lt;/span&gt;&lt;div&gt;&lt;span&gt;دریافت اطلاعات کاربر&lt;/span&gt;&lt;/div&gt;" style="rounded=0;whiteSpace=wrap;html=1;fillColor=#1ba1e2;fontColor=#ffffff;strokeColor=#006EAF;fontSize=11;fontStyle=1;fontFamily=Tahoma;" vertex="1" parent="1">
          <mxGeometry x="-1840" y="660" width="80" height="40" as="geometry" />
        </mxCell>
        <mxCell id="xFMYQZ4gHFHKDtacAfKV-320" value="" style="edgeStyle=orthogonalEdgeStyle;rounded=0;orthogonalLoop=1;jettySize=auto;html=1;fontSize=11;fontStyle=1;fontFamily=Tahoma;" edge="1" parent="1" source="xFMYQZ4gHFHKDtacAfKV-321" target="xFMYQZ4gHFHKDtacAfKV-325">
          <mxGeometry relative="1" as="geometry" />
        </mxCell>
        <mxCell id="xFMYQZ4gHFHKDtacAfKV-321" value="&lt;span&gt;دریافت اطلاعات&lt;/span&gt;&lt;div&gt;&lt;span&gt;info&lt;/span&gt;&lt;/div&gt;" style="shape=parallelogram;perimeter=parallelogramPerimeter;whiteSpace=wrap;html=1;fixedSize=1;rounded=0;fillColor=#d80073;fontColor=#ffffff;strokeColor=#A50040;fontSize=11;fontStyle=1;fontFamily=Tahoma;" vertex="1" parent="1">
          <mxGeometry x="-1850" y="720" width="100" height="30" as="geometry" />
        </mxCell>
        <mxCell id="xFMYQZ4gHFHKDtacAfKV-322" style="edgeStyle=orthogonalEdgeStyle;rounded=0;orthogonalLoop=1;jettySize=auto;html=1;exitX=1;exitY=0.5;exitDx=0;exitDy=0;entryX=1;entryY=0.25;entryDx=0;entryDy=0;fontSize=11;fontStyle=1;fontFamily=Tahoma;" edge="1" parent="1" source="xFMYQZ4gHFHKDtacAfKV-325" target="xFMYQZ4gHFHKDtacAfKV-310">
          <mxGeometry relative="1" as="geometry" />
        </mxCell>
        <mxCell id="xFMYQZ4gHFHKDtacAfKV-323" value="&lt;span&gt;yes&lt;/span&gt;" style="edgeLabel;html=1;align=center;verticalAlign=middle;resizable=0;points=[];fontSize=11;fontStyle=1;fontFamily=Tahoma;" vertex="1" connectable="0" parent="xFMYQZ4gHFHKDtacAfKV-322">
          <mxGeometry x="-0.1443" relative="1" as="geometry">
            <mxPoint as="offset" />
          </mxGeometry>
        </mxCell>
        <mxCell id="xFMYQZ4gHFHKDtacAfKV-324" style="edgeStyle=orthogonalEdgeStyle;rounded=0;orthogonalLoop=1;jettySize=auto;html=1;exitX=0.5;exitY=1;exitDx=0;exitDy=0;fontSize=11;fontStyle=1;fontFamily=Tahoma;" edge="1" parent="1" source="xFMYQZ4gHFHKDtacAfKV-325">
          <mxGeometry relative="1" as="geometry">
            <mxPoint x="-1800.428571428571" y="800" as="targetPoint" />
          </mxGeometry>
        </mxCell>
        <mxCell id="xFMYQZ4gHFHKDtacAfKV-325" value="&lt;span&gt;info = &#39;back&#39;&lt;/span&gt;" style="rhombus;whiteSpace=wrap;html=1;rounded=0;fillColor=#fad9d5;strokeColor=#ae4132;fontSize=11;fontStyle=1;fontFamily=Tahoma;" vertex="1" parent="1">
          <mxGeometry x="-1840" y="770" width="80" height="40" as="geometry" />
        </mxCell>
        <mxCell id="xFMYQZ4gHFHKDtacAfKV-326" value="" style="edgeStyle=orthogonalEdgeStyle;rounded=0;orthogonalLoop=1;jettySize=auto;html=1;exitX=0.5;exitY=1;exitDx=0;exitDy=0;fontSize=11;fontStyle=1;fontFamily=Tahoma;" edge="1" parent="1" source="xFMYQZ4gHFHKDtacAfKV-325" target="xFMYQZ4gHFHKDtacAfKV-332">
          <mxGeometry relative="1" as="geometry">
            <mxPoint x="-1800" y="805" as="sourcePoint" />
          </mxGeometry>
        </mxCell>
        <mxCell id="xFMYQZ4gHFHKDtacAfKV-327" value="&lt;span&gt;No&lt;/span&gt;" style="edgeLabel;html=1;align=center;verticalAlign=middle;resizable=0;points=[];fontSize=11;fontStyle=1;fontFamily=Tahoma;" vertex="1" connectable="0" parent="xFMYQZ4gHFHKDtacAfKV-326">
          <mxGeometry x="-0.4023" relative="1" as="geometry">
            <mxPoint as="offset" />
          </mxGeometry>
        </mxCell>
        <mxCell id="xFMYQZ4gHFHKDtacAfKV-328" style="edgeStyle=orthogonalEdgeStyle;rounded=0;orthogonalLoop=1;jettySize=auto;html=1;exitX=0.5;exitY=1;exitDx=0;exitDy=0;entryX=0.5;entryY=1;entryDx=0;entryDy=0;fontSize=11;fontStyle=1;fontFamily=Tahoma;" edge="1" parent="1" source="xFMYQZ4gHFHKDtacAfKV-332" target="xFMYQZ4gHFHKDtacAfKV-334">
          <mxGeometry relative="1" as="geometry">
            <Array as="points">
              <mxPoint x="-1800" y="895" />
              <mxPoint x="-1748" y="895" />
            </Array>
          </mxGeometry>
        </mxCell>
        <mxCell id="xFMYQZ4gHFHKDtacAfKV-329" value="&lt;span&gt;Yes&lt;/span&gt;" style="edgeLabel;html=1;align=center;verticalAlign=middle;resizable=0;points=[];fontSize=11;fontStyle=1;fontFamily=Tahoma;" vertex="1" connectable="0" parent="xFMYQZ4gHFHKDtacAfKV-328">
          <mxGeometry x="0.4901" relative="1" as="geometry">
            <mxPoint as="offset" />
          </mxGeometry>
        </mxCell>
        <mxCell id="xFMYQZ4gHFHKDtacAfKV-330" value="" style="edgeStyle=orthogonalEdgeStyle;rounded=0;orthogonalLoop=1;jettySize=auto;html=1;fontSize=11;fontStyle=1;fontFamily=Tahoma;" edge="1" parent="1" source="xFMYQZ4gHFHKDtacAfKV-332" target="xFMYQZ4gHFHKDtacAfKV-336">
          <mxGeometry relative="1" as="geometry" />
        </mxCell>
        <mxCell id="xFMYQZ4gHFHKDtacAfKV-331" value="&lt;span&gt;No&lt;/span&gt;" style="edgeLabel;html=1;align=center;verticalAlign=middle;resizable=0;points=[];fontSize=11;fontStyle=1;fontFamily=Tahoma;" vertex="1" connectable="0" parent="xFMYQZ4gHFHKDtacAfKV-330">
          <mxGeometry x="-0.0878" y="-1" relative="1" as="geometry">
            <mxPoint as="offset" />
          </mxGeometry>
        </mxCell>
        <mxCell id="xFMYQZ4gHFHKDtacAfKV-332" value="&lt;span&gt;اطلاعات&lt;/span&gt;&lt;div&gt;&lt;span&gt;تکراری&lt;/span&gt;&lt;/div&gt;" style="rhombus;whiteSpace=wrap;html=1;rounded=0;fillColor=#fad9d5;strokeColor=#ae4132;fontSize=11;fontStyle=1;fontFamily=Tahoma;" vertex="1" parent="1">
          <mxGeometry x="-1840" y="845" width="80" height="40" as="geometry" />
        </mxCell>
        <mxCell id="xFMYQZ4gHFHKDtacAfKV-333" style="edgeStyle=orthogonalEdgeStyle;rounded=0;orthogonalLoop=1;jettySize=auto;html=1;exitX=0.5;exitY=0;exitDx=0;exitDy=0;entryX=1;entryY=0.5;entryDx=0;entryDy=0;fontSize=11;fontStyle=1;fontFamily=Tahoma;" edge="1" parent="1" source="xFMYQZ4gHFHKDtacAfKV-334" target="xFMYQZ4gHFHKDtacAfKV-321">
          <mxGeometry relative="1" as="geometry" />
        </mxCell>
        <mxCell id="xFMYQZ4gHFHKDtacAfKV-334" value="نمایش پیام مناسب" style="whiteSpace=wrap;html=1;rounded=0;fillColor=#1ba1e2;fontColor=#ffffff;strokeColor=#006EAF;fontSize=11;fontStyle=1;fontFamily=Tahoma;" vertex="1" parent="1">
          <mxGeometry x="-1773" y="810" width="50" height="40" as="geometry" />
        </mxCell>
        <mxCell id="xFMYQZ4gHFHKDtacAfKV-335" style="edgeStyle=orthogonalEdgeStyle;rounded=0;orthogonalLoop=1;jettySize=auto;html=1;exitX=0.5;exitY=1;exitDx=0;exitDy=0;entryX=0;entryY=0.5;entryDx=0;entryDy=0;fontSize=11;fontStyle=1;fontFamily=Tahoma;" edge="1" parent="1" source="xFMYQZ4gHFHKDtacAfKV-336" target="xFMYQZ4gHFHKDtacAfKV-310">
          <mxGeometry relative="1" as="geometry" />
        </mxCell>
        <mxCell id="xFMYQZ4gHFHKDtacAfKV-336" value="&lt;span&gt;ذخیره اطلاعات کاربر&lt;/span&gt;" style="whiteSpace=wrap;html=1;rounded=0;fillColor=#1ba1e2;fontColor=#ffffff;strokeColor=#006EAF;fontSize=11;fontStyle=1;fontFamily=Tahoma;" vertex="1" parent="1">
          <mxGeometry x="-1830" y="955" width="60" height="45" as="geometry" />
        </mxCell>
        <mxCell id="xFMYQZ4gHFHKDtacAfKV-337" value="" style="edgeStyle=orthogonalEdgeStyle;rounded=0;orthogonalLoop=1;jettySize=auto;html=1;fontStyle=1" edge="1" parent="1" source="xFMYQZ4gHFHKDtacAfKV-341" target="xFMYQZ4gHFHKDtacAfKV-343">
          <mxGeometry relative="1" as="geometry" />
        </mxCell>
        <mxCell id="xFMYQZ4gHFHKDtacAfKV-338" value="&lt;span&gt;Yes&lt;/span&gt;" style="edgeLabel;html=1;align=center;verticalAlign=middle;resizable=0;points=[];fontStyle=1" vertex="1" connectable="0" parent="xFMYQZ4gHFHKDtacAfKV-337">
          <mxGeometry x="0.2296" y="1" relative="1" as="geometry">
            <mxPoint as="offset" />
          </mxGeometry>
        </mxCell>
        <mxCell id="xFMYQZ4gHFHKDtacAfKV-339" value="" style="edgeStyle=orthogonalEdgeStyle;rounded=0;orthogonalLoop=1;jettySize=auto;html=1;fontStyle=1" edge="1" parent="1" source="xFMYQZ4gHFHKDtacAfKV-341" target="xFMYQZ4gHFHKDtacAfKV-360">
          <mxGeometry relative="1" as="geometry" />
        </mxCell>
        <mxCell id="xFMYQZ4gHFHKDtacAfKV-340" value="&lt;span&gt;No&lt;/span&gt;" style="edgeLabel;html=1;align=center;verticalAlign=middle;resizable=0;points=[];fontStyle=1" vertex="1" connectable="0" parent="xFMYQZ4gHFHKDtacAfKV-339">
          <mxGeometry x="-0.2049" y="-1" relative="1" as="geometry">
            <mxPoint as="offset" />
          </mxGeometry>
        </mxCell>
        <mxCell id="xFMYQZ4gHFHKDtacAfKV-341" value="&lt;span&gt;choice == 2&lt;/span&gt;" style="rhombus;whiteSpace=wrap;html=1;rounded=0;fillColor=#fad9d5;strokeColor=#ae4132;fontSize=11;fontStyle=1;fontFamily=Tahoma;" vertex="1" parent="1">
          <mxGeometry x="-1990" y="590" width="80" height="40" as="geometry" />
        </mxCell>
        <mxCell id="xFMYQZ4gHFHKDtacAfKV-342" value="" style="edgeStyle=orthogonalEdgeStyle;rounded=0;orthogonalLoop=1;jettySize=auto;html=1;fontStyle=1" edge="1" parent="1" source="xFMYQZ4gHFHKDtacAfKV-343" target="xFMYQZ4gHFHKDtacAfKV-345">
          <mxGeometry relative="1" as="geometry" />
        </mxCell>
        <mxCell id="xFMYQZ4gHFHKDtacAfKV-343" value="&lt;span&gt;نمایش صفحه&lt;/span&gt;&lt;div&gt;&lt;span&gt;ورود کاربر&lt;/span&gt;&lt;/div&gt;" style="rounded=0;whiteSpace=wrap;html=1;fillColor=#1ba1e2;fontColor=#ffffff;strokeColor=#006EAF;fontSize=11;fontStyle=1;fontFamily=Tahoma;" vertex="1" parent="1">
          <mxGeometry x="-1990" y="660" width="80" height="40" as="geometry" />
        </mxCell>
        <mxCell id="xFMYQZ4gHFHKDtacAfKV-344" style="edgeStyle=orthogonalEdgeStyle;rounded=0;orthogonalLoop=1;jettySize=auto;html=1;exitX=0.5;exitY=1;exitDx=0;exitDy=0;entryX=0.5;entryY=0;entryDx=0;entryDy=0;fontStyle=1" edge="1" parent="1" source="xFMYQZ4gHFHKDtacAfKV-345" target="xFMYQZ4gHFHKDtacAfKV-348">
          <mxGeometry relative="1" as="geometry" />
        </mxCell>
        <mxCell id="xFMYQZ4gHFHKDtacAfKV-345" value="&lt;span&gt;دریافت اطلاعات&lt;/span&gt;&lt;div&gt;user, pass&lt;/div&gt;" style="shape=parallelogram;perimeter=parallelogramPerimeter;whiteSpace=wrap;html=1;fixedSize=1;rounded=0;fillColor=#d80073;fontColor=#ffffff;strokeColor=#A50040;fontSize=11;fontStyle=1;fontFamily=Tahoma;" vertex="1" parent="1">
          <mxGeometry x="-2000" y="720" width="100" height="30" as="geometry" />
        </mxCell>
        <mxCell id="xFMYQZ4gHFHKDtacAfKV-346" style="edgeStyle=orthogonalEdgeStyle;rounded=0;orthogonalLoop=1;jettySize=auto;html=1;exitX=1;exitY=0.5;exitDx=0;exitDy=0;entryX=0;entryY=0;entryDx=0;entryDy=0;fontStyle=1" edge="1" parent="1" source="xFMYQZ4gHFHKDtacAfKV-348" target="xFMYQZ4gHFHKDtacAfKV-310">
          <mxGeometry relative="1" as="geometry">
            <Array as="points">
              <mxPoint x="-1890" y="800" />
              <mxPoint x="-1890" y="470" />
              <mxPoint x="-1840" y="470" />
            </Array>
          </mxGeometry>
        </mxCell>
        <mxCell id="xFMYQZ4gHFHKDtacAfKV-347" value="&lt;span&gt;Yes&lt;/span&gt;" style="edgeLabel;html=1;align=center;verticalAlign=middle;resizable=0;points=[];fontStyle=1" vertex="1" connectable="0" parent="xFMYQZ4gHFHKDtacAfKV-346">
          <mxGeometry x="-0.3672" y="2" relative="1" as="geometry">
            <mxPoint as="offset" />
          </mxGeometry>
        </mxCell>
        <mxCell id="xFMYQZ4gHFHKDtacAfKV-348" value="&lt;span&gt;info = &#39;back&#39;&lt;/span&gt;" style="rhombus;whiteSpace=wrap;html=1;rounded=0;fillColor=#fad9d5;strokeColor=#ae4132;fontSize=11;fontStyle=1;fontFamily=Tahoma;" vertex="1" parent="1">
          <mxGeometry x="-1990" y="780" width="80" height="40" as="geometry" />
        </mxCell>
        <mxCell id="xFMYQZ4gHFHKDtacAfKV-349" value="" style="edgeStyle=orthogonalEdgeStyle;rounded=0;orthogonalLoop=1;jettySize=auto;html=1;exitX=0.5;exitY=1;exitDx=0;exitDy=0;fontSize=11;fontStyle=1;fontFamily=Tahoma;" edge="1" parent="1" source="xFMYQZ4gHFHKDtacAfKV-348" target="xFMYQZ4gHFHKDtacAfKV-354">
          <mxGeometry relative="1" as="geometry">
            <mxPoint x="-1950" y="815" as="sourcePoint" />
          </mxGeometry>
        </mxCell>
        <mxCell id="xFMYQZ4gHFHKDtacAfKV-350" value="&lt;span&gt;No&lt;/span&gt;" style="edgeLabel;html=1;align=center;verticalAlign=middle;resizable=0;points=[];fontSize=11;fontStyle=1;fontFamily=Tahoma;" vertex="1" connectable="0" parent="xFMYQZ4gHFHKDtacAfKV-349">
          <mxGeometry x="-0.4023" relative="1" as="geometry">
            <mxPoint as="offset" />
          </mxGeometry>
        </mxCell>
        <mxCell id="xFMYQZ4gHFHKDtacAfKV-351" style="edgeStyle=orthogonalEdgeStyle;rounded=0;orthogonalLoop=1;jettySize=auto;html=1;exitX=0.5;exitY=1;exitDx=0;exitDy=0;entryX=0.5;entryY=1;entryDx=0;entryDy=0;fontSize=11;fontStyle=1;fontFamily=Tahoma;" edge="1" parent="1" source="xFMYQZ4gHFHKDtacAfKV-354" target="xFMYQZ4gHFHKDtacAfKV-356">
          <mxGeometry relative="1" as="geometry">
            <Array as="points">
              <mxPoint x="-1950" y="905" />
              <mxPoint x="-1898" y="905" />
            </Array>
          </mxGeometry>
        </mxCell>
        <mxCell id="xFMYQZ4gHFHKDtacAfKV-352" value="&lt;span&gt;Yes&lt;/span&gt;" style="edgeLabel;html=1;align=center;verticalAlign=middle;resizable=0;points=[];fontSize=11;fontStyle=1;fontFamily=Tahoma;" vertex="1" connectable="0" parent="xFMYQZ4gHFHKDtacAfKV-351">
          <mxGeometry x="0.4901" relative="1" as="geometry">
            <mxPoint as="offset" />
          </mxGeometry>
        </mxCell>
        <mxCell id="xFMYQZ4gHFHKDtacAfKV-353" style="edgeStyle=orthogonalEdgeStyle;rounded=0;orthogonalLoop=1;jettySize=auto;html=1;exitX=0.5;exitY=1;exitDx=0;exitDy=0;entryX=0.5;entryY=0;entryDx=0;entryDy=0;fontStyle=1" edge="1" parent="1" source="xFMYQZ4gHFHKDtacAfKV-354" target="xFMYQZ4gHFHKDtacAfKV-357">
          <mxGeometry relative="1" as="geometry" />
        </mxCell>
        <mxCell id="xFMYQZ4gHFHKDtacAfKV-354" value="&lt;span&gt;اطلاعات&lt;/span&gt;&lt;div&gt;اشتباه&lt;/div&gt;" style="rhombus;whiteSpace=wrap;html=1;rounded=0;fillColor=#fad9d5;strokeColor=#ae4132;fontSize=11;fontStyle=1;fontFamily=Tahoma;" vertex="1" parent="1">
          <mxGeometry x="-1990" y="855" width="80" height="40" as="geometry" />
        </mxCell>
        <mxCell id="xFMYQZ4gHFHKDtacAfKV-355" style="edgeStyle=orthogonalEdgeStyle;rounded=0;orthogonalLoop=1;jettySize=auto;html=1;exitX=0.5;exitY=0;exitDx=0;exitDy=0;entryX=1;entryY=0.5;entryDx=0;entryDy=0;fontStyle=1" edge="1" parent="1" source="xFMYQZ4gHFHKDtacAfKV-356" target="xFMYQZ4gHFHKDtacAfKV-345">
          <mxGeometry relative="1" as="geometry" />
        </mxCell>
        <mxCell id="xFMYQZ4gHFHKDtacAfKV-356" value="نمایش پیام مناسب" style="whiteSpace=wrap;html=1;rounded=0;fillColor=#1ba1e2;fontColor=#ffffff;strokeColor=#006EAF;fontSize=11;fontStyle=1;fontFamily=Tahoma;" vertex="1" parent="1">
          <mxGeometry x="-1923" y="820" width="50" height="40" as="geometry" />
        </mxCell>
        <mxCell id="xFMYQZ4gHFHKDtacAfKV-478" style="edgeStyle=orthogonalEdgeStyle;rounded=0;orthogonalLoop=1;jettySize=auto;html=1;exitX=0.5;exitY=1;exitDx=0;exitDy=0;entryX=0.5;entryY=0;entryDx=0;entryDy=0;fontStyle=1" edge="1" parent="1" source="xFMYQZ4gHFHKDtacAfKV-357" target="xFMYQZ4gHFHKDtacAfKV-423">
          <mxGeometry relative="1" as="geometry" />
        </mxCell>
        <mxCell id="xFMYQZ4gHFHKDtacAfKV-357" value="&lt;span&gt;نمایش ورود&lt;/span&gt;&lt;div&gt;&lt;span&gt;موفقیت آمیز&lt;/span&gt;&lt;/div&gt;&lt;div&gt;&lt;span&gt;ورود به پنل خرید&lt;/span&gt;&lt;/div&gt;" style="rounded=0;whiteSpace=wrap;html=1;fillColor=#1ba1e2;fontColor=#ffffff;strokeColor=#006EAF;fontSize=11;fontStyle=1;fontFamily=Tahoma;" vertex="1" parent="1">
          <mxGeometry x="-2000" y="930" width="100" height="40" as="geometry" />
        </mxCell>
        <mxCell id="xFMYQZ4gHFHKDtacAfKV-364" style="edgeStyle=orthogonalEdgeStyle;rounded=0;orthogonalLoop=1;jettySize=auto;html=1;exitX=0.5;exitY=1;exitDx=0;exitDy=0;entryX=0;entryY=0.25;entryDx=0;entryDy=0;fontStyle=1" edge="1" parent="1" source="xFMYQZ4gHFHKDtacAfKV-360" target="xFMYQZ4gHFHKDtacAfKV-2">
          <mxGeometry relative="1" as="geometry">
            <Array as="points">
              <mxPoint x="-2090" y="165" />
            </Array>
          </mxGeometry>
        </mxCell>
        <mxCell id="xFMYQZ4gHFHKDtacAfKV-365" value="&lt;span&gt;Yes&lt;/span&gt;" style="edgeLabel;html=1;align=center;verticalAlign=middle;resizable=0;points=[];fontStyle=1" vertex="1" connectable="0" parent="xFMYQZ4gHFHKDtacAfKV-364">
          <mxGeometry x="-0.9597" y="1" relative="1" as="geometry">
            <mxPoint as="offset" />
          </mxGeometry>
        </mxCell>
        <mxCell id="xFMYQZ4gHFHKDtacAfKV-360" value="&lt;span&gt;choice == 3&lt;/span&gt;" style="rhombus;whiteSpace=wrap;html=1;rounded=0;fillColor=#fad9d5;strokeColor=#ae4132;fontSize=11;fontStyle=1;fontFamily=Tahoma;" vertex="1" parent="1">
          <mxGeometry x="-2130" y="590" width="80" height="40" as="geometry" />
        </mxCell>
        <mxCell id="xFMYQZ4gHFHKDtacAfKV-422" style="edgeStyle=orthogonalEdgeStyle;rounded=0;orthogonalLoop=1;jettySize=auto;html=1;exitX=0.5;exitY=1;exitDx=0;exitDy=0;entryX=0.5;entryY=0;entryDx=0;entryDy=0;fontStyle=1" edge="1" parent="1" source="xFMYQZ4gHFHKDtacAfKV-423" target="xFMYQZ4gHFHKDtacAfKV-425">
          <mxGeometry relative="1" as="geometry" />
        </mxCell>
        <mxCell id="xFMYQZ4gHFHKDtacAfKV-423" value="&lt;font style=&quot;font-size: 12px;&quot;&gt;نمایش پنل خرید&lt;/font&gt;" style="rounded=0;whiteSpace=wrap;html=1;fillColor=#1ba1e2;fontColor=#ffffff;strokeColor=#006EAF;fontSize=11;fontStyle=1;fontFamily=Tahoma;" vertex="1" parent="1">
          <mxGeometry x="-2026" y="1030" width="100" height="40" as="geometry" />
        </mxCell>
        <mxCell id="xFMYQZ4gHFHKDtacAfKV-424" value="" style="edgeStyle=orthogonalEdgeStyle;rounded=0;orthogonalLoop=1;jettySize=auto;html=1;fontSize=11;fontStyle=1;fontFamily=Tahoma;" edge="1" parent="1" source="xFMYQZ4gHFHKDtacAfKV-425" target="xFMYQZ4gHFHKDtacAfKV-430">
          <mxGeometry relative="1" as="geometry" />
        </mxCell>
        <mxCell id="xFMYQZ4gHFHKDtacAfKV-425" value="&lt;span&gt;دریافت ورودی&lt;/span&gt;&lt;div&gt;&lt;span&gt;choice&lt;/span&gt;&lt;/div&gt;" style="shape=parallelogram;perimeter=parallelogramPerimeter;whiteSpace=wrap;html=1;fixedSize=1;rounded=0;fillColor=#d80073;fontColor=#ffffff;strokeColor=#A50040;fontSize=11;fontStyle=1;fontFamily=Tahoma;" vertex="1" parent="1">
          <mxGeometry x="-2026" y="1090" width="100" height="30" as="geometry" />
        </mxCell>
        <mxCell id="xFMYQZ4gHFHKDtacAfKV-426" value="" style="edgeStyle=orthogonalEdgeStyle;rounded=0;orthogonalLoop=1;jettySize=auto;html=1;fontSize=11;fontStyle=1;fontFamily=Tahoma;" edge="1" parent="1" source="xFMYQZ4gHFHKDtacAfKV-430" target="xFMYQZ4gHFHKDtacAfKV-434">
          <mxGeometry relative="1" as="geometry" />
        </mxCell>
        <mxCell id="xFMYQZ4gHFHKDtacAfKV-427" value="&lt;span&gt;No&lt;/span&gt;" style="edgeLabel;html=1;align=center;verticalAlign=middle;resizable=0;points=[];fontSize=11;fontStyle=1;fontFamily=Tahoma;" vertex="1" connectable="0" parent="xFMYQZ4gHFHKDtacAfKV-426">
          <mxGeometry x="0.0774" relative="1" as="geometry">
            <mxPoint as="offset" />
          </mxGeometry>
        </mxCell>
        <mxCell id="xFMYQZ4gHFHKDtacAfKV-428" value="" style="edgeStyle=orthogonalEdgeStyle;rounded=0;orthogonalLoop=1;jettySize=auto;html=1;fontStyle=1" edge="1" parent="1" source="xFMYQZ4gHFHKDtacAfKV-430" target="xFMYQZ4gHFHKDtacAfKV-438">
          <mxGeometry relative="1" as="geometry" />
        </mxCell>
        <mxCell id="xFMYQZ4gHFHKDtacAfKV-429" value="&lt;span&gt;Yes&lt;/span&gt;" style="edgeLabel;html=1;align=center;verticalAlign=middle;resizable=0;points=[];fontStyle=1" vertex="1" connectable="0" parent="xFMYQZ4gHFHKDtacAfKV-428">
          <mxGeometry x="0.5863" relative="1" as="geometry">
            <mxPoint as="offset" />
          </mxGeometry>
        </mxCell>
        <mxCell id="xFMYQZ4gHFHKDtacAfKV-430" value="&lt;span&gt;choice == 1&lt;/span&gt;" style="rhombus;whiteSpace=wrap;html=1;rounded=0;fillColor=#fad9d5;strokeColor=#ae4132;fontSize=11;fontStyle=1;fontFamily=Tahoma;" vertex="1" parent="1">
          <mxGeometry x="-2016" y="1140" width="80" height="40" as="geometry" />
        </mxCell>
        <mxCell id="xFMYQZ4gHFHKDtacAfKV-431" value="" style="edgeStyle=orthogonalEdgeStyle;rounded=0;orthogonalLoop=1;jettySize=auto;html=1;fontStyle=1" edge="1" parent="1" source="xFMYQZ4gHFHKDtacAfKV-434" target="xFMYQZ4gHFHKDtacAfKV-436">
          <mxGeometry relative="1" as="geometry" />
        </mxCell>
        <mxCell id="xFMYQZ4gHFHKDtacAfKV-432" value="&lt;span&gt;No&lt;/span&gt;" style="edgeLabel;html=1;align=center;verticalAlign=middle;resizable=0;points=[];fontStyle=1" vertex="1" connectable="0" parent="xFMYQZ4gHFHKDtacAfKV-431">
          <mxGeometry x="-0.2049" y="-1" relative="1" as="geometry">
            <mxPoint as="offset" />
          </mxGeometry>
        </mxCell>
        <mxCell id="xFMYQZ4gHFHKDtacAfKV-433" value="" style="edgeStyle=orthogonalEdgeStyle;rounded=0;orthogonalLoop=1;jettySize=auto;html=1;fontStyle=1" edge="1" parent="1" source="xFMYQZ4gHFHKDtacAfKV-434" target="xFMYQZ4gHFHKDtacAfKV-461">
          <mxGeometry relative="1" as="geometry" />
        </mxCell>
        <mxCell id="xFMYQZ4gHFHKDtacAfKV-434" value="&lt;span&gt;choice == 2&lt;/span&gt;" style="rhombus;whiteSpace=wrap;html=1;rounded=0;fillColor=#fad9d5;strokeColor=#ae4132;fontSize=11;fontStyle=1;fontFamily=Tahoma;" vertex="1" parent="1">
          <mxGeometry x="-2266" y="1140" width="80" height="40" as="geometry" />
        </mxCell>
        <mxCell id="xFMYQZ4gHFHKDtacAfKV-435" value="" style="edgeStyle=orthogonalEdgeStyle;rounded=0;orthogonalLoop=1;jettySize=auto;html=1;fontStyle=1" edge="1" parent="1" source="xFMYQZ4gHFHKDtacAfKV-436" target="xFMYQZ4gHFHKDtacAfKV-477">
          <mxGeometry relative="1" as="geometry" />
        </mxCell>
        <mxCell id="xFMYQZ4gHFHKDtacAfKV-436" value="&lt;span&gt;choice == 3&lt;/span&gt;" style="rhombus;whiteSpace=wrap;html=1;rounded=0;fillColor=#fad9d5;strokeColor=#ae4132;fontSize=11;fontStyle=1;fontFamily=Tahoma;" vertex="1" parent="1">
          <mxGeometry x="-2566" y="1140" width="80" height="40" as="geometry" />
        </mxCell>
        <mxCell id="xFMYQZ4gHFHKDtacAfKV-437" value="" style="edgeStyle=orthogonalEdgeStyle;rounded=0;orthogonalLoop=1;jettySize=auto;html=1;fontStyle=1" edge="1" parent="1" source="xFMYQZ4gHFHKDtacAfKV-438" target="xFMYQZ4gHFHKDtacAfKV-440">
          <mxGeometry relative="1" as="geometry" />
        </mxCell>
        <mxCell id="xFMYQZ4gHFHKDtacAfKV-438" value="&lt;font style=&quot;font-size: 10px;&quot;&gt;1: نمایش لیست قطارها&lt;/font&gt;&lt;div&gt;&lt;span style=&quot;font-size: 10px;&quot;&gt;2: ذخیره اطلاعات قطارها&lt;/span&gt;&lt;/div&gt;" style="rounded=0;whiteSpace=wrap;html=1;fillColor=#1ba1e2;fontColor=#ffffff;strokeColor=#006EAF;fontSize=11;fontStyle=1;fontFamily=Tahoma;" vertex="1" parent="1">
          <mxGeometry x="-2036" y="1200" width="120" height="40" as="geometry" />
        </mxCell>
        <mxCell id="xFMYQZ4gHFHKDtacAfKV-439" value="" style="edgeStyle=orthogonalEdgeStyle;rounded=0;orthogonalLoop=1;jettySize=auto;html=1;fontStyle=1" edge="1" parent="1" source="xFMYQZ4gHFHKDtacAfKV-440" target="xFMYQZ4gHFHKDtacAfKV-445">
          <mxGeometry relative="1" as="geometry" />
        </mxCell>
        <mxCell id="xFMYQZ4gHFHKDtacAfKV-440" value="&lt;span&gt;&lt;font style=&quot;font-size: 10px;&quot;&gt;دریافت ورودی&lt;/font&gt;&lt;/span&gt;&lt;div&gt;&lt;font style=&quot;font-size: 10px;&quot;&gt;اطلاعات بلیط&lt;/font&gt;&lt;/div&gt;&lt;div&gt;&lt;span style=&quot;font-size: 10px; background-color: transparent; color: light-dark(rgb(255, 255, 255), rgb(18, 18, 18));&quot;&gt;&amp;nbsp;مبدا.مقصد و&lt;/span&gt;&lt;/div&gt;&lt;div&gt;&lt;span style=&quot;font-size: 10px; background-color: transparent; color: light-dark(rgb(255, 255, 255), rgb(18, 18, 18));&quot;&gt;...&lt;/span&gt;&lt;/div&gt;" style="shape=parallelogram;perimeter=parallelogramPerimeter;whiteSpace=wrap;html=1;fixedSize=1;rounded=0;fillColor=#d80073;fontColor=#ffffff;strokeColor=#A50040;fontSize=11;fontStyle=1;fontFamily=Tahoma;" vertex="1" parent="1">
          <mxGeometry x="-2026" y="1260" width="100" height="50" as="geometry" />
        </mxCell>
        <mxCell id="xFMYQZ4gHFHKDtacAfKV-441" style="edgeStyle=orthogonalEdgeStyle;rounded=0;orthogonalLoop=1;jettySize=auto;html=1;exitX=0.5;exitY=1;exitDx=0;exitDy=0;entryX=0.5;entryY=1;entryDx=0;entryDy=0;fontStyle=1" edge="1" parent="1" source="xFMYQZ4gHFHKDtacAfKV-445" target="xFMYQZ4gHFHKDtacAfKV-446">
          <mxGeometry relative="1" as="geometry">
            <Array as="points">
              <mxPoint x="-1976" y="1410" />
              <mxPoint x="-2061" y="1410" />
            </Array>
          </mxGeometry>
        </mxCell>
        <mxCell id="xFMYQZ4gHFHKDtacAfKV-442" value="&lt;span&gt;No&lt;/span&gt;" style="edgeLabel;html=1;align=center;verticalAlign=middle;resizable=0;points=[];fontStyle=1" vertex="1" connectable="0" parent="xFMYQZ4gHFHKDtacAfKV-441">
          <mxGeometry x="0.5659" relative="1" as="geometry">
            <mxPoint as="offset" />
          </mxGeometry>
        </mxCell>
        <mxCell id="xFMYQZ4gHFHKDtacAfKV-443" style="edgeStyle=orthogonalEdgeStyle;rounded=0;orthogonalLoop=1;jettySize=auto;html=1;exitX=0.5;exitY=1;exitDx=0;exitDy=0;entryX=0.5;entryY=0;entryDx=0;entryDy=0;fontStyle=1" edge="1" parent="1" source="xFMYQZ4gHFHKDtacAfKV-445" target="xFMYQZ4gHFHKDtacAfKV-449">
          <mxGeometry relative="1" as="geometry" />
        </mxCell>
        <mxCell id="xFMYQZ4gHFHKDtacAfKV-444" value="&lt;span&gt;Yes&lt;/span&gt;" style="edgeLabel;html=1;align=center;verticalAlign=middle;resizable=0;points=[];fontStyle=1" vertex="1" connectable="0" parent="xFMYQZ4gHFHKDtacAfKV-443">
          <mxGeometry x="0.208" y="-1" relative="1" as="geometry">
            <mxPoint as="offset" />
          </mxGeometry>
        </mxCell>
        <mxCell id="xFMYQZ4gHFHKDtacAfKV-445" value="&lt;span&gt;&lt;font style=&quot;font-size: 9px;&quot;&gt;میزان خرید بلیط&lt;/font&gt;&lt;/span&gt;&lt;div&gt;&lt;span&gt;&lt;font style=&quot;font-size: 9px;&quot;&gt;کمتر مساوی&lt;/font&gt;&lt;/span&gt;&lt;/div&gt;&lt;div&gt;&lt;span&gt;&lt;font style=&quot;font-size: 9px;&quot;&gt;موجودی بلیط&lt;/font&gt;&lt;/span&gt;&lt;/div&gt;" style="rhombus;whiteSpace=wrap;html=1;rounded=0;fillColor=#fad9d5;strokeColor=#ae4132;fontSize=11;fontStyle=1;fontFamily=Tahoma;" vertex="1" parent="1">
          <mxGeometry x="-2036" y="1330" width="120" height="70" as="geometry" />
        </mxCell>
        <mxCell id="xFMYQZ4gHFHKDtacAfKV-446" value="نمایش پیام نبود بلیط" style="whiteSpace=wrap;html=1;rounded=0;fillColor=#1ba1e2;fontColor=#ffffff;strokeColor=#006EAF;fontSize=11;fontStyle=1;fontFamily=Tahoma;" vertex="1" parent="1">
          <mxGeometry x="-2086" y="1310" width="50" height="40" as="geometry" />
        </mxCell>
        <mxCell id="xFMYQZ4gHFHKDtacAfKV-447" style="edgeStyle=orthogonalEdgeStyle;rounded=0;orthogonalLoop=1;jettySize=auto;html=1;exitX=0.5;exitY=0;exitDx=0;exitDy=0;entryX=0.1;entryY=0.377;entryDx=0;entryDy=0;entryPerimeter=0;fontStyle=1" edge="1" parent="1" source="xFMYQZ4gHFHKDtacAfKV-446" target="xFMYQZ4gHFHKDtacAfKV-440">
          <mxGeometry relative="1" as="geometry" />
        </mxCell>
        <mxCell id="xFMYQZ4gHFHKDtacAfKV-448" style="edgeStyle=orthogonalEdgeStyle;rounded=0;orthogonalLoop=1;jettySize=auto;html=1;exitX=0.5;exitY=1;exitDx=0;exitDy=0;entryX=0.5;entryY=0;entryDx=0;entryDy=0;fontStyle=1" edge="1" parent="1" source="xFMYQZ4gHFHKDtacAfKV-449" target="xFMYQZ4gHFHKDtacAfKV-454">
          <mxGeometry relative="1" as="geometry" />
        </mxCell>
        <mxCell id="xFMYQZ4gHFHKDtacAfKV-449" value="&lt;span&gt;&lt;font style=&quot;font-size: 10px;&quot;&gt;دریافت ورودی&lt;/font&gt;&lt;/span&gt;&lt;div&gt;&lt;font style=&quot;font-size: 10px;&quot;&gt;اطلاعات بانکی&lt;/font&gt;&lt;/div&gt;&lt;div&gt;&lt;font style=&quot;font-size: 10px;&quot;&gt;کارت بانکی و موجودی&lt;/font&gt;&lt;/div&gt;&lt;div&gt;&lt;span style=&quot;font-size: 10px;&quot;&gt;و&lt;/span&gt;&lt;/div&gt;&lt;div&gt;&lt;span style=&quot;font-size: 10px;&quot;&gt;...&lt;/span&gt;&lt;/div&gt;" style="shape=parallelogram;perimeter=parallelogramPerimeter;whiteSpace=wrap;html=1;fixedSize=1;rounded=0;fillColor=#d80073;fontColor=#ffffff;strokeColor=#A50040;fontSize=11;fontStyle=1;fontFamily=Tahoma;" vertex="1" parent="1">
          <mxGeometry x="-2038.5" y="1484" width="125" height="81" as="geometry" />
        </mxCell>
        <mxCell id="xFMYQZ4gHFHKDtacAfKV-450" style="edgeStyle=orthogonalEdgeStyle;rounded=0;orthogonalLoop=1;jettySize=auto;html=1;exitX=0;exitY=0.5;exitDx=0;exitDy=0;entryX=0.5;entryY=1;entryDx=0;entryDy=0;fontStyle=1" edge="1" parent="1" source="xFMYQZ4gHFHKDtacAfKV-454" target="xFMYQZ4gHFHKDtacAfKV-456">
          <mxGeometry relative="1" as="geometry" />
        </mxCell>
        <mxCell id="xFMYQZ4gHFHKDtacAfKV-451" value="&lt;span&gt;No&lt;/span&gt;" style="edgeLabel;html=1;align=center;verticalAlign=middle;resizable=0;points=[];fontStyle=1" vertex="1" connectable="0" parent="xFMYQZ4gHFHKDtacAfKV-450">
          <mxGeometry x="-0.5186" y="-1" relative="1" as="geometry">
            <mxPoint as="offset" />
          </mxGeometry>
        </mxCell>
        <mxCell id="xFMYQZ4gHFHKDtacAfKV-452" style="edgeStyle=orthogonalEdgeStyle;rounded=0;orthogonalLoop=1;jettySize=auto;html=1;exitX=0.5;exitY=1;exitDx=0;exitDy=0;entryX=0.5;entryY=0;entryDx=0;entryDy=0;fontStyle=1" edge="1" parent="1" source="xFMYQZ4gHFHKDtacAfKV-454" target="xFMYQZ4gHFHKDtacAfKV-458">
          <mxGeometry relative="1" as="geometry" />
        </mxCell>
        <mxCell id="xFMYQZ4gHFHKDtacAfKV-453" value="&lt;span&gt;Yes&lt;/span&gt;" style="edgeLabel;html=1;align=center;verticalAlign=middle;resizable=0;points=[];fontStyle=1" vertex="1" connectable="0" parent="xFMYQZ4gHFHKDtacAfKV-452">
          <mxGeometry x="-0.1527" y="1" relative="1" as="geometry">
            <mxPoint as="offset" />
          </mxGeometry>
        </mxCell>
        <mxCell id="xFMYQZ4gHFHKDtacAfKV-454" value="&lt;span&gt;موجودی کافی&lt;/span&gt;" style="rhombus;whiteSpace=wrap;html=1;rounded=0;fillColor=#fad9d5;strokeColor=#ae4132;fontSize=11;fontStyle=1;fontFamily=Tahoma;" vertex="1" parent="1">
          <mxGeometry x="-2022" y="1590" width="97" height="54" as="geometry" />
        </mxCell>
        <mxCell id="xFMYQZ4gHFHKDtacAfKV-455" style="edgeStyle=orthogonalEdgeStyle;rounded=0;orthogonalLoop=1;jettySize=auto;html=1;exitX=0.5;exitY=0;exitDx=0;exitDy=0;entryX=0;entryY=0;entryDx=0;entryDy=0;fontStyle=1" edge="1" parent="1" source="xFMYQZ4gHFHKDtacAfKV-456" target="xFMYQZ4gHFHKDtacAfKV-440">
          <mxGeometry relative="1" as="geometry">
            <Array as="points">
              <mxPoint x="-2089" y="1268" />
            </Array>
          </mxGeometry>
        </mxCell>
        <mxCell id="xFMYQZ4gHFHKDtacAfKV-456" value="نمایش پیام نبود موجودی" style="whiteSpace=wrap;html=1;rounded=0;fillColor=#1ba1e2;fontColor=#ffffff;strokeColor=#006EAF;fontSize=11;fontStyle=1;fontFamily=Tahoma;" vertex="1" parent="1">
          <mxGeometry x="-2114" y="1525" width="50" height="40" as="geometry" />
        </mxCell>
        <mxCell id="xFMYQZ4gHFHKDtacAfKV-457" value="" style="edgeStyle=orthogonalEdgeStyle;rounded=0;orthogonalLoop=1;jettySize=auto;html=1;fontStyle=1" edge="1" parent="1" source="xFMYQZ4gHFHKDtacAfKV-458" target="xFMYQZ4gHFHKDtacAfKV-460">
          <mxGeometry relative="1" as="geometry" />
        </mxCell>
        <mxCell id="xFMYQZ4gHFHKDtacAfKV-458" value="&lt;font style=&quot;font-size: 10px;&quot;&gt;1: کم شدن موجودی بلیط&lt;/font&gt;&lt;div&gt;&lt;span style=&quot;font-size: 10px;&quot;&gt;2: ک&lt;/span&gt;&lt;span style=&quot;font-size: 10px; background-color: transparent; color: light-dark(rgb(255, 255, 255), rgb(18, 18, 18));&quot;&gt;م شدن موجودی کارت&lt;/span&gt;&lt;/div&gt;" style="rounded=0;whiteSpace=wrap;html=1;fillColor=#1ba1e2;fontColor=#ffffff;strokeColor=#006EAF;fontSize=11;fontStyle=1;fontFamily=Tahoma;" vertex="1" parent="1">
          <mxGeometry x="-2036" y="1689" width="125" height="63" as="geometry" />
        </mxCell>
        <mxCell id="xFMYQZ4gHFHKDtacAfKV-459" style="edgeStyle=orthogonalEdgeStyle;rounded=0;orthogonalLoop=1;jettySize=auto;html=1;exitX=0.5;exitY=1;exitDx=0;exitDy=0;entryX=1;entryY=0.5;entryDx=0;entryDy=0;fontStyle=1" edge="1" parent="1" source="xFMYQZ4gHFHKDtacAfKV-460" target="xFMYQZ4gHFHKDtacAfKV-423">
          <mxGeometry relative="1" as="geometry">
            <Array as="points">
              <mxPoint x="-1973" y="1826" />
              <mxPoint x="-1900" y="1826" />
              <mxPoint x="-1900" y="1050" />
            </Array>
          </mxGeometry>
        </mxCell>
        <mxCell id="xFMYQZ4gHFHKDtacAfKV-460" value="صدور بلیط&lt;div&gt;(نتیجه - خروجی)&lt;/div&gt;" style="shape=parallelogram;perimeter=parallelogramPerimeter;whiteSpace=wrap;html=1;fixedSize=1;rounded=0;fillColor=#d80073;fontColor=#ffffff;strokeColor=#A50040;fontSize=11;fontStyle=1;fontFamily=Tahoma;" vertex="1" parent="1">
          <mxGeometry x="-2036" y="1770" width="125" height="45" as="geometry" />
        </mxCell>
        <mxCell id="xFMYQZ4gHFHKDtacAfKV-461" value="&lt;span style=&quot;font-size: 10px;&quot;&gt;نمایش اطلاعات کاربری&lt;/span&gt;" style="rounded=0;whiteSpace=wrap;html=1;fillColor=#1ba1e2;fontColor=#ffffff;strokeColor=#006EAF;fontSize=11;fontStyle=1;fontFamily=Tahoma;" vertex="1" parent="1">
          <mxGeometry x="-2286" y="1212" width="120" height="40" as="geometry" />
        </mxCell>
        <mxCell id="xFMYQZ4gHFHKDtacAfKV-462" value="" style="edgeStyle=orthogonalEdgeStyle;rounded=0;orthogonalLoop=1;jettySize=auto;html=1;fontSize=11;fontStyle=1;fontFamily=Tahoma;" edge="1" parent="1" source="xFMYQZ4gHFHKDtacAfKV-463" target="xFMYQZ4gHFHKDtacAfKV-468">
          <mxGeometry relative="1" as="geometry" />
        </mxCell>
        <mxCell id="xFMYQZ4gHFHKDtacAfKV-463" value="&lt;span&gt;دریافت اطلاعات&lt;/span&gt;&lt;div&gt;&lt;span&gt;info&lt;/span&gt;&lt;/div&gt;" style="shape=parallelogram;perimeter=parallelogramPerimeter;whiteSpace=wrap;html=1;fixedSize=1;rounded=0;fillColor=#d80073;fontColor=#ffffff;strokeColor=#A50040;fontSize=11;fontStyle=1;fontFamily=Tahoma;" vertex="1" parent="1">
          <mxGeometry x="-2287" y="1275" width="126" height="30" as="geometry" />
        </mxCell>
        <mxCell id="xFMYQZ4gHFHKDtacAfKV-464" style="edgeStyle=orthogonalEdgeStyle;rounded=0;orthogonalLoop=1;jettySize=auto;html=1;exitX=1;exitY=0.5;exitDx=0;exitDy=0;entryX=0;entryY=0.5;entryDx=0;entryDy=0;fontStyle=1" edge="1" parent="1" source="xFMYQZ4gHFHKDtacAfKV-468" target="xFMYQZ4gHFHKDtacAfKV-423">
          <mxGeometry relative="1" as="geometry">
            <Array as="points">
              <mxPoint x="-2125" y="1350" />
              <mxPoint x="-2125" y="1050" />
            </Array>
          </mxGeometry>
        </mxCell>
        <mxCell id="xFMYQZ4gHFHKDtacAfKV-465" value="&lt;span&gt;Yes&lt;/span&gt;" style="edgeLabel;html=1;align=center;verticalAlign=middle;resizable=0;points=[];fontStyle=1" vertex="1" connectable="0" parent="xFMYQZ4gHFHKDtacAfKV-464">
          <mxGeometry x="-0.6048" y="1" relative="1" as="geometry">
            <mxPoint as="offset" />
          </mxGeometry>
        </mxCell>
        <mxCell id="xFMYQZ4gHFHKDtacAfKV-466" value="" style="edgeStyle=orthogonalEdgeStyle;rounded=0;orthogonalLoop=1;jettySize=auto;html=1;fontStyle=1" edge="1" parent="1" source="xFMYQZ4gHFHKDtacAfKV-468" target="xFMYQZ4gHFHKDtacAfKV-472">
          <mxGeometry relative="1" as="geometry" />
        </mxCell>
        <mxCell id="xFMYQZ4gHFHKDtacAfKV-467" value="&lt;span&gt;No&lt;/span&gt;" style="edgeLabel;html=1;align=center;verticalAlign=middle;resizable=0;points=[];fontStyle=1" vertex="1" connectable="0" parent="xFMYQZ4gHFHKDtacAfKV-466">
          <mxGeometry x="-0.07" relative="1" as="geometry">
            <mxPoint as="offset" />
          </mxGeometry>
        </mxCell>
        <mxCell id="xFMYQZ4gHFHKDtacAfKV-468" value="&lt;span&gt;info = &#39;back&#39;&lt;/span&gt;" style="rhombus;whiteSpace=wrap;html=1;rounded=0;fillColor=#fad9d5;strokeColor=#ae4132;fontSize=11;fontStyle=1;fontFamily=Tahoma;" vertex="1" parent="1">
          <mxGeometry x="-2264" y="1330" width="80" height="40" as="geometry" />
        </mxCell>
        <mxCell id="xFMYQZ4gHFHKDtacAfKV-469" style="edgeStyle=orthogonalEdgeStyle;rounded=0;orthogonalLoop=1;jettySize=auto;html=1;exitX=0.5;exitY=1;exitDx=0;exitDy=0;entryX=0.5;entryY=1;entryDx=0;entryDy=0;fontStyle=1" edge="1" parent="1" source="xFMYQZ4gHFHKDtacAfKV-472" target="xFMYQZ4gHFHKDtacAfKV-474">
          <mxGeometry relative="1" as="geometry" />
        </mxCell>
        <mxCell id="xFMYQZ4gHFHKDtacAfKV-470" value="&lt;span&gt;Yes&lt;/span&gt;" style="edgeLabel;html=1;align=center;verticalAlign=middle;resizable=0;points=[];fontStyle=1" vertex="1" connectable="0" parent="xFMYQZ4gHFHKDtacAfKV-469">
          <mxGeometry x="0.4451" relative="1" as="geometry">
            <mxPoint as="offset" />
          </mxGeometry>
        </mxCell>
        <mxCell id="xFMYQZ4gHFHKDtacAfKV-471" style="edgeStyle=orthogonalEdgeStyle;rounded=0;orthogonalLoop=1;jettySize=auto;html=1;exitX=0.5;exitY=1;exitDx=0;exitDy=0;entryX=0.5;entryY=0;entryDx=0;entryDy=0;fontStyle=1" edge="1" parent="1">
          <mxGeometry relative="1" as="geometry">
            <mxPoint x="-2222" y="1482" as="sourcePoint" />
            <mxPoint x="-2224" y="1520" as="targetPoint" />
          </mxGeometry>
        </mxCell>
        <mxCell id="xFMYQZ4gHFHKDtacAfKV-472" value="&lt;span&gt;info = &#39;username&#39;&lt;/span&gt;" style="rhombus;whiteSpace=wrap;html=1;rounded=0;fillColor=#fad9d5;strokeColor=#ae4132;fontSize=11;fontStyle=1;fontFamily=Tahoma;" vertex="1" parent="1">
          <mxGeometry x="-2278" y="1410" width="108" height="72" as="geometry" />
        </mxCell>
        <mxCell id="xFMYQZ4gHFHKDtacAfKV-473" style="edgeStyle=orthogonalEdgeStyle;rounded=0;orthogonalLoop=1;jettySize=auto;html=1;exitX=0.5;exitY=0;exitDx=0;exitDy=0;entryX=1;entryY=0.5;entryDx=0;entryDy=0;fontStyle=1" edge="1" parent="1" source="xFMYQZ4gHFHKDtacAfKV-474" target="xFMYQZ4gHFHKDtacAfKV-463">
          <mxGeometry relative="1" as="geometry">
            <Array as="points">
              <mxPoint x="-2141" y="1290" />
            </Array>
          </mxGeometry>
        </mxCell>
        <mxCell id="xFMYQZ4gHFHKDtacAfKV-474" value="نام کاربری&lt;div&gt;تغییر ناپذیز&lt;/div&gt;&lt;div&gt;است&lt;/div&gt;" style="whiteSpace=wrap;html=1;rounded=0;fillColor=#1ba1e2;fontColor=#ffffff;strokeColor=#006EAF;fontSize=11;fontStyle=1;fontFamily=Tahoma;" vertex="1" parent="1">
          <mxGeometry x="-2186" y="1365" width="90" height="45" as="geometry" />
        </mxCell>
        <mxCell id="xFMYQZ4gHFHKDtacAfKV-475" style="edgeStyle=orthogonalEdgeStyle;rounded=0;orthogonalLoop=1;jettySize=auto;html=1;exitX=0.5;exitY=1;exitDx=0;exitDy=0;entryX=0;entryY=0.25;entryDx=0;entryDy=0;fontStyle=1" edge="1" parent="1" source="xFMYQZ4gHFHKDtacAfKV-476" target="xFMYQZ4gHFHKDtacAfKV-423">
          <mxGeometry relative="1" as="geometry">
            <Array as="points">
              <mxPoint x="-2226" y="1601" />
              <mxPoint x="-2404" y="1601" />
              <mxPoint x="-2404" y="1040" />
            </Array>
          </mxGeometry>
        </mxCell>
        <mxCell id="xFMYQZ4gHFHKDtacAfKV-476" value="تغییر اطلاعات&lt;div&gt;&lt;span style=&quot;background-color: transparent; color: light-dark(rgb(255, 255, 255), rgb(18, 18, 18));&quot;&gt;مورد نظر&lt;/span&gt;&lt;/div&gt;&lt;div&gt;&lt;span style=&quot;background-color: transparent; color: light-dark(rgb(255, 255, 255), rgb(18, 18, 18));&quot;&gt;نمایش موفقیت آمیز بودن&lt;/span&gt;&lt;/div&gt;" style="whiteSpace=wrap;html=1;rounded=0;fillColor=#1ba1e2;fontColor=#ffffff;strokeColor=#006EAF;fontSize=11;fontStyle=1;fontFamily=Tahoma;" vertex="1" parent="1">
          <mxGeometry x="-2271" y="1520" width="90" height="61" as="geometry" />
        </mxCell>
        <mxCell id="xFMYQZ4gHFHKDtacAfKV-479" style="edgeStyle=orthogonalEdgeStyle;rounded=0;orthogonalLoop=1;jettySize=auto;html=1;exitX=0.5;exitY=1;exitDx=0;exitDy=0;entryX=0;entryY=0.75;entryDx=0;entryDy=0;fontStyle=1" edge="1" parent="1" source="xFMYQZ4gHFHKDtacAfKV-477" target="xFMYQZ4gHFHKDtacAfKV-310">
          <mxGeometry relative="1" as="geometry">
            <Array as="points">
              <mxPoint x="-2526" y="1272" />
              <mxPoint x="-2600" y="1272" />
              <mxPoint x="-2600" y="513" />
            </Array>
          </mxGeometry>
        </mxCell>
        <mxCell id="xFMYQZ4gHFHKDtacAfKV-477" value="&lt;span style=&quot;font-size: 10px;&quot;&gt;حروج از حساب کاربری&lt;/span&gt;&lt;div&gt;&lt;span style=&quot;font-size: 10px;&quot;&gt;رفتن به پنل کاربر عادی&lt;/span&gt;&lt;/div&gt;" style="rounded=0;whiteSpace=wrap;html=1;fillColor=#1ba1e2;fontColor=#ffffff;strokeColor=#006EAF;fontSize=11;fontStyle=1;fontFamily=Tahoma;" vertex="1" parent="1">
          <mxGeometry x="-2586" y="1212" width="120" height="40" as="geometry" />
        </mxCell>
        <mxCell id="xFMYQZ4gHFHKDtacAfKV-485" value="" style="edgeStyle=orthogonalEdgeStyle;rounded=0;orthogonalLoop=1;jettySize=auto;html=1;fontStyle=1" edge="1" parent="1" source="xFMYQZ4gHFHKDtacAfKV-480" target="xFMYQZ4gHFHKDtacAfKV-484">
          <mxGeometry relative="1" as="geometry" />
        </mxCell>
        <mxCell id="xFMYQZ4gHFHKDtacAfKV-489" value="Yes" style="edgeLabel;html=1;align=center;verticalAlign=middle;resizable=0;points=[];fontStyle=1" vertex="1" connectable="0" parent="xFMYQZ4gHFHKDtacAfKV-485">
          <mxGeometry x="-0.1067" y="-1" relative="1" as="geometry">
            <mxPoint y="1" as="offset" />
          </mxGeometry>
        </mxCell>
        <mxCell id="xFMYQZ4gHFHKDtacAfKV-480" value="&lt;span&gt;choice == 4&lt;/span&gt;" style="rhombus;whiteSpace=wrap;html=1;rounded=0;fillColor=#fad9d5;strokeColor=#ae4132;fontSize=11;fontStyle=1;fontFamily=Tahoma;" vertex="1" parent="1">
          <mxGeometry x="-2939" y="320" width="130" height="80" as="geometry" />
        </mxCell>
        <mxCell id="xFMYQZ4gHFHKDtacAfKV-487" value="" style="edgeStyle=orthogonalEdgeStyle;rounded=0;orthogonalLoop=1;jettySize=auto;html=1;fontStyle=1" edge="1" parent="1" source="xFMYQZ4gHFHKDtacAfKV-484" target="xFMYQZ4gHFHKDtacAfKV-486">
          <mxGeometry relative="1" as="geometry" />
        </mxCell>
        <mxCell id="xFMYQZ4gHFHKDtacAfKV-484" value="Exit()" style="rounded=0;whiteSpace=wrap;html=1;fillColor=#1ba1e2;fontColor=#ffffff;strokeColor=#006EAF;fontSize=11;fontStyle=1;fontFamily=Tahoma;" vertex="1" parent="1">
          <mxGeometry x="-2927" y="450" width="106" height="40" as="geometry" />
        </mxCell>
        <mxCell id="xFMYQZ4gHFHKDtacAfKV-486" value="&lt;span&gt;&lt;font style=&quot;font-size: 24px;&quot;&gt;Stop&lt;/font&gt;&lt;/span&gt;" style="ellipse;whiteSpace=wrap;html=1;fillColor=#fff2cc;strokeColor=#d6b656;fontFamily=Tahoma;fontStyle=1" vertex="1" parent="1">
          <mxGeometry x="-2939" y="530" width="130" height="70" as="geometry" />
        </mxCell>
        <mxCell id="xFMYQZ4gHFHKDtacAfKV-501" value="" style="edgeStyle=orthogonalEdgeStyle;rounded=0;orthogonalLoop=1;jettySize=auto;html=1;" edge="1" parent="1" source="xFMYQZ4gHFHKDtacAfKV-502" target="xFMYQZ4gHFHKDtacAfKV-510">
          <mxGeometry relative="1" as="geometry" />
        </mxCell>
        <mxCell id="xFMYQZ4gHFHKDtacAfKV-502" value="admin&lt;div&gt;user/pass&lt;/div&gt;" style="shape=parallelogram;perimeter=parallelogramPerimeter;whiteSpace=wrap;html=1;fixedSize=1;fillColor=#d80073;fontColor=#ffffff;strokeColor=#A50040;" vertex="1" parent="1">
          <mxGeometry x="1450" y="1037" width="120" height="60" as="geometry" />
        </mxCell>
        <mxCell id="xFMYQZ4gHFHKDtacAfKV-506" style="edgeStyle=orthogonalEdgeStyle;rounded=0;orthogonalLoop=1;jettySize=auto;html=1;exitX=0.5;exitY=1;exitDx=0;exitDy=0;entryX=0.5;entryY=0;entryDx=0;entryDy=0;" edge="1" parent="1" source="xFMYQZ4gHFHKDtacAfKV-510" target="xFMYQZ4gHFHKDtacAfKV-512">
          <mxGeometry relative="1" as="geometry">
            <Array as="points">
              <mxPoint x="1510" y="1217" />
              <mxPoint x="1450" y="1217" />
              <mxPoint x="1450" y="1207" />
              <mxPoint x="1315" y="1207" />
            </Array>
          </mxGeometry>
        </mxCell>
        <mxCell id="xFMYQZ4gHFHKDtacAfKV-507" value="CORRECT" style="edgeLabel;html=1;align=center;verticalAlign=middle;resizable=0;points=[];" vertex="1" connectable="0" parent="xFMYQZ4gHFHKDtacAfKV-506">
          <mxGeometry x="-0.3719" y="-2" relative="1" as="geometry">
            <mxPoint x="-52" y="-3" as="offset" />
          </mxGeometry>
        </mxCell>
        <mxCell id="xFMYQZ4gHFHKDtacAfKV-508" style="edgeStyle=orthogonalEdgeStyle;rounded=0;orthogonalLoop=1;jettySize=auto;html=1;exitX=0.5;exitY=1;exitDx=0;exitDy=0;entryX=0.5;entryY=0;entryDx=0;entryDy=0;" edge="1" parent="1" source="xFMYQZ4gHFHKDtacAfKV-510" target="xFMYQZ4gHFHKDtacAfKV-519">
          <mxGeometry relative="1" as="geometry">
            <Array as="points">
              <mxPoint x="1510" y="1217" />
              <mxPoint x="1570" y="1217" />
              <mxPoint x="1570" y="1207" />
              <mxPoint x="1630" y="1207" />
            </Array>
          </mxGeometry>
        </mxCell>
        <mxCell id="xFMYQZ4gHFHKDtacAfKV-509" value="WRONG" style="edgeLabel;html=1;align=center;verticalAlign=middle;resizable=0;points=[];" vertex="1" connectable="0" parent="xFMYQZ4gHFHKDtacAfKV-508">
          <mxGeometry x="-0.3175" y="-1" relative="1" as="geometry">
            <mxPoint as="offset" />
          </mxGeometry>
        </mxCell>
        <mxCell id="xFMYQZ4gHFHKDtacAfKV-510" value="validating" style="rhombus;whiteSpace=wrap;html=1;fillColor=#fad9d5;strokeColor=#ae4132;" vertex="1" parent="1">
          <mxGeometry x="1470" y="1127" width="80" height="80" as="geometry" />
        </mxCell>
        <mxCell id="xFMYQZ4gHFHKDtacAfKV-511" value="" style="edgeStyle=orthogonalEdgeStyle;rounded=0;orthogonalLoop=1;jettySize=auto;html=1;" edge="1" parent="1" source="xFMYQZ4gHFHKDtacAfKV-512" target="xFMYQZ4gHFHKDtacAfKV-529">
          <mxGeometry relative="1" as="geometry" />
        </mxCell>
        <mxCell id="xFMYQZ4gHFHKDtacAfKV-512" value="admin panel&lt;div&gt;1.add employee&lt;/div&gt;&lt;div&gt;2.remove&lt;/div&gt;&lt;div&gt;3.list&lt;/div&gt;&lt;div&gt;4.exit&lt;/div&gt;" style="whiteSpace=wrap;html=1;aspect=fixed;fillColor=#1ba1e2;fontColor=#ffffff;strokeColor=#006EAF;" vertex="1" parent="1">
          <mxGeometry x="1270" y="1237" width="90" height="90" as="geometry" />
        </mxCell>
        <mxCell id="xFMYQZ4gHFHKDtacAfKV-513" style="edgeStyle=orthogonalEdgeStyle;rounded=0;orthogonalLoop=1;jettySize=auto;html=1;exitX=0.5;exitY=1;exitDx=0;exitDy=0;entryX=1;entryY=0.5;entryDx=0;entryDy=0;" edge="1" parent="1" source="xFMYQZ4gHFHKDtacAfKV-517" target="xFMYQZ4gHFHKDtacAfKV-502">
          <mxGeometry relative="1" as="geometry">
            <Array as="points">
              <mxPoint x="1630" y="1407" />
              <mxPoint x="1730" y="1407" />
              <mxPoint x="1730" y="1067" />
            </Array>
          </mxGeometry>
        </mxCell>
        <mxCell id="xFMYQZ4gHFHKDtacAfKV-514" value="YES" style="edgeLabel;html=1;align=center;verticalAlign=middle;resizable=0;points=[];" vertex="1" connectable="0" parent="xFMYQZ4gHFHKDtacAfKV-513">
          <mxGeometry x="-0.0123" relative="1" as="geometry">
            <mxPoint as="offset" />
          </mxGeometry>
        </mxCell>
        <mxCell id="xFMYQZ4gHFHKDtacAfKV-515" style="edgeStyle=orthogonalEdgeStyle;rounded=0;orthogonalLoop=1;jettySize=auto;html=1;exitX=0.5;exitY=1;exitDx=0;exitDy=0;entryX=1;entryY=0.25;entryDx=0;entryDy=0;" edge="1" parent="1" source="xFMYQZ4gHFHKDtacAfKV-517" target="xFMYQZ4gHFHKDtacAfKV-2">
          <mxGeometry relative="1" as="geometry">
            <Array as="points">
              <mxPoint x="1630" y="1427" />
              <mxPoint x="1780" y="1427" />
              <mxPoint x="1780" y="787" />
              <mxPoint x="1620" y="787" />
              <mxPoint x="1620" y="165" />
            </Array>
            <mxPoint x="1620" y="470" as="targetPoint" />
          </mxGeometry>
        </mxCell>
        <mxCell id="xFMYQZ4gHFHKDtacAfKV-516" value="NO" style="edgeLabel;html=1;align=center;verticalAlign=middle;resizable=0;points=[];" vertex="1" connectable="0" parent="xFMYQZ4gHFHKDtacAfKV-515">
          <mxGeometry x="-0.3442" y="1" relative="1" as="geometry">
            <mxPoint as="offset" />
          </mxGeometry>
        </mxCell>
        <mxCell id="xFMYQZ4gHFHKDtacAfKV-517" value="retry?" style="rhombus;whiteSpace=wrap;html=1;fillColor=#fad9d5;strokeColor=#ae4132;" vertex="1" parent="1">
          <mxGeometry x="1590" y="1317" width="80" height="80" as="geometry" />
        </mxCell>
        <mxCell id="xFMYQZ4gHFHKDtacAfKV-518" style="edgeStyle=orthogonalEdgeStyle;rounded=0;orthogonalLoop=1;jettySize=auto;html=1;entryX=0.5;entryY=0;entryDx=0;entryDy=0;" edge="1" parent="1" source="xFMYQZ4gHFHKDtacAfKV-519" target="xFMYQZ4gHFHKDtacAfKV-517">
          <mxGeometry relative="1" as="geometry" />
        </mxCell>
        <mxCell id="xFMYQZ4gHFHKDtacAfKV-519" value="incorrect&lt;span style=&quot;background-color: transparent; color: light-dark(rgb(0, 0, 0), rgb(255, 255, 255));&quot;&gt;!&lt;/span&gt;&lt;div&gt;&lt;span style=&quot;background-color: transparent; color: light-dark(rgb(0, 0, 0), rgb(255, 255, 255));&quot;&gt;input(1-2)&lt;/span&gt;&lt;/div&gt;" style="shape=parallelogram;perimeter=parallelogramPerimeter;whiteSpace=wrap;html=1;fixedSize=1;fillColor=#d80073;fontColor=#ffffff;strokeColor=#A50040;" vertex="1" parent="1">
          <mxGeometry x="1570" y="1227" width="120" height="60" as="geometry" />
        </mxCell>
        <mxCell id="xFMYQZ4gHFHKDtacAfKV-520" style="edgeStyle=orthogonalEdgeStyle;rounded=0;orthogonalLoop=1;jettySize=auto;html=1;exitX=0.5;exitY=1;exitDx=0;exitDy=0;entryX=0.5;entryY=0;entryDx=0;entryDy=0;" edge="1" parent="1" source="xFMYQZ4gHFHKDtacAfKV-529" target="xFMYQZ4gHFHKDtacAfKV-531">
          <mxGeometry relative="1" as="geometry">
            <Array as="points">
              <mxPoint x="1313" y="1417" />
              <mxPoint x="1540" y="1417" />
              <mxPoint x="1540" y="1477" />
              <mxPoint x="1673" y="1477" />
            </Array>
          </mxGeometry>
        </mxCell>
        <mxCell id="xFMYQZ4gHFHKDtacAfKV-521" value="1" style="edgeLabel;html=1;align=center;verticalAlign=middle;resizable=0;points=[];" vertex="1" connectable="0" parent="xFMYQZ4gHFHKDtacAfKV-520">
          <mxGeometry x="0.1766" y="-1" relative="1" as="geometry">
            <mxPoint x="-99" y="-27" as="offset" />
          </mxGeometry>
        </mxCell>
        <mxCell id="xFMYQZ4gHFHKDtacAfKV-522" value="" style="edgeStyle=orthogonalEdgeStyle;rounded=0;orthogonalLoop=1;jettySize=auto;html=1;" edge="1" parent="1" source="xFMYQZ4gHFHKDtacAfKV-529" target="xFMYQZ4gHFHKDtacAfKV-533">
          <mxGeometry relative="1" as="geometry">
            <Array as="points">
              <mxPoint x="1313" y="1447" />
              <mxPoint x="1353" y="1447" />
            </Array>
          </mxGeometry>
        </mxCell>
        <mxCell id="xFMYQZ4gHFHKDtacAfKV-523" style="edgeStyle=orthogonalEdgeStyle;rounded=0;orthogonalLoop=1;jettySize=auto;html=1;exitX=0.5;exitY=1;exitDx=0;exitDy=0;entryX=0.5;entryY=0;entryDx=0;entryDy=0;" edge="1" parent="1" source="xFMYQZ4gHFHKDtacAfKV-529" target="xFMYQZ4gHFHKDtacAfKV-584">
          <mxGeometry relative="1" as="geometry">
            <mxPoint x="1260" y="1447" as="targetPoint" />
          </mxGeometry>
        </mxCell>
        <mxCell id="xFMYQZ4gHFHKDtacAfKV-524" value="2" style="edgeLabel;html=1;align=center;verticalAlign=middle;resizable=0;points=[];" vertex="1" connectable="0" parent="xFMYQZ4gHFHKDtacAfKV-523">
          <mxGeometry x="-0.8995" y="-1" relative="1" as="geometry">
            <mxPoint x="18" y="29" as="offset" />
          </mxGeometry>
        </mxCell>
        <mxCell id="xFMYQZ4gHFHKDtacAfKV-525" value="3" style="edgeLabel;html=1;align=center;verticalAlign=middle;resizable=0;points=[];" vertex="1" connectable="0" parent="xFMYQZ4gHFHKDtacAfKV-523">
          <mxGeometry x="0.4644" y="1" relative="1" as="geometry">
            <mxPoint as="offset" />
          </mxGeometry>
        </mxCell>
        <mxCell id="xFMYQZ4gHFHKDtacAfKV-526" style="edgeStyle=orthogonalEdgeStyle;rounded=0;orthogonalLoop=1;jettySize=auto;html=1;exitX=0.5;exitY=1;exitDx=0;exitDy=0;entryX=1;entryY=0.5;entryDx=0;entryDy=0;" edge="1" parent="1" source="xFMYQZ4gHFHKDtacAfKV-529" target="xFMYQZ4gHFHKDtacAfKV-2">
          <mxGeometry relative="1" as="geometry">
            <Array as="points">
              <mxPoint x="1313" y="1437" />
              <mxPoint x="1510" y="1437" />
              <mxPoint x="1510" y="2037" />
              <mxPoint x="930" y="2037" />
              <mxPoint x="930" y="180" />
            </Array>
            <mxPoint x="1180" y="680" as="targetPoint" />
          </mxGeometry>
        </mxCell>
        <mxCell id="xFMYQZ4gHFHKDtacAfKV-527" value="4" style="edgeLabel;html=1;align=center;verticalAlign=middle;resizable=0;points=[];" vertex="1" connectable="0" parent="xFMYQZ4gHFHKDtacAfKV-526">
          <mxGeometry x="-0.5839" y="-1" relative="1" as="geometry">
            <mxPoint as="offset" />
          </mxGeometry>
        </mxCell>
        <mxCell id="xFMYQZ4gHFHKDtacAfKV-528" value="4" style="edgeLabel;html=1;align=center;verticalAlign=middle;resizable=0;points=[];" vertex="1" connectable="0" parent="xFMYQZ4gHFHKDtacAfKV-526">
          <mxGeometry x="-0.8982" y="-4" relative="1" as="geometry">
            <mxPoint x="-15" y="-4" as="offset" />
          </mxGeometry>
        </mxCell>
        <mxCell id="xFMYQZ4gHFHKDtacAfKV-529" value="input(1-4)" style="shape=parallelogram;perimeter=parallelogramPerimeter;whiteSpace=wrap;html=1;fixedSize=1;fillColor=#d80073;fontColor=#ffffff;strokeColor=#A50040;" vertex="1" parent="1">
          <mxGeometry x="1252.5" y="1347" width="120" height="60" as="geometry" />
        </mxCell>
        <mxCell id="xFMYQZ4gHFHKDtacAfKV-530" value="" style="edgeStyle=orthogonalEdgeStyle;rounded=0;orthogonalLoop=1;jettySize=auto;html=1;" edge="1" parent="1" source="xFMYQZ4gHFHKDtacAfKV-531" target="xFMYQZ4gHFHKDtacAfKV-538">
          <mxGeometry relative="1" as="geometry" />
        </mxCell>
        <mxCell id="xFMYQZ4gHFHKDtacAfKV-531" value="information of employee" style="shape=parallelogram;perimeter=parallelogramPerimeter;whiteSpace=wrap;html=1;fixedSize=1;fillColor=#d80073;fontColor=#ffffff;strokeColor=#A50040;" vertex="1" parent="1">
          <mxGeometry x="1613.4099999999999" y="1495.94" width="120" height="60" as="geometry" />
        </mxCell>
        <mxCell id="xFMYQZ4gHFHKDtacAfKV-532" style="edgeStyle=orthogonalEdgeStyle;rounded=0;orthogonalLoop=1;jettySize=auto;html=1;exitX=0.5;exitY=1;exitDx=0;exitDy=0;entryX=0.5;entryY=0;entryDx=0;entryDy=0;" edge="1" parent="1" source="xFMYQZ4gHFHKDtacAfKV-533" target="xFMYQZ4gHFHKDtacAfKV-587">
          <mxGeometry relative="1" as="geometry">
            <Array as="points">
              <mxPoint x="1340" y="1517" />
            </Array>
          </mxGeometry>
        </mxCell>
        <mxCell id="xFMYQZ4gHFHKDtacAfKV-533" value="remove employee&lt;div&gt;by username&lt;/div&gt;" style="shape=parallelogram;perimeter=parallelogramPerimeter;whiteSpace=wrap;html=1;fixedSize=1;fillColor=#d80073;fontColor=#ffffff;strokeColor=#A50040;" vertex="1" parent="1">
          <mxGeometry x="1292.5" y="1457" width="120" height="60" as="geometry" />
        </mxCell>
        <mxCell id="xFMYQZ4gHFHKDtacAfKV-534" value="" style="edgeStyle=orthogonalEdgeStyle;rounded=0;orthogonalLoop=1;jettySize=auto;html=1;" edge="1" parent="1" source="xFMYQZ4gHFHKDtacAfKV-538" target="xFMYQZ4gHFHKDtacAfKV-548">
          <mxGeometry relative="1" as="geometry" />
        </mxCell>
        <mxCell id="xFMYQZ4gHFHKDtacAfKV-535" style="edgeStyle=orthogonalEdgeStyle;rounded=0;orthogonalLoop=1;jettySize=auto;html=1;exitX=0.5;exitY=1;exitDx=0;exitDy=0;entryX=1;entryY=0.5;entryDx=0;entryDy=0;" edge="1" parent="1" source="xFMYQZ4gHFHKDtacAfKV-538" target="xFMYQZ4gHFHKDtacAfKV-531">
          <mxGeometry relative="1" as="geometry">
            <Array as="points">
              <mxPoint x="1783.4099999999999" y="1655.94" />
              <mxPoint x="1783.4099999999999" y="1525.94" />
            </Array>
          </mxGeometry>
        </mxCell>
        <mxCell id="xFMYQZ4gHFHKDtacAfKV-536" value="WRONG" style="edgeLabel;html=1;align=center;verticalAlign=middle;resizable=0;points=[];" vertex="1" connectable="0" parent="xFMYQZ4gHFHKDtacAfKV-535">
          <mxGeometry x="-0.4729" y="-1" relative="1" as="geometry">
            <mxPoint as="offset" />
          </mxGeometry>
        </mxCell>
        <mxCell id="xFMYQZ4gHFHKDtacAfKV-537" value="OK" style="edgeLabel;html=1;align=center;verticalAlign=middle;resizable=0;points=[];" vertex="1" connectable="0" parent="xFMYQZ4gHFHKDtacAfKV-535">
          <mxGeometry x="-0.9529" y="-1" relative="1" as="geometry">
            <mxPoint as="offset" />
          </mxGeometry>
        </mxCell>
        <mxCell id="xFMYQZ4gHFHKDtacAfKV-538" value="validating name" style="rhombus;whiteSpace=wrap;html=1;fillColor=#fad9d5;strokeColor=#ae4132;" vertex="1" parent="1">
          <mxGeometry x="1633.4099999999999" y="1575.94" width="80" height="80" as="geometry" />
        </mxCell>
        <mxCell id="xFMYQZ4gHFHKDtacAfKV-539" value="" style="edgeStyle=orthogonalEdgeStyle;rounded=0;orthogonalLoop=1;jettySize=auto;html=1;" edge="1" parent="1" source="xFMYQZ4gHFHKDtacAfKV-543" target="xFMYQZ4gHFHKDtacAfKV-553">
          <mxGeometry relative="1" as="geometry" />
        </mxCell>
        <mxCell id="xFMYQZ4gHFHKDtacAfKV-540" value="OK" style="edgeLabel;html=1;align=center;verticalAlign=middle;resizable=0;points=[];" vertex="1" connectable="0" parent="xFMYQZ4gHFHKDtacAfKV-539">
          <mxGeometry x="-0.2098" y="-2" relative="1" as="geometry">
            <mxPoint as="offset" />
          </mxGeometry>
        </mxCell>
        <mxCell id="xFMYQZ4gHFHKDtacAfKV-541" style="edgeStyle=orthogonalEdgeStyle;rounded=0;orthogonalLoop=1;jettySize=auto;html=1;exitX=0.5;exitY=1;exitDx=0;exitDy=0;entryX=1;entryY=0.5;entryDx=0;entryDy=0;" edge="1" parent="1" source="xFMYQZ4gHFHKDtacAfKV-543" target="xFMYQZ4gHFHKDtacAfKV-531">
          <mxGeometry relative="1" as="geometry">
            <Array as="points">
              <mxPoint x="1843.4099999999999" y="1896.94" />
              <mxPoint x="1843.4099999999999" y="1525.94" />
            </Array>
          </mxGeometry>
        </mxCell>
        <mxCell id="xFMYQZ4gHFHKDtacAfKV-542" value="WRONG" style="edgeLabel;html=1;align=center;verticalAlign=middle;resizable=0;points=[];" vertex="1" connectable="0" parent="xFMYQZ4gHFHKDtacAfKV-541">
          <mxGeometry x="-0.6618" y="-1" relative="1" as="geometry">
            <mxPoint as="offset" />
          </mxGeometry>
        </mxCell>
        <mxCell id="xFMYQZ4gHFHKDtacAfKV-543" value="validating email" style="rhombus;whiteSpace=wrap;html=1;fillColor=#fad9d5;strokeColor=#ae4132;" vertex="1" parent="1">
          <mxGeometry x="1633.4099999999999" y="1816.94" width="80" height="80" as="geometry" />
        </mxCell>
        <mxCell id="xFMYQZ4gHFHKDtacAfKV-544" value="" style="edgeStyle=orthogonalEdgeStyle;rounded=0;orthogonalLoop=1;jettySize=auto;html=1;" edge="1" parent="1" source="xFMYQZ4gHFHKDtacAfKV-548" target="xFMYQZ4gHFHKDtacAfKV-543">
          <mxGeometry relative="1" as="geometry" />
        </mxCell>
        <mxCell id="xFMYQZ4gHFHKDtacAfKV-545" value="OK" style="edgeLabel;html=1;align=center;verticalAlign=middle;resizable=0;points=[];" vertex="1" connectable="0" parent="xFMYQZ4gHFHKDtacAfKV-544">
          <mxGeometry x="0.0557" y="1" relative="1" as="geometry">
            <mxPoint as="offset" />
          </mxGeometry>
        </mxCell>
        <mxCell id="xFMYQZ4gHFHKDtacAfKV-546" style="edgeStyle=orthogonalEdgeStyle;rounded=0;orthogonalLoop=1;jettySize=auto;html=1;exitX=0.5;exitY=1;exitDx=0;exitDy=0;entryX=1;entryY=0.5;entryDx=0;entryDy=0;" edge="1" parent="1" source="xFMYQZ4gHFHKDtacAfKV-548" target="xFMYQZ4gHFHKDtacAfKV-531">
          <mxGeometry relative="1" as="geometry">
            <Array as="points">
              <mxPoint x="1813.4099999999999" y="1755.94" />
              <mxPoint x="1813.4099999999999" y="1525.94" />
            </Array>
          </mxGeometry>
        </mxCell>
        <mxCell id="xFMYQZ4gHFHKDtacAfKV-547" value="WRONG" style="edgeLabel;html=1;align=center;verticalAlign=middle;resizable=0;points=[];" vertex="1" connectable="0" parent="xFMYQZ4gHFHKDtacAfKV-546">
          <mxGeometry x="-0.5656" relative="1" as="geometry">
            <mxPoint as="offset" />
          </mxGeometry>
        </mxCell>
        <mxCell id="xFMYQZ4gHFHKDtacAfKV-548" value="validating family" style="rhombus;whiteSpace=wrap;html=1;fillColor=#fad9d5;strokeColor=#ae4132;" vertex="1" parent="1">
          <mxGeometry x="1633.4099999999999" y="1675.94" width="80" height="80" as="geometry" />
        </mxCell>
        <mxCell id="xFMYQZ4gHFHKDtacAfKV-549" value="" style="edgeStyle=orthogonalEdgeStyle;rounded=0;orthogonalLoop=1;jettySize=auto;html=1;" edge="1" parent="1" source="xFMYQZ4gHFHKDtacAfKV-553" target="xFMYQZ4gHFHKDtacAfKV-559">
          <mxGeometry relative="1" as="geometry" />
        </mxCell>
        <mxCell id="xFMYQZ4gHFHKDtacAfKV-550" value="OK" style="edgeLabel;html=1;align=center;verticalAlign=middle;resizable=0;points=[];" vertex="1" connectable="0" parent="xFMYQZ4gHFHKDtacAfKV-549">
          <mxGeometry x="0.32" y="-1" relative="1" as="geometry">
            <mxPoint as="offset" />
          </mxGeometry>
        </mxCell>
        <mxCell id="xFMYQZ4gHFHKDtacAfKV-551" style="edgeStyle=orthogonalEdgeStyle;rounded=0;orthogonalLoop=1;jettySize=auto;html=1;exitX=0.5;exitY=1;exitDx=0;exitDy=0;entryX=1;entryY=0.5;entryDx=0;entryDy=0;" edge="1" parent="1" source="xFMYQZ4gHFHKDtacAfKV-553" target="xFMYQZ4gHFHKDtacAfKV-531">
          <mxGeometry relative="1" as="geometry">
            <Array as="points">
              <mxPoint x="1863.4099999999999" y="2015.94" />
              <mxPoint x="1863.4099999999999" y="1525.94" />
            </Array>
          </mxGeometry>
        </mxCell>
        <mxCell id="xFMYQZ4gHFHKDtacAfKV-552" value="WRONG" style="edgeLabel;html=1;align=center;verticalAlign=middle;resizable=0;points=[];" vertex="1" connectable="0" parent="xFMYQZ4gHFHKDtacAfKV-551">
          <mxGeometry x="-0.6885" relative="1" as="geometry">
            <mxPoint x="22" as="offset" />
          </mxGeometry>
        </mxCell>
        <mxCell id="xFMYQZ4gHFHKDtacAfKV-553" value="validating username" style="rhombus;whiteSpace=wrap;html=1;fillColor=#fad9d5;strokeColor=#ae4132;" vertex="1" parent="1">
          <mxGeometry x="1633.4099999999999" y="1935.94" width="80" height="80" as="geometry" />
        </mxCell>
        <mxCell id="xFMYQZ4gHFHKDtacAfKV-554" style="edgeStyle=orthogonalEdgeStyle;rounded=0;orthogonalLoop=1;jettySize=auto;html=1;exitX=0.5;exitY=1;exitDx=0;exitDy=0;entryX=1;entryY=0.5;entryDx=0;entryDy=0;" edge="1" parent="1" source="xFMYQZ4gHFHKDtacAfKV-559" target="xFMYQZ4gHFHKDtacAfKV-531">
          <mxGeometry relative="1" as="geometry">
            <Array as="points">
              <mxPoint x="1893.4099999999999" y="2125.94" />
              <mxPoint x="1893.4099999999999" y="1525.94" />
            </Array>
          </mxGeometry>
        </mxCell>
        <mxCell id="xFMYQZ4gHFHKDtacAfKV-555" value="WRONG" style="edgeLabel;html=1;align=center;verticalAlign=middle;resizable=0;points=[];" vertex="1" connectable="0" parent="xFMYQZ4gHFHKDtacAfKV-554">
          <mxGeometry x="-0.7071" y="-3" relative="1" as="geometry">
            <mxPoint as="offset" />
          </mxGeometry>
        </mxCell>
        <mxCell id="xFMYQZ4gHFHKDtacAfKV-556" value="" style="edgeStyle=orthogonalEdgeStyle;rounded=0;orthogonalLoop=1;jettySize=auto;html=1;" edge="1" parent="1" source="xFMYQZ4gHFHKDtacAfKV-559">
          <mxGeometry relative="1" as="geometry">
            <mxPoint x="1673.4099999999999" y="2155.94" as="targetPoint" />
          </mxGeometry>
        </mxCell>
        <mxCell id="xFMYQZ4gHFHKDtacAfKV-557" value="OK" style="edgeLabel;html=1;align=center;verticalAlign=middle;resizable=0;points=[];" vertex="1" connectable="0" parent="xFMYQZ4gHFHKDtacAfKV-556">
          <mxGeometry x="-0.1479" relative="1" as="geometry">
            <mxPoint y="-3" as="offset" />
          </mxGeometry>
        </mxCell>
        <mxCell id="xFMYQZ4gHFHKDtacAfKV-558" value="" style="edgeStyle=orthogonalEdgeStyle;rounded=0;orthogonalLoop=1;jettySize=auto;html=1;" edge="1" parent="1" source="xFMYQZ4gHFHKDtacAfKV-559" target="xFMYQZ4gHFHKDtacAfKV-564">
          <mxGeometry relative="1" as="geometry" />
        </mxCell>
        <mxCell id="xFMYQZ4gHFHKDtacAfKV-559" value="validating password" style="rhombus;whiteSpace=wrap;html=1;fillColor=#fad9d5;strokeColor=#ae4132;" vertex="1" parent="1">
          <mxGeometry x="1633.4099999999999" y="2045.94" width="80" height="80" as="geometry" />
        </mxCell>
        <mxCell id="xFMYQZ4gHFHKDtacAfKV-560" value="" style="edgeStyle=orthogonalEdgeStyle;rounded=0;orthogonalLoop=1;jettySize=auto;html=1;" edge="1" parent="1" source="xFMYQZ4gHFHKDtacAfKV-564" target="xFMYQZ4gHFHKDtacAfKV-566">
          <mxGeometry relative="1" as="geometry" />
        </mxCell>
        <mxCell id="xFMYQZ4gHFHKDtacAfKV-561" value="NO" style="edgeLabel;html=1;align=center;verticalAlign=middle;resizable=0;points=[];" vertex="1" connectable="0" parent="xFMYQZ4gHFHKDtacAfKV-560">
          <mxGeometry x="0.36" relative="1" as="geometry">
            <mxPoint y="-4" as="offset" />
          </mxGeometry>
        </mxCell>
        <mxCell id="xFMYQZ4gHFHKDtacAfKV-562" style="edgeStyle=orthogonalEdgeStyle;rounded=0;orthogonalLoop=1;jettySize=auto;html=1;exitX=1;exitY=0.5;exitDx=0;exitDy=0;entryX=0.5;entryY=0;entryDx=0;entryDy=0;" edge="1" parent="1" source="xFMYQZ4gHFHKDtacAfKV-564" target="xFMYQZ4gHFHKDtacAfKV-575">
          <mxGeometry relative="1" as="geometry" />
        </mxCell>
        <mxCell id="xFMYQZ4gHFHKDtacAfKV-563" value="YES" style="edgeLabel;html=1;align=center;verticalAlign=middle;resizable=0;points=[];" vertex="1" connectable="0" parent="xFMYQZ4gHFHKDtacAfKV-562">
          <mxGeometry x="0.3327" relative="1" as="geometry">
            <mxPoint as="offset" />
          </mxGeometry>
        </mxCell>
        <mxCell id="xFMYQZ4gHFHKDtacAfKV-564" value="repetitive user /email" style="rhombus;whiteSpace=wrap;html=1;direction=south;fillColor=#fad9d5;strokeColor=#ae4132;" vertex="1" parent="1">
          <mxGeometry x="1633.4099999999999" y="2155.94" width="80" height="80" as="geometry" />
        </mxCell>
        <mxCell id="xFMYQZ4gHFHKDtacAfKV-565" value="" style="edgeStyle=orthogonalEdgeStyle;rounded=0;orthogonalLoop=1;jettySize=auto;html=1;" edge="1" parent="1" source="xFMYQZ4gHFHKDtacAfKV-566" target="xFMYQZ4gHFHKDtacAfKV-573">
          <mxGeometry relative="1" as="geometry" />
        </mxCell>
        <mxCell id="xFMYQZ4gHFHKDtacAfKV-566" value="saved information" style="rounded=0;whiteSpace=wrap;html=1;fillColor=#1ba1e2;fontColor=#ffffff;strokeColor=#006EAF;" vertex="1" parent="1">
          <mxGeometry x="1613.4099999999999" y="2265.94" width="120" height="60" as="geometry" />
        </mxCell>
        <mxCell id="xFMYQZ4gHFHKDtacAfKV-567" value="" style="edgeStyle=orthogonalEdgeStyle;rounded=0;orthogonalLoop=1;jettySize=auto;html=1;" edge="1" parent="1" source="xFMYQZ4gHFHKDtacAfKV-568" target="xFMYQZ4gHFHKDtacAfKV-573">
          <mxGeometry relative="1" as="geometry" />
        </mxCell>
        <mxCell id="xFMYQZ4gHFHKDtacAfKV-568" value="input(add employee)" style="shape=parallelogram;perimeter=parallelogramPerimeter;whiteSpace=wrap;html=1;fixedSize=1;fillColor=#d80073;fontColor=#ffffff;strokeColor=#A50040;" vertex="1" parent="1">
          <mxGeometry x="1613.4099999999999" y="2345.94" width="120" height="60" as="geometry" />
        </mxCell>
        <mxCell id="xFMYQZ4gHFHKDtacAfKV-569" style="edgeStyle=orthogonalEdgeStyle;rounded=0;orthogonalLoop=1;jettySize=auto;html=1;exitX=0.5;exitY=1;exitDx=0;exitDy=0;entryX=0;entryY=0.5;entryDx=0;entryDy=0;" edge="1" parent="1" source="xFMYQZ4gHFHKDtacAfKV-573" target="xFMYQZ4gHFHKDtacAfKV-531">
          <mxGeometry relative="1" as="geometry">
            <Array as="points">
              <mxPoint x="1673" y="2527" />
              <mxPoint x="1610" y="2527" />
              <mxPoint x="1610" y="2447" />
              <mxPoint x="1540" y="2447" />
              <mxPoint x="1540" y="1526" />
            </Array>
          </mxGeometry>
        </mxCell>
        <mxCell id="xFMYQZ4gHFHKDtacAfKV-570" value="ADD" style="edgeLabel;html=1;align=center;verticalAlign=middle;resizable=0;points=[];" vertex="1" connectable="0" parent="xFMYQZ4gHFHKDtacAfKV-569">
          <mxGeometry x="-0.8949" y="2" relative="1" as="geometry">
            <mxPoint as="offset" />
          </mxGeometry>
        </mxCell>
        <mxCell id="xFMYQZ4gHFHKDtacAfKV-571" style="edgeStyle=orthogonalEdgeStyle;rounded=0;orthogonalLoop=1;jettySize=auto;html=1;exitX=0.5;exitY=1;exitDx=0;exitDy=0;entryX=1;entryY=0.5;entryDx=0;entryDy=0;" edge="1" parent="1" source="xFMYQZ4gHFHKDtacAfKV-573" target="xFMYQZ4gHFHKDtacAfKV-512">
          <mxGeometry relative="1" as="geometry">
            <Array as="points">
              <mxPoint x="1673" y="2597" />
              <mxPoint x="2050" y="2597" />
              <mxPoint x="2050" y="1437" />
              <mxPoint x="1560" y="1437" />
              <mxPoint x="1560" y="1282" />
            </Array>
          </mxGeometry>
        </mxCell>
        <mxCell id="xFMYQZ4gHFHKDtacAfKV-572" value="EXIT" style="edgeLabel;html=1;align=center;verticalAlign=middle;resizable=0;points=[];" vertex="1" connectable="0" parent="xFMYQZ4gHFHKDtacAfKV-571">
          <mxGeometry x="-0.8718" y="2" relative="1" as="geometry">
            <mxPoint as="offset" />
          </mxGeometry>
        </mxCell>
        <mxCell id="xFMYQZ4gHFHKDtacAfKV-573" value="if&amp;nbsp;" style="rhombus;whiteSpace=wrap;html=1;fillColor=#fad9d5;strokeColor=#ae4132;" vertex="1" parent="1">
          <mxGeometry x="1633.4099999999999" y="2425.94" width="80" height="80" as="geometry" />
        </mxCell>
        <mxCell id="xFMYQZ4gHFHKDtacAfKV-574" style="edgeStyle=orthogonalEdgeStyle;rounded=0;orthogonalLoop=1;jettySize=auto;html=1;" edge="1" parent="1" source="xFMYQZ4gHFHKDtacAfKV-575" target="xFMYQZ4gHFHKDtacAfKV-577">
          <mxGeometry relative="1" as="geometry" />
        </mxCell>
        <mxCell id="xFMYQZ4gHFHKDtacAfKV-575" value="username or password repetitive" style="rounded=0;whiteSpace=wrap;html=1;fillColor=#1ba1e2;fontColor=#ffffff;strokeColor=#006EAF;" vertex="1" parent="1">
          <mxGeometry x="1783.4099999999999" y="2265.94" width="120" height="60" as="geometry" />
        </mxCell>
        <mxCell id="xFMYQZ4gHFHKDtacAfKV-576" value="" style="edgeStyle=orthogonalEdgeStyle;rounded=0;orthogonalLoop=1;jettySize=auto;html=1;" edge="1" parent="1" source="xFMYQZ4gHFHKDtacAfKV-577" target="xFMYQZ4gHFHKDtacAfKV-582">
          <mxGeometry relative="1" as="geometry" />
        </mxCell>
        <mxCell id="xFMYQZ4gHFHKDtacAfKV-577" value="input(retry)" style="shape=parallelogram;perimeter=parallelogramPerimeter;whiteSpace=wrap;html=1;fixedSize=1;fillColor=#d80073;fontColor=#ffffff;strokeColor=#A50040;" vertex="1" parent="1">
          <mxGeometry x="1783.4099999999999" y="2345.94" width="120" height="60" as="geometry" />
        </mxCell>
        <mxCell id="xFMYQZ4gHFHKDtacAfKV-578" style="edgeStyle=orthogonalEdgeStyle;rounded=0;orthogonalLoop=1;jettySize=auto;html=1;exitX=0.5;exitY=1;exitDx=0;exitDy=0;entryX=1;entryY=0.5;entryDx=0;entryDy=0;" edge="1" parent="1" source="xFMYQZ4gHFHKDtacAfKV-582" target="xFMYQZ4gHFHKDtacAfKV-531">
          <mxGeometry relative="1" as="geometry">
            <Array as="points">
              <mxPoint x="1843.4099999999999" y="2525.94" />
              <mxPoint x="1933.4099999999999" y="2525.94" />
              <mxPoint x="1933.4099999999999" y="1525.94" />
            </Array>
          </mxGeometry>
        </mxCell>
        <mxCell id="xFMYQZ4gHFHKDtacAfKV-579" value="RETRY" style="edgeLabel;html=1;align=center;verticalAlign=middle;resizable=0;points=[];" vertex="1" connectable="0" parent="xFMYQZ4gHFHKDtacAfKV-578">
          <mxGeometry x="-0.9006" y="2" relative="1" as="geometry">
            <mxPoint as="offset" />
          </mxGeometry>
        </mxCell>
        <mxCell id="xFMYQZ4gHFHKDtacAfKV-580" style="edgeStyle=orthogonalEdgeStyle;rounded=0;orthogonalLoop=1;jettySize=auto;html=1;exitX=0.5;exitY=1;exitDx=0;exitDy=0;entryX=1;entryY=0.5;entryDx=0;entryDy=0;" edge="1" parent="1" source="xFMYQZ4gHFHKDtacAfKV-582" target="xFMYQZ4gHFHKDtacAfKV-512">
          <mxGeometry relative="1" as="geometry">
            <Array as="points">
              <mxPoint x="1843" y="2547" />
              <mxPoint x="1980" y="2547" />
              <mxPoint x="1980" y="1457" />
              <mxPoint x="1550" y="1457" />
              <mxPoint x="1550" y="1347" />
              <mxPoint x="1400" y="1347" />
              <mxPoint x="1400" y="1282" />
            </Array>
          </mxGeometry>
        </mxCell>
        <mxCell id="xFMYQZ4gHFHKDtacAfKV-581" value="EXIT" style="edgeLabel;html=1;align=center;verticalAlign=middle;resizable=0;points=[];" vertex="1" connectable="0" parent="xFMYQZ4gHFHKDtacAfKV-580">
          <mxGeometry x="-0.8714" y="-2" relative="1" as="geometry">
            <mxPoint as="offset" />
          </mxGeometry>
        </mxCell>
        <mxCell id="xFMYQZ4gHFHKDtacAfKV-582" value="if" style="rhombus;whiteSpace=wrap;html=1;fillColor=#fad9d5;strokeColor=#ae4132;" vertex="1" parent="1">
          <mxGeometry x="1803.4099999999999" y="2425.94" width="80" height="80" as="geometry" />
        </mxCell>
        <mxCell id="xFMYQZ4gHFHKDtacAfKV-583" style="edgeStyle=orthogonalEdgeStyle;rounded=0;orthogonalLoop=1;jettySize=auto;html=1;exitX=0.5;exitY=1;exitDx=0;exitDy=0;" edge="1" parent="1" source="xFMYQZ4gHFHKDtacAfKV-584" target="xFMYQZ4gHFHKDtacAfKV-605">
          <mxGeometry relative="1" as="geometry" />
        </mxCell>
        <mxCell id="xFMYQZ4gHFHKDtacAfKV-584" value="view list" style="rounded=0;whiteSpace=wrap;html=1;fillColor=#1ba1e2;fontColor=#ffffff;strokeColor=#006EAF;" vertex="1" parent="1">
          <mxGeometry x="1110" y="1477" width="120" height="60" as="geometry" />
        </mxCell>
        <mxCell id="xFMYQZ4gHFHKDtacAfKV-585" style="edgeStyle=orthogonalEdgeStyle;rounded=0;orthogonalLoop=1;jettySize=auto;html=1;exitX=0.5;exitY=1;exitDx=0;exitDy=0;" edge="1" parent="1" source="xFMYQZ4gHFHKDtacAfKV-587" target="xFMYQZ4gHFHKDtacAfKV-589">
          <mxGeometry relative="1" as="geometry" />
        </mxCell>
        <mxCell id="xFMYQZ4gHFHKDtacAfKV-586" style="edgeStyle=orthogonalEdgeStyle;rounded=0;orthogonalLoop=1;jettySize=auto;html=1;exitX=0.5;exitY=1;exitDx=0;exitDy=0;entryX=0.5;entryY=0;entryDx=0;entryDy=0;" edge="1" parent="1" source="xFMYQZ4gHFHKDtacAfKV-587" target="xFMYQZ4gHFHKDtacAfKV-591">
          <mxGeometry relative="1" as="geometry">
            <Array as="points">
              <mxPoint x="1340" y="1657" />
              <mxPoint x="1290" y="1657" />
              <mxPoint x="1290" y="1677" />
              <mxPoint x="1220" y="1677" />
            </Array>
          </mxGeometry>
        </mxCell>
        <mxCell id="xFMYQZ4gHFHKDtacAfKV-587" value="username exist" style="rhombus;whiteSpace=wrap;html=1;fillColor=#fad9d5;strokeColor=#ae4132;" vertex="1" parent="1">
          <mxGeometry x="1300" y="1557" width="80" height="80" as="geometry" />
        </mxCell>
        <mxCell id="xFMYQZ4gHFHKDtacAfKV-588" style="edgeStyle=orthogonalEdgeStyle;rounded=0;orthogonalLoop=1;jettySize=auto;html=1;exitX=0.5;exitY=1;exitDx=0;exitDy=0;" edge="1" parent="1" source="xFMYQZ4gHFHKDtacAfKV-589" target="xFMYQZ4gHFHKDtacAfKV-598">
          <mxGeometry relative="1" as="geometry">
            <mxPoint x="1425" y="1777" as="targetPoint" />
          </mxGeometry>
        </mxCell>
        <mxCell id="xFMYQZ4gHFHKDtacAfKV-589" value="removed employee" style="rounded=0;whiteSpace=wrap;html=1;fillColor=#1ba1e2;fontColor=#ffffff;strokeColor=#006EAF;" vertex="1" parent="1">
          <mxGeometry x="1380" y="1677" width="90" height="60" as="geometry" />
        </mxCell>
        <mxCell id="xFMYQZ4gHFHKDtacAfKV-590" style="edgeStyle=orthogonalEdgeStyle;rounded=0;orthogonalLoop=1;jettySize=auto;html=1;exitX=0.5;exitY=1;exitDx=0;exitDy=0;entryX=0.5;entryY=0;entryDx=0;entryDy=0;" edge="1" parent="1" source="xFMYQZ4gHFHKDtacAfKV-591" target="xFMYQZ4gHFHKDtacAfKV-596">
          <mxGeometry relative="1" as="geometry" />
        </mxCell>
        <mxCell id="xFMYQZ4gHFHKDtacAfKV-591" value="retry or exit" style="shape=parallelogram;perimeter=parallelogramPerimeter;whiteSpace=wrap;html=1;fixedSize=1;fillColor=#d80073;fontColor=#ffffff;strokeColor=#A50040;" vertex="1" parent="1">
          <mxGeometry x="1165" y="1698" width="110" height="60" as="geometry" />
        </mxCell>
        <mxCell id="xFMYQZ4gHFHKDtacAfKV-592" style="edgeStyle=orthogonalEdgeStyle;rounded=0;orthogonalLoop=1;jettySize=auto;html=1;exitX=0.5;exitY=1;exitDx=0;exitDy=0;entryX=0;entryY=0.5;entryDx=0;entryDy=0;" edge="1" parent="1" source="xFMYQZ4gHFHKDtacAfKV-596" target="xFMYQZ4gHFHKDtacAfKV-512">
          <mxGeometry relative="1" as="geometry">
            <Array as="points">
              <mxPoint x="1220" y="1877" />
              <mxPoint x="1290" y="1877" />
              <mxPoint x="1290" y="1937" />
              <mxPoint x="1050" y="1937" />
              <mxPoint x="1050" y="1272" />
              <mxPoint x="1270" y="1272" />
            </Array>
          </mxGeometry>
        </mxCell>
        <mxCell id="xFMYQZ4gHFHKDtacAfKV-593" value="NO" style="edgeLabel;html=1;align=center;verticalAlign=middle;resizable=0;points=[];" vertex="1" connectable="0" parent="xFMYQZ4gHFHKDtacAfKV-592">
          <mxGeometry x="-0.8014" relative="1" as="geometry">
            <mxPoint x="-150" y="22" as="offset" />
          </mxGeometry>
        </mxCell>
        <mxCell id="xFMYQZ4gHFHKDtacAfKV-594" style="edgeStyle=orthogonalEdgeStyle;rounded=0;orthogonalLoop=1;jettySize=auto;html=1;exitX=0.5;exitY=1;exitDx=0;exitDy=0;entryX=0;entryY=0.5;entryDx=0;entryDy=0;" edge="1" parent="1" source="xFMYQZ4gHFHKDtacAfKV-596" target="xFMYQZ4gHFHKDtacAfKV-533">
          <mxGeometry relative="1" as="geometry">
            <Array as="points">
              <mxPoint x="1220" y="1877" />
              <mxPoint x="1090" y="1877" />
              <mxPoint x="1090" y="1667" />
              <mxPoint x="1240" y="1667" />
              <mxPoint x="1240" y="1487" />
            </Array>
          </mxGeometry>
        </mxCell>
        <mxCell id="xFMYQZ4gHFHKDtacAfKV-595" value="YES" style="edgeLabel;html=1;align=center;verticalAlign=middle;resizable=0;points=[];" vertex="1" connectable="0" parent="xFMYQZ4gHFHKDtacAfKV-594">
          <mxGeometry x="-0.7518" y="-2" relative="1" as="geometry">
            <mxPoint as="offset" />
          </mxGeometry>
        </mxCell>
        <mxCell id="xFMYQZ4gHFHKDtacAfKV-596" value="if yes or not" style="rhombus;whiteSpace=wrap;html=1;fillColor=#fad9d5;strokeColor=#ae4132;" vertex="1" parent="1">
          <mxGeometry x="1180" y="1778" width="80" height="80" as="geometry" />
        </mxCell>
        <mxCell id="xFMYQZ4gHFHKDtacAfKV-597" style="edgeStyle=orthogonalEdgeStyle;rounded=0;orthogonalLoop=1;jettySize=auto;html=1;exitX=0.5;exitY=1;exitDx=0;exitDy=0;entryX=0.5;entryY=0;entryDx=0;entryDy=0;" edge="1" parent="1" source="xFMYQZ4gHFHKDtacAfKV-598" target="xFMYQZ4gHFHKDtacAfKV-603">
          <mxGeometry relative="1" as="geometry" />
        </mxCell>
        <mxCell id="xFMYQZ4gHFHKDtacAfKV-598" value="remove new&amp;nbsp;" style="shape=parallelogram;perimeter=parallelogramPerimeter;whiteSpace=wrap;html=1;fixedSize=1;fillColor=#d80073;fontColor=#ffffff;strokeColor=#A50040;" vertex="1" parent="1">
          <mxGeometry x="1372.5" y="1778" width="105" height="60" as="geometry" />
        </mxCell>
        <mxCell id="xFMYQZ4gHFHKDtacAfKV-599" style="edgeStyle=orthogonalEdgeStyle;rounded=0;orthogonalLoop=1;jettySize=auto;html=1;exitX=0.5;exitY=1;exitDx=0;exitDy=0;entryX=1;entryY=0.5;entryDx=0;entryDy=0;" edge="1" parent="1" source="xFMYQZ4gHFHKDtacAfKV-603" target="xFMYQZ4gHFHKDtacAfKV-533">
          <mxGeometry relative="1" as="geometry">
            <Array as="points">
              <mxPoint x="1420" y="1987" />
              <mxPoint x="1480" y="1987" />
              <mxPoint x="1480" y="1487" />
            </Array>
          </mxGeometry>
        </mxCell>
        <mxCell id="xFMYQZ4gHFHKDtacAfKV-600" value="YES" style="edgeLabel;html=1;align=center;verticalAlign=middle;resizable=0;points=[];" vertex="1" connectable="0" parent="xFMYQZ4gHFHKDtacAfKV-599">
          <mxGeometry x="-0.8131" relative="1" as="geometry">
            <mxPoint as="offset" />
          </mxGeometry>
        </mxCell>
        <mxCell id="xFMYQZ4gHFHKDtacAfKV-601" style="edgeStyle=orthogonalEdgeStyle;rounded=0;orthogonalLoop=1;jettySize=auto;html=1;exitX=0.5;exitY=1;exitDx=0;exitDy=0;entryX=0;entryY=0.5;entryDx=0;entryDy=0;" edge="1" parent="1" source="xFMYQZ4gHFHKDtacAfKV-603" target="xFMYQZ4gHFHKDtacAfKV-512">
          <mxGeometry relative="1" as="geometry">
            <Array as="points">
              <mxPoint x="1420" y="1987" />
              <mxPoint x="1010" y="1987" />
              <mxPoint x="1010" y="1272" />
              <mxPoint x="1270" y="1272" />
            </Array>
          </mxGeometry>
        </mxCell>
        <mxCell id="xFMYQZ4gHFHKDtacAfKV-602" value="EXIT" style="edgeLabel;html=1;align=center;verticalAlign=middle;resizable=0;points=[];" vertex="1" connectable="0" parent="xFMYQZ4gHFHKDtacAfKV-601">
          <mxGeometry x="-0.7983" y="2" relative="1" as="geometry">
            <mxPoint as="offset" />
          </mxGeometry>
        </mxCell>
        <mxCell id="xFMYQZ4gHFHKDtacAfKV-603" value="if yes or exit" style="rhombus;whiteSpace=wrap;html=1;fillColor=#fad9d5;strokeColor=#ae4132;" vertex="1" parent="1">
          <mxGeometry x="1380" y="1887" width="80" height="80" as="geometry" />
        </mxCell>
        <mxCell id="xFMYQZ4gHFHKDtacAfKV-604" style="edgeStyle=orthogonalEdgeStyle;rounded=0;orthogonalLoop=1;jettySize=auto;html=1;exitX=0.5;exitY=1;exitDx=0;exitDy=0;entryX=0;entryY=0.5;entryDx=0;entryDy=0;" edge="1" parent="1" source="xFMYQZ4gHFHKDtacAfKV-605" target="xFMYQZ4gHFHKDtacAfKV-512">
          <mxGeometry relative="1" as="geometry">
            <Array as="points">
              <mxPoint x="1170" y="1647" />
              <mxPoint x="1080" y="1647" />
              <mxPoint x="1080" y="1272" />
              <mxPoint x="1270" y="1272" />
            </Array>
          </mxGeometry>
        </mxCell>
        <mxCell id="xFMYQZ4gHFHKDtacAfKV-605" value="input for exit" style="shape=parallelogram;perimeter=parallelogramPerimeter;whiteSpace=wrap;html=1;fixedSize=1;fillColor=#d80073;fontColor=#ffffff;strokeColor=#A50040;" vertex="1" parent="1">
          <mxGeometry x="1110" y="1557" width="120" height="60" as="geometry" />
        </mxCell>
      </root>
    </mxGraphModel>
  </diagram>
</mxfile>
